<?xml version="1.0" encoding="UTF-8" standalone="yes"?>
<svg xmlns="http://www.w3.org/2000/svg" height="452" width="452">
<script type="text/ecmascript">
      <![CDATA[
        var shown = 1;
        function click() {
             var seq = document.getElementById("seq");
             if (shown==1) {
               seq.setAttribute("style", "visibility: hidden");
               shown = 0;
             } else {
               seq.setAttribute("style", "visibility: visible");
               shown = 1;
             }
         }
        ]]>
</script>
  <rect style="stroke: white; fill: white" height="452" x="0" y="0" width="452" onclick="click(evt)" />
  <g transform="scale(0.066169,0.066169) translate(7.500000,7.500000)">
    <polyline style="stroke: black; fill: none; stroke-width: 1.5" id="outline" points="
      3408.000,6816.000
      3426.849,6815.948
      3445.698,6815.792
      3464.546,6815.531
      3483.392,6815.166
      3502.236,6814.697
      3521.077,6814.124
      3539.914,6813.446
      3558.747,6812.664
      3577.576,6811.778
      3596.399,6810.788
      3615.217,6809.694
      3634.029,6808.496
      3652.833,6807.194
      3671.630,6805.788
      3690.419,6804.278
      3709.199,6802.664
      3727.970,6800.946
      3746.732,6799.124
      3765.483,6797.199
      3784.223,6795.170
      3802.951,6793.037
      3821.668,6790.801
      3840.371,6788.461
      3859.062,6786.019
      3877.739,6783.472
      3896.401,6780.822
      3915.048,6778.069
      3933.680,6775.213
      3952.296,6772.254
      3970.895,6769.192
      3989.477,6766.027
      4008.042,6762.760
      4026.587,6759.390
      4045.114,6755.917
      4063.622,6752.342
      4082.109,6748.665
      4100.576,6744.885
      4119.021,6741.004
      4137.445,6737.020
      4155.847,6732.935
      4174.225,6728.747
      4192.580,6724.459
      4210.911,6720.068
      4229.218,6715.577
      4247.500,6710.984
      4265.755,6706.291
      4283.985,6701.496
      4302.188,6696.601
      4320.363,6691.604
      4338.510,6686.508
      4356.629,6681.312
      4374.719,6676.015
      4392.780,6670.618
      4410.810,6665.121
      4428.810,6659.524
      4446.778,6653.829
      4464.715,6648.034
      4482.619,6642.140
      4500.490,6636.146
      4518.328,6630.055
      4536.132,6623.864
      4553.902,6617.575
      4571.636,6611.188
      4589.335,6604.703
      4606.998,6598.120
      4624.624,6591.440
      4642.213,6584.662
      4659.764,6577.787
      4677.276,6570.815
      4694.750,6563.747
      4712.185,6556.581
      4729.580,6549.320
      4746.934,6541.962
      4764.248,6534.509
      4781.519,6526.959
      4798.749,6519.315
      4815.937,6511.575
      4833.080,6503.741
      4850.181,6495.812
      4867.237,6487.787
      4884.249,6479.669
      4901.216,6471.457
      4918.137,6463.151
      4935.012,6454.752
      4951.840,6446.260
      4968.621,6437.675
      4985.354,6428.996
      5002.039,6420.226
      5018.674,6411.363
      5035.261,6402.409
      5051.798,6393.363
      5068.285,6384.226
      5084.721,6374.997
      5101.105,6365.678
      5117.438,6356.268
      5133.719,6346.768
      5149.947,6337.178
      5166.121,6327.499
      5182.242,6317.730
      5198.309,6307.872
      5214.320,6297.926
      5230.276,6287.891
      5246.177,6277.768
      5262.021,6267.558
      5277.809,6257.259
      5293.540,6246.874
      5309.212,6236.401
      5324.827,6225.843
      5340.383,6215.198
      5355.880,6204.467
      5371.317,6193.650
      5386.694,6182.749
      5402.012,6171.763
      5417.267,6160.691
      5432.461,6149.536
      5447.594,6138.297
      5462.664,6126.975
      5477.671,6115.568
      5492.614,6104.080
      5507.494,6092.509
      5522.311,6080.855
      5537.061,6069.121
      5551.747,6057.304
      5566.367,6045.407
      5580.922,6033.429
      5595.410,6021.370
      5609.831,6009.231
      5624.185,5997.014
      5638.470,5984.717
      5652.688,5972.340
      5666.836,5959.886
      5680.916,5947.354
      5694.927,5934.743
      5708.867,5922.056
      5722.737,5909.291
      5736.536,5896.450
      5750.264,5883.533
      5763.920,5870.541
      5777.504,5857.472
      5791.016,5844.329
      5804.454,5831.111
      5817.820,5817.820
      5831.111,5804.455
      5844.329,5791.016
      5857.473,5777.504
      5870.541,5763.920
      5883.533,5750.264
      5896.450,5736.536
      5909.291,5722.737
      5922.056,5708.867
      5934.743,5694.927
      5947.354,5680.916
      5959.886,5666.836
      5972.340,5652.688
      5984.717,5638.470
      5997.014,5624.185
      6009.231,5609.831
      6021.370,5595.410
      6033.429,5580.922
      6045.407,5566.368
      6057.304,5551.747
      6069.121,5537.062
      6080.855,5522.311
      6092.509,5507.494
      6104.080,5492.614
      6115.568,5477.671
      6126.975,5462.664
      6138.297,5447.594
      6149.536,5432.461
      6160.691,5417.267
      6171.763,5402.012
      6182.749,5386.694
      6193.650,5371.317
      6204.467,5355.880
      6215.198,5340.383
      6225.843,5324.827
      6236.401,5309.212
      6246.874,5293.540
      6257.259,5277.809
      6267.558,5262.021
      6277.769,5246.177
      6287.891,5230.276
      6297.926,5214.320
      6307.872,5198.309
      6317.730,5182.242
      6327.499,5166.121
      6337.179,5149.947
      6346.768,5133.719
      6356.268,5117.438
      6365.678,5101.105
      6374.997,5084.721
      6384.226,5068.285
      6393.363,5051.798
      6402.409,5035.261
      6411.363,5018.674
      6420.226,5002.039
      6428.996,4985.354
      6437.674,4968.621
      6446.260,4951.840
      6454.752,4935.012
      6463.151,4918.137
      6471.457,4901.216
      6479.669,4884.249
      6487.787,4867.237
      6495.812,4850.181
      6503.741,4833.080
      6511.575,4815.937
      6519.315,4798.749
      6526.959,4781.520
      6534.509,4764.248
      6541.962,4746.934
      6549.320,4729.580
      6556.581,4712.185
      6563.747,4694.750
      6570.815,4677.277
      6577.787,4659.764
      6584.662,4642.213
      6591.440,4624.624
      6598.120,4606.998
      6604.703,4589.335
      6611.188,4571.637
      6617.575,4553.902
      6623.864,4536.132
      6630.055,4518.328
      6636.146,4500.490
      6642.140,4482.619
      6648.034,4464.715
      6653.829,4446.778
      6659.524,4428.810
      6665.121,4410.810
      6670.618,4392.780
      6676.015,4374.719
      6681.312,4356.629
      6686.508,4338.511
      6691.604,4320.363
      6696.601,4302.188
      6701.496,4283.984
      6706.291,4265.755
      6710.984,4247.500
      6715.577,4229.218
      6720.068,4210.911
      6724.459,4192.580
      6728.747,4174.225
      6732.935,4155.847
      6737.020,4137.445
      6741.004,4119.021
      6744.885,4100.575
      6748.665,4082.109
      6752.342,4063.622
      6755.917,4045.114
      6759.390,4026.587
      6762.760,4008.042
      6766.027,3989.477
      6769.192,3970.895
      6772.254,3952.296
      6775.213,3933.680
      6778.069,3915.049
      6780.822,3896.401
      6783.472,3877.739
      6786.019,3859.062
      6788.461,3840.371
      6790.801,3821.668
      6793.037,3802.951
      6795.170,3784.223
      6797.199,3765.483
      6799.124,3746.732
      6800.946,3727.970
      6802.664,3709.199
      6804.278,3690.419
      6805.788,3671.630
      6807.194,3652.833
      6808.496,3634.029
      6809.694,3615.217
      6810.788,3596.399
      6811.778,3577.576
      6812.664,3558.747
      6813.446,3539.914
      6814.124,3521.076
      6814.697,3502.236
      6815.166,3483.392
      6815.531,3464.546
      6815.792,3445.698
      6815.948,3426.850
      6816.000,3408.000
      6815.948,3389.150
      6815.792,3370.302
      6815.531,3351.454
      6815.166,3332.608
      6814.697,3313.764
      6814.124,3294.923
      6813.446,3276.086
      6812.664,3257.253
      6811.778,3238.424
      6810.788,3219.601
      6809.694,3200.783
      6808.496,3181.971
      6807.194,3163.167
      6805.788,3144.370
      6804.278,3125.581
      6802.664,3106.801
      6800.946,3088.030
      6799.124,3069.268
      6797.199,3050.517
      6795.170,3031.777
      6793.037,3013.049
      6790.801,2994.333
      6788.461,2975.629
      6786.019,2956.938
      6783.472,2938.261
      6780.822,2919.599
      6778.069,2900.952
      6775.213,2882.320
      6772.254,2863.704
      6769.192,2845.104
      6766.027,2826.522
      6762.760,2807.958
      6759.390,2789.413
      6755.917,2770.886
      6752.342,2752.379
      6748.665,2733.891
      6744.885,2715.424
      6741.004,2696.979
      6737.020,2678.555
      6732.935,2660.154
      6728.747,2641.775
      6724.459,2623.420
      6720.068,2605.088
      6715.577,2586.782
      6710.984,2568.500
      6706.291,2550.245
      6701.496,2532.016
      6696.601,2513.812
      6691.604,2495.637
      6686.508,2477.490
      6681.312,2459.371
      6676.015,2441.281
      6670.618,2423.220
      6665.121,2405.190
      6659.524,2387.190
      6653.829,2369.222
      6648.034,2351.285
      6642.140,2333.381
      6636.146,2315.510
      6630.055,2297.672
      6623.864,2279.868
      6617.575,2262.098
      6611.188,2244.364
      6604.703,2226.665
      6598.120,2209.002
      6591.440,2191.376
      6584.662,2173.787
      6577.787,2156.236
      6570.815,2138.724
      6563.747,2121.250
      6556.582,2103.815
      6549.320,2086.420
      6541.962,2069.066
      6534.509,2051.752
      6526.959,2034.481
      6519.315,2017.251
      6511.575,2000.064
      6503.740,1982.919
      6495.812,1965.819
      6487.787,1948.763
      6479.669,1931.751
      6471.457,1914.784
      6463.151,1897.863
      6454.752,1880.988
      6446.260,1864.160
      6437.675,1847.380
      6428.996,1830.646
      6420.226,1813.961
      6411.363,1797.326
      6402.409,1780.738
      6393.363,1764.202
      6384.226,1747.715
      6374.997,1731.279
      6365.678,1714.895
      6356.268,1698.562
      6346.768,1682.281
      6337.178,1666.053
      6327.499,1649.879
      6317.730,1633.758
      6307.872,1617.691
      6297.926,1601.680
      6287.891,1585.724
      6277.769,1569.823
      6267.558,1553.979
      6257.259,1538.191
      6246.874,1522.460
      6236.401,1506.787
      6225.843,1491.173
      6215.198,1475.617
      6204.467,1460.120
      6193.650,1444.683
      6182.749,1429.306
      6171.763,1413.989
      6160.691,1398.732
      6149.536,1383.539
      6138.297,1368.406
      6126.975,1353.337
      6115.568,1338.329
      6104.080,1323.385
      6092.509,1308.506
      6080.855,1293.689
      6069.121,1278.939
      6057.304,1264.253
      6045.407,1249.633
      6033.429,1235.078
      6021.370,1220.590
      6009.231,1206.169
      5997.014,1191.815
      5984.717,1177.530
      5972.340,1163.312
      5959.886,1149.163
      5947.354,1135.084
      5934.743,1121.073
      5922.056,1107.133
      5909.291,1093.263
      5896.450,1079.464
      5883.533,1065.736
      5870.540,1052.080
      5857.473,1038.496
      5844.329,1024.984
      5831.112,1011.546
      5817.820,998.180
      5804.454,984.888
      5791.016,971.671
      5777.504,958.527
      5763.920,945.460
      5750.264,932.467
      5736.536,919.550
      5722.737,906.709
      5708.867,893.944
      5694.927,881.257
      5680.916,868.646
      5666.837,856.114
      5652.688,843.660
      5638.470,831.283
      5624.185,818.986
      5609.831,806.769
      5595.410,794.630
      5580.922,782.571
      5566.368,770.594
      5551.747,758.696
      5537.061,746.879
      5522.311,735.145
      5507.494,723.491
      5492.615,711.920
      5477.671,700.432
      5462.664,689.026
      5447.594,677.703
      5432.461,666.464
      5417.268,655.309
      5402.011,644.237
      5386.695,633.251
      5371.317,622.350
      5355.880,611.533
      5340.383,600.802
      5324.827,590.157
      5309.213,579.599
      5293.540,569.126
      5277.810,558.741
      5262.021,548.442
      5246.177,538.231
      5230.276,528.109
      5214.320,518.074
      5198.309,508.128
      5182.242,498.270
      5166.121,488.501
      5149.947,478.822
      5133.719,469.232
      5117.438,459.732
      5101.105,450.322
      5084.721,441.003
      5068.285,431.774
      5051.798,422.637
      5035.262,413.591
      5018.674,404.637
      5002.039,395.774
      4985.354,387.004
      4968.620,378.325
      4951.840,369.740
      4935.012,361.248
      4918.137,352.849
      4901.216,344.543
      4884.250,336.331
      4867.237,328.213
      4850.181,320.188
      4833.081,312.260
      4815.936,304.425
      4798.749,296.685
      4781.519,289.041
      4764.247,281.491
      4746.934,274.038
      4729.580,266.680
      4712.186,259.419
      4694.750,252.253
      4677.277,245.185
      4659.764,238.213
      4642.212,231.338
      4624.624,224.560
      4606.998,217.880
      4589.335,211.297
      4571.636,204.812
      4553.901,198.425
      4536.132,192.136
      4518.328,185.945
      4500.491,179.854
      4482.619,173.860
      4464.715,167.967
      4446.778,162.171
      4428.810,156.476
      4410.810,150.879
      4392.780,145.382
      4374.720,139.986
      4356.629,134.688
      4338.511,129.492
      4320.363,124.396
      4302.187,119.399
      4283.985,114.504
      4265.755,109.709
      4247.500,105.016
      4229.218,100.423
      4210.911,95.932
      4192.580,91.541
      4174.225,87.253
      4155.847,83.065
      4137.445,78.980
      4119.021,74.997
      4100.576,71.115
      4082.109,67.335
      4063.622,63.658
      4045.114,60.083
      4026.588,56.610
      4008.042,53.240
      3989.477,49.973
      3970.896,46.808
      3952.296,43.746
      3933.681,40.787
      3915.048,37.931
      3896.401,35.178
      3877.739,32.528
      3859.062,29.981
      3840.372,27.539
      3821.667,25.199
      3802.952,22.963
      3784.223,20.830
      3765.482,18.801
      3746.732,16.876
      3727.970,15.054
      3709.200,13.336
      3690.419,11.722
      3671.631,10.212
      3652.833,8.806
      3634.028,7.504
      3615.217,6.306
      3596.399,5.212
      3577.576,4.222
      3558.747,3.336
      3539.914,2.554
      3521.077,1.876
      3502.236,1.303
      3483.392,0.834
      3464.546,0.469
      3445.699,0.208
      3426.850,0.052
      3408.000,0.000
      3389.151,0.052
      3370.302,0.208
      3351.454,0.469
      3332.608,0.834
      3313.764,1.303
      3294.924,1.876
      3276.086,2.554
      3257.253,3.336
      3238.424,4.222
      3219.601,5.212
      3200.783,6.306
      3181.971,7.504
      3163.167,8.806
      3144.370,10.212
      3125.581,11.722
      3106.801,13.336
      3088.030,15.054
      3069.268,16.876
      3050.517,18.801
      3031.778,20.830
      3013.049,22.963
      2994.333,25.199
      2975.629,27.539
      2956.938,29.981
      2938.261,32.528
      2919.599,35.178
      2900.952,37.931
      2882.320,40.787
      2863.704,43.746
      2845.105,46.808
      2826.522,49.973
      2807.959,53.240
      2789.413,56.610
      2770.886,60.083
      2752.378,63.658
      2733.891,67.335
      2715.425,71.115
      2696.979,74.996
      2678.555,78.980
      2660.153,83.065
      2641.775,87.253
      2623.420,91.541
      2605.088,95.932
      2586.782,100.423
      2568.500,105.016
      2550.245,109.709
      2532.015,114.504
      2513.812,119.399
      2495.637,124.396
      2477.490,129.492
      2459.371,134.688
      2441.281,139.985
      2423.221,145.382
      2405.190,150.879
      2387.190,156.476
      2369.222,162.171
      2351.285,167.966
      2333.381,173.860
      2315.510,179.854
      2297.671,185.945
      2279.868,192.136
      2262.098,198.425
      2244.364,204.812
      2226.665,211.297
      2209.002,217.879
      2191.376,224.560
      2173.787,231.338
      2156.236,238.213
      2138.723,245.185
      2121.250,252.253
      2103.815,259.419
      2086.421,266.680
      2069.066,274.038
      2051.752,281.491
      2034.481,289.040
      2017.251,296.685
      2000.064,304.425
      1982.920,312.259
      1965.819,320.188
      1948.763,328.213
      1931.751,336.331
      1914.784,344.542
      1897.863,352.849
      1880.989,361.247
      1864.160,369.740
      1847.379,378.326
      1830.647,387.003
      1813.961,395.774
      1797.326,404.636
      1780.739,413.591
      1764.201,422.638
      1747.715,431.774
      1731.279,441.003
      1714.895,450.322
      1698.562,459.732
      1682.281,469.231
      1666.053,478.822
      1649.879,488.501
      1633.758,498.270
      1617.691,508.128
      1601.680,518.074
      1585.724,528.109
      1569.823,538.232
      1553.979,548.442
      1538.191,558.741
      1522.461,569.126
      1506.787,579.599
      1491.173,590.157
      1475.617,600.802
      1460.120,611.533
      1444.683,622.350
      1429.305,633.251
      1413.989,644.237
      1398.733,655.309
      1383.538,666.464
      1368.406,677.703
      1353.336,689.025
      1338.330,700.432
      1323.385,711.920
      1308.506,723.491
      1293.690,735.145
      1278.938,746.880
      1264.253,758.696
      1249.632,770.594
      1235.078,782.571
      1220.590,794.630
      1206.169,806.769
      1191.816,818.986
      1177.530,831.284
      1163.312,843.659
      1149.163,856.114
      1135.084,868.646
      1121.073,881.257
      1107.133,893.944
      1093.263,906.709
      1079.464,919.550
      1065.737,932.467
      1052.080,945.460
      1038.496,958.527
      1024.984,971.671
      1011.545,984.889
      998.180,998.180
      984.888,1011.546
      971.671,1024.984
      958.528,1038.496
      945.459,1052.080
      932.467,1065.736
      919.550,1079.464
      906.709,1093.263
      893.944,1107.133
      881.257,1121.073
      868.647,1135.083
      856.114,1149.164
      843.660,1163.312
      831.283,1177.530
      818.986,1191.816
      806.769,1206.169
      794.630,1220.590
      782.571,1235.079
      770.593,1249.633
      758.696,1264.253
      746.880,1278.938
      735.144,1293.690
      723.491,1308.506
      711.920,1323.385
      700.431,1338.330
      689.025,1353.337
      677.703,1368.406
      666.464,1383.538
      655.309,1398.733
      644.238,1413.988
      633.251,1429.305
      622.349,1444.683
      611.533,1460.120
      600.802,1475.617
      590.157,1491.173
      579.598,1506.788
      569.126,1522.460
      558.741,1538.190
      548.442,1553.979
      538.232,1569.823
      528.109,1585.723
      518.074,1601.681
      508.127,1617.692
      498.270,1633.758
      488.501,1649.878
      478.822,1666.054
      469.232,1682.281
      459.732,1698.561
      450.322,1714.895
      441.003,1731.279
      431.775,1747.715
      422.637,1764.201
      413.591,1780.739
      404.637,1797.325
      395.774,1813.961
      387.003,1830.647
      378.325,1847.379
      369.740,1864.160
      361.247,1880.989
      352.848,1897.863
      344.543,1914.784
      336.331,1931.750
      328.212,1948.763
      320.189,1965.819
      312.260,1982.919
      304.424,2000.064
      296.685,2017.251
      289.041,2034.480
      281.491,2051.752
      274.038,2069.066
      266.680,2086.420
      259.419,2103.814
      252.253,2121.250
      245.185,2138.724
      238.213,2156.236
      231.338,2173.787
      224.560,2191.376
      217.880,2209.002
      211.297,2226.664
      204.812,2244.364
      198.425,2262.098
      192.136,2279.867
      185.946,2297.671
      179.854,2315.510
      173.861,2333.381
      167.967,2351.285
      162.171,2369.223
      156.476,2387.190
      150.879,2405.189
      145.382,2423.221
      139.986,2441.281
      134.689,2459.371
      129.492,2477.489
      124.395,2495.638
      119.399,2513.812
      114.504,2532.015
      109.709,2550.246
      105.016,2568.501
      100.423,2586.782
      95.932,2605.088
      91.541,2623.420
      87.253,2641.775
      83.066,2660.153
      78.980,2678.556
      74.996,2696.979
      71.115,2715.424
      67.335,2733.890
      63.658,2752.379
      60.083,2770.886
      56.610,2789.412
      53.240,2807.959
      49.973,2826.523
      46.808,2845.104
      43.746,2863.705
      40.787,2882.320
      37.931,2900.951
      35.178,2919.598
      32.528,2938.262
      29.982,2956.938
      27.539,2975.628
      25.199,2994.333
      22.963,3013.049
      20.830,3031.777
      18.801,3050.517
      16.875,3069.269
      15.054,3088.030
      13.336,3106.800
      11.722,3125.582
      10.212,3144.370
      8.806,3163.167
      7.504,3181.971
      6.306,3200.783
      5.212,3219.600
      4.221,3238.424
      3.336,3257.253
      2.554,3276.086
      1.876,3294.923
      1.303,3313.763
      0.834,3332.608
      0.469,3351.454
      0.208,3370.301
      0.052,3389.151
      0.000,3408.000
      0.052,3426.849
      0.208,3445.699
      0.469,3464.546
      0.834,3483.392
      1.303,3502.235
      1.876,3521.077
      2.554,3539.914
      3.336,3558.747
      4.221,3577.577
      5.212,3596.400
      6.306,3615.217
      7.504,3634.028
      8.806,3652.833
      10.212,3671.630
      11.722,3690.418
      13.336,3709.200
      15.054,3727.971
      16.876,3746.731
      18.801,3765.482
      20.830,3784.223
      22.963,3802.951
      25.199,3821.667
      27.539,3840.372
      29.982,3859.062
      32.528,3877.738
      35.178,3896.402
      37.931,3915.049
      40.787,3933.680
      43.746,3952.295
      46.808,3970.896
      49.973,3989.477
      53.240,4008.041
      56.610,4026.588
      60.083,4045.115
      63.658,4063.621
      67.335,4082.108
      71.115,4100.576
      74.996,4119.021
      78.980,4137.444
      83.066,4155.847
      87.253,4174.225
      91.541,4192.580
      95.931,4210.911
      100.423,4229.218
      105.016,4247.499
      109.709,4265.755
      114.504,4283.985
      119.399,4302.188
      124.395,4320.362
      129.492,4338.510
      134.689,4356.630
      139.986,4374.719
      145.382,4392.779
      150.879,4410.811
      156.476,4428.810
      162.171,4446.777
      167.967,4464.715
      173.861,4482.619
      179.854,4500.490
      185.945,4518.328
      192.136,4536.133
      198.425,4553.902
      204.812,4571.636
      211.297,4589.336
      217.880,4606.998
      224.560,4624.624
      231.338,4642.212
      238.213,4659.764
      245.185,4677.276
      252.253,4694.750
      259.419,4712.186
      266.680,4729.580
      274.038,4746.934
      281.491,4764.247
      289.041,4781.520
      296.685,4798.749
      304.425,4815.936
      312.260,4833.081
      320.189,4850.181
      328.212,4867.237
      336.331,4884.250
      344.543,4901.216
      352.848,4918.137
      361.247,4935.011
      369.740,4951.840
      378.325,4968.621
      387.003,4985.353
      395.774,5002.039
      404.637,5018.675
      413.591,5035.261
      422.637,5051.798
      431.775,5068.285
      441.003,5084.721
      450.322,5101.105
      459.732,5117.439
      469.232,5133.719
      478.822,5149.947
      488.501,5166.121
      498.270,5182.242
      508.127,5198.308
      518.074,5214.319
      528.109,5230.277
      538.232,5246.177
      548.442,5262.021
      558.741,5277.810
      569.126,5293.540
      579.598,5309.212
      590.157,5324.827
      600.802,5340.384
      611.533,5355.880
      622.349,5371.317
      633.251,5386.695
      644.238,5402.012
      655.309,5417.267
      666.464,5432.461
      677.703,5447.594
      689.026,5462.664
      700.431,5477.670
      711.921,5492.615
      723.491,5507.495
      735.144,5522.310
      746.879,5537.061
      758.696,5551.747
      770.593,5566.367
      782.571,5580.921
      794.630,5595.410
      806.769,5609.831
      818.986,5624.184
      831.283,5638.470
      843.660,5652.688
      856.114,5666.836
      868.646,5680.916
      881.257,5694.927
      893.944,5708.867
      906.708,5722.736
      919.550,5736.536
      932.467,5750.264
      945.459,5763.920
      958.527,5777.503
      971.671,5791.016
      984.888,5804.455
      998.180,5817.819
      1011.546,5831.112
      1024.984,5844.329
      1038.496,5857.472
      1052.080,5870.540
      1065.737,5883.533
      1079.464,5896.450
      1093.263,5909.291
      1107.134,5922.056
      1121.073,5934.743
      1135.083,5947.353
      1149.163,5959.885
      1163.313,5972.341
      1177.530,5984.716
      1191.815,5997.013
      1206.170,6009.232
      1220.590,6021.370
      1235.078,6033.428
      1249.633,6045.407
      1264.253,6057.304
      1278.939,6069.120
      1293.689,6080.855
      1308.506,6092.509
      1323.385,6104.080
      1338.329,6115.568
      1353.337,6126.975
      1368.407,6138.297
      1383.538,6149.536
      1398.732,6160.691
      1413.989,6171.763
      1429.305,6182.749
      1444.682,6193.650
      1460.120,6204.467
      1475.617,6215.198
      1491.172,6225.843
      1506.787,6236.401
      1522.461,6246.874
      1538.191,6257.259
      1553.978,6267.557
      1569.823,6277.769
      1585.724,6287.891
      1601.680,6297.926
      1617.691,6307.872
      1633.758,6317.730
      1649.879,6327.499
      1666.053,6337.178
      1682.281,6346.769
      1698.562,6356.268
      1714.894,6365.678
      1731.280,6374.997
      1747.715,6384.226
      1764.202,6393.362
      1780.738,6402.408
      1797.326,6411.364
      1813.962,6420.226
      1830.646,6428.996
      1847.380,6437.675
      1864.161,6446.260
      1880.988,6454.752
      1897.862,6463.151
      1914.785,6471.458
      1931.751,6479.669
      1948.762,6487.787
      1965.820,6495.812
      1982.920,6503.741
      2000.063,6511.575
      2017.250,6519.314
      2034.481,6526.960
      2051.752,6534.509
      2069.065,6541.962
      2086.421,6549.320
      2103.815,6556.582
      2121.249,6563.746
      2138.724,6570.815
      2156.236,6577.787
      2173.787,6584.662
      2191.375,6591.439
      2209.002,6598.121
      2226.665,6604.703
      2244.363,6611.188
      2262.099,6617.575
      2279.868,6623.864
      2297.671,6630.055
      2315.509,6636.146
      2333.381,6642.140
      2351.285,6648.034
      2369.221,6653.829
      2387.191,6659.524
      2405.190,6665.121
      2423.220,6670.617
      2441.280,6676.014
      2459.371,6681.312
      2477.490,6686.508
      2495.637,6691.604
      2513.813,6696.601
      2532.015,6701.496
      2550.244,6706.290
      2568.500,6710.984
      2586.782,6715.577
      2605.088,6720.068
      2623.419,6724.458
      2641.775,6728.747
      2660.154,6732.935
      2678.555,6737.020
      2696.979,6741.004
      2715.425,6744.885
      2733.891,6748.665
      2752.378,6752.342
      2770.886,6755.917
      2789.413,6759.390
      2807.958,6762.760
      2826.523,6766.027
      2845.105,6769.192
      2863.704,6772.254
      2882.319,6775.213
      2900.952,6778.069
      2919.599,6780.822
      2938.261,6783.472
      2956.938,6786.019
      2975.629,6788.461
      2994.332,6790.801
      3013.048,6793.037
      3031.778,6795.170
      3050.517,6797.199
      3069.268,6799.124
      3088.030,6800.946
      3106.801,6802.664
      3125.581,6804.278
      3144.371,6805.788
      3163.167,6807.194
      3181.971,6808.496
      3200.782,6809.694
      3219.601,6810.789
      3238.424,6811.778
      3257.252,6812.664
      3276.087,6813.446
      3294.924,6814.124
      3313.764,6814.697
      3332.607,6815.166
      3351.454,6815.531
      3370.302,6815.792
      3389.150,6815.948
    " />
    <g style="stroke: black; stroke-width: 1; fill: none;" id="pairs">
      <path id="22,89" d="M 3802.951171875000000 6793.037109375000000 C 3755.668457031250000,6387.786132812500000 4811.203125000000000,6059.607421875000000 5002.038574218750000 6420.225585937500000" />
      <path id="23,88" d="M 3821.667724609375000 6790.800781250000000 C 3773.600585937500000,6397.729003906250000 4802.069335937500000,6077.964843750000000 4985.353515625000000 6428.996093750000000" />
      <path id="24,87" d="M 3840.371337890625000 6788.461425781250000 C 3791.653564453125000,6407.564453125000000 4792.775878906250000,6096.302734375000000 4968.620605468750000 6437.674804687500000" />
      <path id="25,86" d="M 3859.062011718750000 6786.018554687500000 C 3809.826416015625000,6417.291015625000000 4783.322265625000000,6114.618652343750000 4951.839843750000000 6446.259765625000000" />
      <path id="26,85" d="M 3877.738769531250000 6783.471679687500000 C 3828.118408203125000,6426.907714843750000 4773.707519531250000,6132.912109375000000 4935.011718750000000 6454.752441406250000" />
      <path id="27,84" d="M 3896.401123046875000 6780.822265625000000 C 3846.529052734375000,6436.414062500000000 4763.932617187500000,6151.181640625000000 4918.136718750000000 6463.151367187500000" />
      <path id="28,83" d="M 3915.048339843750000 6778.069335937500000 C 3865.057617187500000,6445.808593750000000 4753.997070312500000,6169.426269531250000 4901.215820312500000 6471.457031250000000" />
      <path id="29,82" d="M 3933.680419921875000 6775.212890625000000 C 3883.703613281250000,6455.090820312500000 4743.901367187500000,6187.644531250000000 4884.249023437500000 6479.668945312500000" />
      <path id="30,81" d="M 3952.296142578125000 6772.253906250000000 C 3902.466308593750000,6464.258789062500000 4733.645507812500000,6205.834960937500000 4867.237304687500000 6487.787109375000000" />
      <path id="33,44" d="M 4008.041503906250000 6762.759765625000000 C 3995.364501953125000,6691.884765625000000 4193.948242187500000,6650.095214843750000 4210.911132812500000 6720.068359375000000" />
      <path id="34,43" d="M 4026.587402343750000 6759.389648437500000 C 4015.696777343750000,6700.386718750000000 4178.767089843750000,6666.070312500000000 4192.580078125000000 6724.458984375000000" />
      <path id="35,42" d="M 4045.114257812500000 6755.916992187500000 C 4036.140625000000000,6708.763671875000000 4163.433105468750000,6681.976074218750000 4174.225097656250000 6728.747070312500000" />
      <path id="57,70" d="M 4446.778320312500000 6653.828613281250000 C 4421.174316406250000,6573.825683593750000 4645.991699218750000,6492.858398437500000 4677.276367187500000 6570.815429687500000" />
      <path id="58,69" d="M 4464.714843750000000 6648.033691406250000 C 4442.389648437500000,6579.582031250000000 4633.318359375000000,6510.819824218750000 4659.763671875000000 6577.787109375000000" />
      <path id="59,68" d="M 4482.619140625000000 6642.139648437500000 C 4463.699218750000000,6585.200195312500000 4620.483398437500000,6528.734863281250000 4642.212890625000000 6584.662109375000000" />
      <path id="60,67" d="M 4500.490234375000000 6636.146484375000000 C 4485.103027343750000,6590.679687500000000 4607.488281250000000,6546.602539062500000 4624.624023437500000 6591.439941406250000" />
      <path id="61,66" d="M 4518.328125000000000 6630.054687500000000 C 4506.599609375000000,6596.018554687500000 4594.332519531250000,6564.421875000000000 4606.998046875000000 6598.120117187500000" />
      <path id="194,227" d="M 6393.362792968750000 5051.798339843750000 C 6214.661132812500000,4953.401855468750000 6448.546875000000000,4418.292968750000000 6642.139648437500000 4482.619140625000000" />
      <path id="195,226" d="M 6402.409179687500000 5035.261230468750000 C 6233.709960937500000,4943.584472656250000 6454.279296875000000,4438.941406250000000 6636.146484375000000 4500.490234375000000" />
      <path id="196,225" d="M 6411.363281250000000 5018.674316406250000 C 6252.735351562500000,4933.603515625000000 6459.875488281250000,4459.684082031250000 6630.054687500000000 4518.328125000000000" />
      <path id="197,224" d="M 6420.225585937500000 5002.038574218750000 C 6271.735839843750000,4923.458984375000000 6465.335937500000000,4480.520019531250000 6623.864257812500000 4536.132324218750000" />
      <path id="201,220" d="M 6454.752441406250000 4935.011718750000000 C 6347.472656250000000,4881.243652343750000 6485.791992187500000,4564.779296875000000 6598.120117187500000 4606.998046875000000" />
      <path id="202,219" d="M 6463.151367187500000 4918.136718750000000 C 6366.333496093750000,4870.280273437500000 6490.556640625000000,4586.068847656250000 6591.439941406250000 4624.624023437500000" />
      <path id="203,218" d="M 6471.457031250000000 4901.215820312500000 C 6385.162597656250000,4859.153320312500000 6495.178710937500000,4607.446289062500000 6584.662109375000000 4642.212890625000000" />
      <path id="204,216" d="M 6479.668945312500000 4884.249023437500000 C 6409.367187500000000,4850.461914062500000 6498.426757812500000,4648.226562500000000 6570.815429687500000 4677.276855468750000" />
      <path id="205,215" d="M 6487.787109375000000 4867.237304687500000 C 6428.143554687500000,4838.977539062500000 6502.631835937500000,4669.831054687500000 6563.746582031250000 4694.750488281250000" />
      <path id="236,249" d="M 6691.604492187500000 4320.362792968750000 C 6610.670898437500000,4297.875000000000000 6666.324218750000000,4065.493408203125000 6748.665039062500000 4082.108886718750000" />
      <path id="237,248" d="M 6696.600585937500000 4302.187500000000000 C 6627.123046875000000,4283.295898437500000 6674.387695312500000,4085.943603515625000 6744.885253906250000 4100.575195312500000" />
      <path id="238,247" d="M 6701.496093750000000 4283.984375000000000 C 6643.511718750000000,4268.562500000000000 6682.324218750000000,4106.503417968750000 6741.003906250000000 4119.021484375000000" />
      <path id="239,246" d="M 6706.290527343750000 4265.755371093750000 C 6659.835937500000000,4253.674316406250000 6690.132324218750000,4127.170898437500000 6737.020019531250000 4137.445312500000000" />
      <path id="251,274" d="M 6755.916992187500000 4045.114257812500000 C 6614.456054687500000,4018.193847656250000 6665.960937500000000,3606.461425781250000 6809.694335937500000 3615.217285156250000" />
      <path id="252,273" d="M 6759.389648437500000 4026.587402343750000 C 6629.582519531250000,4002.627929687500000 6676.787109375000000,3625.273925781250000 6808.496093750000000 3634.028564453125000" />
      <path id="253,272" d="M 6762.759765625000000 4008.041503906250000 C 6644.634765625000000,3986.913330078125000 6687.503906250000000,3644.212402343750000 6807.194335937500000 3652.833251953125000" />
      <path id="254,271" d="M 6766.027343750000000 3989.477050781250000 C 6659.611328125000000,3971.050048828125000 6698.111328125000000,3663.275878906250000 6805.788085937500000 3671.630371093750000" />
      <path id="255,270" d="M 6769.192382812500000 3970.895263671875000 C 6674.510742187500000,3955.039062500000000 6708.607910156250000,3682.463623046875000 6804.277832031250000 3690.419189453125000" />
      <path id="257,268" d="M 6775.212890625000000 3933.680419921875000 C 6704.075195312500000,3922.574462890625000 6729.264160156250000,3721.210449218750000 6800.946289062500000 3727.970458984375000" />
      <path id="258,267" d="M 6778.069335937500000 3915.048583984375000 C 6718.736816406250000,3906.121582031250000 6739.421386718750000,3740.768066406250000 6799.124023437500000 3746.731689453125000" />
      <path id="259,266" d="M 6780.822265625000000 3896.401123046875000 C 6733.317382812500000,3889.522216796875000 6749.463867187500000,3760.447998046875000 6797.199218750000000 3765.482910156250000" />
      <path id="260,265" d="M 6783.471679687500000 3877.738769531250000 C 6747.815429687500000,3872.776855468750000 6759.389648437500000,3780.248779296875000 6795.169921875000000 3784.222900390625000" />
      <path id="535,573" d="M 4045.114013671875000 60.083007812500000 C 4001.368652343750000,289.957519531250000 3337.784423828125000,234.776855468750000 3332.607910156250000 0.833984375000000" />
      <path id="536,572" d="M 4026.587646484375000 56.610351562500000 C 3986.292236328125000,274.922363281250000 3355.137695312500000,222.438476562500000 3351.454345703125000 0.469238281250000" />
      <path id="537,571" d="M 4008.041503906250000 53.240234375000000 C 3971.067138671875000,259.958984375000000 3372.624511718750000,210.195312500000000 3370.301513671875000 0.208496093750000" />
      <path id="538,570" d="M 3989.477050781250000 49.972656250000000 C 3955.693847656250000,245.069335937500000 3390.245849609375000,198.049316406250000 3389.150634765625000 0.052246093750000" />
      <path id="539,569" d="M 3970.895507812500000 46.807617187500000 C 3940.174072265625000,230.252929687500000 3407.999755859375000,186.000000000000000 3407.999755859375000 0.000000000000000" />
      <path id="540,568" d="M 3952.295898437500000 43.746093750000000 C 3924.506347656250000,215.512207031250000 3425.887207031250000,174.049804687500000 3426.849609375000000 0.052246093750000" />
      <path id="541,567" d="M 3933.680664062500000 40.787109375000000 C 3908.692382812500000,200.848632812500000 3443.906738281250000,162.198730468750000 3445.698730468750000 0.208496093750000" />
      <path id="542,562" d="M 3915.048339843750000 37.930664062500000 C 3896.302001953125000,162.528320312500000 3535.036376953125000,128.459472656250000 3539.913574218750000 2.553710937500000" />
      <path id="543,561" d="M 3896.401367187500000 35.178222656250000 C 3880.063964843750000,148.001464843750000 3553.704589843750000,117.224121093750000 3558.747314453125000 3.335937500000000" />
      <path id="544,560" d="M 3877.738769531250000 32.528320312500000 C 3863.679687500000000,133.554687500000000 3572.500976562500000,106.094726562500000 3577.576171875000000 4.221679687500000" />
      <path id="545,559" d="M 3859.061523437500000 29.981445312500000 C 3847.149902343750000,119.189941406250000 3591.424072265625000,95.074218750000000 3596.399414062500000 5.211914062500000" />
      <path id="546,558" d="M 3840.371582031250000 27.538574218750000 C 3830.475830078125000,104.908203125000000 3610.474853515625000,84.161132812500000 3615.217285156250000 6.305664062500000" />
      <path id="547,557" d="M 3821.667480468750000 25.199218750000000 C 3813.656250000000000,90.710937500000000 3629.651123046875000,73.358398437500000 3634.028320312500000 7.503906250000000" />
      <path id="548,556" d="M 3802.951660156250000 22.962890625000000 C 3796.693603515625000,76.598632812500000 3648.953857421875000,62.666015625000000 3652.833251953125000 8.805664062500000" />
      <path id="576,599" d="M 3276.085937500000000 2.553710937500000 C 3281.659667968750000,146.446289062500000 2868.889160156250000,188.830078125000000 2845.104736328125000 46.807617187500000" />
      <path id="577,598" d="M 3257.252929687500000 3.335937500000000 C 3263.091796875000000,135.206542968750000 2884.786132812500000,174.051757812500000 2863.704101562500000 43.746093750000000" />
      <path id="578,597" d="M 3238.423828125000000 4.221679687500000 C 3244.395019531250000,124.072753906250000 2900.829589843750000,159.350585937500000 2882.319580078125000 40.787109375000000" />
      <path id="579,596" d="M 3219.600830078125000 5.211914062500000 C 3225.571289062500000,113.046386718750000 2917.020263671875000,144.728515625000000 2900.951904296875000 37.930664062500000" />
      <path id="580,595" d="M 3200.782714843750000 6.305664062500000 C 3206.619873046875000,102.127929687500000 2933.356445312500000,130.187011718750000 2919.598876953125000 35.177734375000000" />
      <path id="583,593" d="M 3144.369628906250000 10.211914062500000 C 3149.475097656250000,76.014648437500000 2965.673095703125000,95.401367187500000 2956.937744140625000 29.981445312500000" />
      <path id="584,592" d="M 3125.581298828125000 11.722167968750000 C 3130.056152343750000,65.536132812500000 2982.479492187500000,81.102539062500000 2975.628662109375000 27.538574218750000" />
      <path id="604,618" d="M 2752.378417968750000 63.658203125000000 C 2769.692382812500000,151.976562500000000 2519.731445312500000,211.110351562500000 2495.637207031250000 124.395507812500000" />
      <path id="605,617" d="M 2733.890625000000000 67.334960937500000 C 2749.319335937500000,143.793945312500000 2534.277832031250000,194.666992187500000 2513.812255859375000 119.399414062500000" />
      <path id="606,616" d="M 2715.424560546875000 71.114746093750000 C 2728.836914062500000,135.737304687500000 2548.979736328125000,178.286621093750000 2532.015380859375000 114.503906250000000" />
      <path id="607,615" d="M 2696.978515625000000 74.996093750000000 C 2708.244873046875000,127.807617187500000 2563.836425781250000,161.971191406250000 2550.245117187500000 109.709472656250000" />
      <path id="608,614" d="M 2678.555175781250000 78.979980468750000 C 2687.544921875000000,120.006835937500000 2578.846435546875000,145.721679687500000 2568.500488281250000 105.015625000000000" />
    </g>
    <g style="font-family: SansSerif" transform="translate(-4.6, 4)" id="seq">
      <text x="3408.000" y="6816.000">_</text>
      <text x="3426.849" y="6815.948">_</text>
      <text x="3445.698" y="6815.792">_</text>
      <text x="3464.546" y="6815.531">A</text>
      <text x="3483.392" y="6815.166">U</text>
      <text x="3502.236" y="6814.697">G</text>
      <text x="3521.077" y="6814.124">G</text>
      <text x="3539.914" y="6813.446">C</text>
      <text x="3558.747" y="6812.664">A</text>
      <text x="3577.576" y="6811.778">C</text>
      <text x="3596.399" y="6810.788">A</text>
      <text x="3615.217" y="6809.694">U</text>
      <text x="3634.029" y="6808.496">G</text>
      <text x="3652.833" y="6807.194">A</text>
      <text x="3671.630" y="6805.788">A</text>
      <text x="3690.419" y="6804.278">A</text>
      <text x="3709.199" y="6802.664">U</text>
      <text x="3727.970" y="6800.946">A</text>
      <text x="3746.732" y="6799.124">U</text>
      <text x="3765.483" y="6797.199">U</text>
      <text x="3784.223" y="6795.170">G</text>
      <text x="3802.951" y="6793.037">A</text>
      <text x="3821.668" y="6790.801">U</text>
      <text x="3840.371" y="6788.461">U</text>
      <text x="3859.062" y="6786.019">G</text>
      <text x="3877.739" y="6783.472">C</text>
      <text x="3896.401" y="6780.822">U</text>
      <text x="3915.048" y="6778.069">G</text>
      <text x="3933.680" y="6775.213">A</text>
      <text x="3952.296" y="6772.254">A</text>
      <text x="3970.895" y="6769.192">A</text>
      <text x="3989.477" y="6766.027">C</text>
      <text x="4008.042" y="6762.760">A</text>
      <text x="4026.587" y="6759.390">G</text>
      <text x="4045.114" y="6755.917">A</text>
      <text x="4063.622" y="6752.342">G</text>
      <text x="4082.109" y="6748.665">G</text>
      <text x="4100.576" y="6744.885">C</text>
      <text x="4119.021" y="6741.004">A</text>
      <text x="4137.445" y="6737.020">U</text>
      <text x="4155.847" y="6732.935">U</text>
      <text x="4174.225" y="6728.747">U</text>
      <text x="4192.580" y="6724.459">C</text>
      <text x="4210.911" y="6720.068">U</text>
      <text x="4229.218" y="6715.577">A</text>
      <text x="4247.500" y="6710.984">A</text>
      <text x="4265.755" y="6706.291">A</text>
      <text x="4283.985" y="6701.496">A</text>
      <text x="4302.188" y="6696.601">A</text>
      <text x="4320.363" y="6691.604">A</text>
      <text x="4338.510" y="6686.508">U</text>
      <text x="4356.629" y="6681.312">G</text>
      <text x="4374.719" y="6676.015">U</text>
      <text x="4392.780" y="6670.618">U</text>
      <text x="4410.810" y="6665.121">G</text>
      <text x="4428.810" y="6659.524">C</text>
      <text x="4446.778" y="6653.829">U</text>
      <text x="4464.715" y="6648.034">C</text>
      <text x="4482.619" y="6642.140">C</text>
      <text x="4500.490" y="6636.146">U</text>
      <text x="4518.328" y="6630.055">G</text>
      <text x="4536.132" y="6623.864">A</text>
      <text x="4553.902" y="6617.575">G</text>
      <text x="4571.636" y="6611.188">A</text>
      <text x="4589.335" y="6604.703">C</text>
      <text x="4606.998" y="6598.120">C</text>
      <text x="4624.624" y="6591.440">A</text>
      <text x="4642.213" y="6584.662">G</text>
      <text x="4659.764" y="6577.787">G</text>
      <text x="4677.276" y="6570.815">A</text>
      <text x="4694.750" y="6563.747">C</text>
      <text x="4712.185" y="6556.581">A</text>
      <text x="4729.580" y="6549.320">G</text>
      <text x="4746.934" y="6541.962">C</text>
      <text x="4764.248" y="6534.509">A</text>
      <text x="4781.519" y="6526.959">A</text>
      <text x="4798.749" y="6519.315">U</text>
      <text x="4815.937" y="6511.575">A</text>
      <text x="4833.080" y="6503.741">A</text>
      <text x="4850.181" y="6495.812">U</text>
      <text x="4867.237" y="6487.787">U</text>
      <text x="4884.249" y="6479.669">U</text>
      <text x="4901.216" y="6471.457">C</text>
      <text x="4918.137" y="6463.151">A</text>
      <text x="4935.012" y="6454.752">G</text>
      <text x="4951.840" y="6446.260">C</text>
      <text x="4968.621" y="6437.675">A</text>
      <text x="4985.354" y="6428.996">A</text>
      <text x="5002.039" y="6420.226">U</text>
      <text x="5018.674" y="6411.363">A</text>
      <text x="5035.261" y="6402.409">A</text>
      <text x="5051.798" y="6393.363">C</text>
      <text x="5068.285" y="6384.226">A</text>
      <text x="5084.721" y="6374.997">G</text>
      <text x="5101.105" y="6365.678">G</text>
      <text x="5117.438" y="6356.268">U</text>
      <text x="5133.719" y="6346.768">G</text>
      <text x="5149.947" y="6337.178">G</text>
      <text x="5166.121" y="6327.499">A</text>
      <text x="5182.242" y="6317.730">A</text>
      <text x="5198.309" y="6307.872">A</text>
      <text x="5214.320" y="6297.926">A</text>
      <text x="5230.276" y="6287.891">U</text>
      <text x="5246.177" y="6277.768">C</text>
      <text x="5262.021" y="6267.558">A</text>
      <text x="5277.809" y="6257.259">G</text>
      <text x="5293.540" y="6246.874">C</text>
      <text x="5309.212" y="6236.401">C</text>
      <text x="5324.827" y="6225.843">U</text>
      <text x="5340.383" y="6215.198">G</text>
      <text x="5355.880" y="6204.467">C</text>
      <text x="5371.317" y="6193.650">A</text>
      <text x="5386.694" y="6182.749">A</text>
      <text x="5402.012" y="6171.763">A</text>
      <text x="5417.267" y="6160.691">U</text>
      <text x="5432.461" y="6149.536">C</text>
      <text x="5447.594" y="6138.297">A</text>
      <text x="5462.664" y="6126.975">G</text>
      <text x="5477.671" y="6115.568">C</text>
      <text x="5492.614" y="6104.080">A</text>
      <text x="5507.494" y="6092.509">G</text>
      <text x="5522.311" y="6080.855">C</text>
      <text x="5537.061" y="6069.121">U</text>
      <text x="5551.747" y="6057.304">A</text>
      <text x="5566.367" y="6045.407">A</text>
      <text x="5580.922" y="6033.429">A</text>
      <text x="5595.410" y="6021.370">C</text>
      <text x="5609.831" y="6009.231">U</text>
      <text x="5624.185" y="5997.014">G</text>
      <text x="5638.470" y="5984.717">A</text>
      <text x="5652.688" y="5972.340">U</text>
      <text x="5666.836" y="5959.886">C</text>
      <text x="5680.916" y="5947.354">A</text>
      <text x="5694.927" y="5934.743">A</text>
      <text x="5708.867" y="5922.056">G</text>
      <text x="5722.737" y="5909.291">A</text>
      <text x="5736.536" y="5896.450">A</text>
      <text x="5750.264" y="5883.533">U</text>
      <text x="5763.920" y="5870.541">G</text>
      <text x="5777.504" y="5857.472">A</text>
      <text x="5791.016" y="5844.329">A</text>
      <text x="5804.454" y="5831.111">C</text>
      <text x="5817.820" y="5817.820">A</text>
      <text x="5831.111" y="5804.455">U</text>
      <text x="5844.329" y="5791.016">C</text>
      <text x="5857.473" y="5777.504">U</text>
      <text x="5870.541" y="5763.920">U</text>
      <text x="5883.533" y="5750.264">C</text>
      <text x="5896.450" y="5736.536">C</text>
      <text x="5909.291" y="5722.737">C</text>
      <text x="5922.056" y="5708.867">U</text>
      <text x="5934.743" y="5694.927">U</text>
      <text x="5947.354" y="5680.916">A</text>
      <text x="5959.886" y="5666.836">A</text>
      <text x="5972.340" y="5652.688">U</text>
      <text x="5984.717" y="5638.470">G</text>
      <text x="5997.014" y="5624.185">U</text>
      <text x="6009.231" y="5609.831">C</text>
      <text x="6021.370" y="5595.410">U</text>
      <text x="6033.429" y="5580.922">G</text>
      <text x="6045.407" y="5566.368">G</text>
      <text x="6057.304" y="5551.747">A</text>
      <text x="6069.121" y="5537.062">G</text>
      <text x="6080.855" y="5522.311">A</text>
      <text x="6092.509" y="5507.494">A</text>
      <text x="6104.080" y="5492.614">G</text>
      <text x="6115.568" y="5477.671">C</text>
      <text x="6126.975" y="5462.664">C</text>
      <text x="6138.297" y="5447.594">A</text>
      <text x="6149.536" y="5432.461">C</text>
      <text x="6160.691" y="5417.267">C</text>
      <text x="6171.763" y="5402.012">A</text>
      <text x="6182.749" y="5386.694">C</text>
      <text x="6193.650" y="5371.317">A</text>
      <text x="6204.467" y="5355.880">A</text>
      <text x="6215.198" y="5340.383">U</text>
      <text x="6225.843" y="5324.827">G</text>
      <text x="6236.401" y="5309.212">C</text>
      <text x="6246.874" y="5293.540">A</text>
      <text x="6257.259" y="5277.809">C</text>
      <text x="6267.558" y="5262.021">A</text>
      <text x="6277.769" y="5246.177">U</text>
      <text x="6287.891" y="5230.276">U</text>
      <text x="6297.926" y="5214.320">G</text>
      <text x="6307.872" y="5198.309">U</text>
      <text x="6317.730" y="5182.242">U</text>
      <text x="6327.499" y="5166.121">A</text>
      <text x="6337.179" y="5149.947">U</text>
      <text x="6346.768" y="5133.719">G</text>
      <text x="6356.268" y="5117.438">A</text>
      <text x="6365.678" y="5101.105">G</text>
      <text x="6374.997" y="5084.721">G</text>
      <text x="6384.226" y="5068.285">U</text>
      <text x="6393.363" y="5051.798">G</text>
      <text x="6402.409" y="5035.261">C</text>
      <text x="6411.363" y="5018.674">C</text>
      <text x="6420.226" y="5002.039">U</text>
      <text x="6428.996" y="4985.354">A</text>
      <text x="6437.674" y="4968.621">U</text>
      <text x="6446.260" y="4951.840">A</text>
      <text x="6454.752" y="4935.012">U</text>
      <text x="6463.151" y="4918.137">C</text>
      <text x="6471.457" y="4901.216">C</text>
      <text x="6479.669" y="4884.249">U</text>
      <text x="6487.787" y="4867.237">G</text>
      <text x="6495.812" y="4850.181">A</text>
      <text x="6503.741" y="4833.080">A</text>
      <text x="6511.575" y="4815.937">A</text>
      <text x="6519.315" y="4798.749">U</text>
      <text x="6526.959" y="4781.520">A</text>
      <text x="6534.509" y="4764.248">A</text>
      <text x="6541.962" y="4746.934">A</text>
      <text x="6549.320" y="4729.580">A</text>
      <text x="6556.581" y="4712.185">C</text>
      <text x="6563.747" y="4694.750">C</text>
      <text x="6570.815" y="4677.277">A</text>
      <text x="6577.787" y="4659.764">U</text>
      <text x="6584.662" y="4642.213">G</text>
      <text x="6591.440" y="4624.624">G</text>
      <text x="6598.120" y="4606.998">A</text>
      <text x="6604.703" y="4589.335">A</text>
      <text x="6611.188" y="4571.637">A</text>
      <text x="6617.575" y="4553.902">A</text>
      <text x="6623.864" y="4536.132">A</text>
      <text x="6630.055" y="4518.328">G</text>
      <text x="6636.146" y="4500.490">G</text>
      <text x="6642.140" y="4482.619">C</text>
      <text x="6648.034" y="4464.715">A</text>
      <text x="6653.829" y="4446.778">A</text>
      <text x="6659.524" y="4428.810">G</text>
      <text x="6665.121" y="4410.810">C</text>
      <text x="6670.618" y="4392.780">G</text>
      <text x="6676.015" y="4374.719">A</text>
      <text x="6681.312" y="4356.629">C</text>
      <text x="6686.508" y="4338.511">A</text>
      <text x="6691.604" y="4320.363">U</text>
      <text x="6696.601" y="4302.188">G</text>
      <text x="6701.496" y="4283.984">C</text>
      <text x="6706.291" y="4265.755">U</text>
      <text x="6710.984" y="4247.500">G</text>
      <text x="6715.577" y="4229.218">A</text>
      <text x="6720.068" y="4210.911">A</text>
      <text x="6724.459" y="4192.580">U</text>
      <text x="6728.747" y="4174.225">A</text>
      <text x="6732.935" y="4155.847">A</text>
      <text x="6737.020" y="4137.445">A</text>
      <text x="6741.004" y="4119.021">G</text>
      <text x="6744.885" y="4100.575">C</text>
      <text x="6748.665" y="4082.109">A</text>
      <text x="6752.342" y="4063.622">A</text>
      <text x="6755.917" y="4045.114">C</text>
      <text x="6759.390" y="4026.587">U</text>
      <text x="6762.760" y="4008.042">U</text>
      <text x="6766.027" y="3989.477">C</text>
      <text x="6769.192" y="3970.895">U</text>
      <text x="6772.254" y="3952.296">A</text>
      <text x="6775.213" y="3933.680">G</text>
      <text x="6778.069" y="3915.049">U</text>
      <text x="6780.822" y="3896.401">U</text>
      <text x="6783.472" y="3877.739">U</text>
      <text x="6786.019" y="3859.062">G</text>
      <text x="6788.461" y="3840.371">A</text>
      <text x="6790.801" y="3821.668">A</text>
      <text x="6793.037" y="3802.951">A</text>
      <text x="6795.170" y="3784.223">A</text>
      <text x="6797.199" y="3765.483">A</text>
      <text x="6799.124" y="3746.732">A</text>
      <text x="6800.946" y="3727.970">U</text>
      <text x="6802.664" y="3709.199">C</text>
      <text x="6804.278" y="3690.419">A</text>
      <text x="6805.788" y="3671.630">G</text>
      <text x="6807.194" y="3652.833">A</text>
      <text x="6808.496" y="3634.029">A</text>
      <text x="6809.694" y="3615.217">G</text>
      <text x="6810.788" y="3596.399">G</text>
      <text x="6811.778" y="3577.576">A</text>
      <text x="6812.664" y="3558.747">A</text>
      <text x="6813.446" y="3539.914">G</text>
      <text x="6814.124" y="3521.076">A</text>
      <text x="6814.697" y="3502.236">G</text>
      <text x="6815.166" y="3483.392">A</text>
      <text x="6815.531" y="3464.546">C</text>
      <text x="6815.792" y="3445.698">A</text>
      <text x="6815.948" y="3426.850">U</text>
      <text x="6816.000" y="3408.000">C</text>
      <text x="6815.948" y="3389.150">A</text>
      <text x="6815.792" y="3370.302">G</text>
      <text x="6815.531" y="3351.454">A</text>
      <text x="6815.166" y="3332.608">A</text>
      <text x="6814.697" y="3313.764">A</text>
      <text x="6814.124" y="3294.923">G</text>
      <text x="6813.446" y="3276.086">C</text>
      <text x="6812.664" y="3257.253">A</text>
      <text x="6811.778" y="3238.424">A</text>
      <text x="6810.788" y="3219.601">A</text>
      <text x="6809.694" y="3200.783">U</text>
      <text x="6808.496" y="3181.971">G</text>
      <text x="6807.194" y="3163.167">A</text>
      <text x="6805.788" y="3144.370">A</text>
      <text x="6804.278" y="3125.581">A</text>
      <text x="6802.664" y="3106.801">G</text>
      <text x="6800.946" y="3088.030">C</text>
      <text x="6799.124" y="3069.268">A</text>
      <text x="6797.199" y="3050.517">G</text>
      <text x="6795.170" y="3031.777">C</text>
      <text x="6793.037" y="3013.049">U</text>
      <text x="6790.801" y="2994.333">G</text>
      <text x="6788.461" y="2975.629">G</text>
      <text x="6786.019" y="2956.938">A</text>
      <text x="6783.472" y="2938.261">G</text>
      <text x="6780.822" y="2919.599">A</text>
      <text x="6778.069" y="2900.952">C</text>
      <text x="6775.213" y="2882.320">U</text>
      <text x="6772.254" y="2863.704">U</text>
      <text x="6769.192" y="2845.104">U</text>
      <text x="6766.027" y="2826.522">U</text>
      <text x="6762.760" y="2807.958">U</text>
      <text x="6759.390" y="2789.413">G</text>
      <text x="6755.917" y="2770.886">G</text>
      <text x="6752.342" y="2752.379">G</text>
      <text x="6748.665" y="2733.891">A</text>
      <text x="6744.885" y="2715.424">G</text>
      <text x="6741.004" y="2696.979">U</text>
      <text x="6737.020" y="2678.555">G</text>
      <text x="6732.935" y="2660.154">G</text>
      <text x="6728.747" y="2641.775">A</text>
      <text x="6724.459" y="2623.420">G</text>
      <text x="6720.068" y="2605.088">U</text>
      <text x="6715.577" y="2586.782">C</text>
      <text x="6710.984" y="2568.500">A</text>
      <text x="6706.291" y="2550.245">A</text>
      <text x="6701.496" y="2532.016">U</text>
      <text x="6696.601" y="2513.812">G</text>
      <text x="6691.604" y="2495.637">A</text>
      <text x="6686.508" y="2477.490">U</text>
      <text x="6681.312" y="2459.371">G</text>
      <text x="6676.015" y="2441.281">A</text>
      <text x="6670.618" y="2423.220">A</text>
      <text x="6665.121" y="2405.190">A</text>
      <text x="6659.524" y="2387.190">A</text>
      <text x="6653.829" y="2369.222">U</text>
      <text x="6648.034" y="2351.285">G</text>
      <text x="6642.140" y="2333.381">A</text>
      <text x="6636.146" y="2315.510">G</text>
      <text x="6630.055" y="2297.672">G</text>
      <text x="6623.864" y="2279.868">G</text>
      <text x="6617.575" y="2262.098">C</text>
      <text x="6611.188" y="2244.364">C</text>
      <text x="6604.703" y="2226.665">U</text>
      <text x="6598.120" y="2209.002">U</text>
      <text x="6591.440" y="2191.376">C</text>
      <text x="6584.662" y="2173.787">A</text>
      <text x="6577.787" y="2156.236">G</text>
      <text x="6570.815" y="2138.724">A</text>
      <text x="6563.747" y="2121.250">G</text>
      <text x="6556.582" y="2103.815">A</text>
      <text x="6549.320" y="2086.420">U</text>
      <text x="6541.962" y="2069.066">G</text>
      <text x="6534.509" y="2051.752">A</text>
      <text x="6526.959" y="2034.481">C</text>
      <text x="6519.315" y="2017.251">C</text>
      <text x="6511.575" y="2000.064">A</text>
      <text x="6503.740" y="1982.919">A</text>
      <text x="6495.812" y="1965.819">A</text>
      <text x="6487.787" y="1948.763">U</text>
      <text x="6479.669" y="1931.751">A</text>
      <text x="6471.457" y="1914.784">A</text>
      <text x="6463.151" y="1897.863">U</text>
      <text x="6454.752" y="1880.988">G</text>
      <text x="6446.260" y="1864.160">G</text>
      <text x="6437.675" y="1847.380">A</text>
      <text x="6428.996" y="1830.646">A</text>
      <text x="6420.226" y="1813.961">A</text>
      <text x="6411.363" y="1797.326">U</text>
      <text x="6402.409" y="1780.738">G</text>
      <text x="6393.363" y="1764.202">G</text>
      <text x="6384.226" y="1747.715">U</text>
      <text x="6374.997" y="1731.279">U</text>
      <text x="6365.678" y="1714.895">G</text>
      <text x="6356.268" y="1698.562">A</text>
      <text x="6346.768" y="1682.281">A</text>
      <text x="6337.178" y="1666.053">G</text>
      <text x="6327.499" y="1649.879">A</text>
      <text x="6317.730" y="1633.758">A</text>
      <text x="6307.872" y="1617.691">G</text>
      <text x="6297.926" y="1601.680">U</text>
      <text x="6287.891" y="1585.724">A</text>
      <text x="6277.769" y="1569.823">U</text>
      <text x="6267.558" y="1553.979">A</text>
      <text x="6257.259" y="1538.191">U</text>
      <text x="6246.874" y="1522.460">G</text>
      <text x="6236.401" y="1506.787">A</text>
      <text x="6225.843" y="1491.173">U</text>
      <text x="6215.198" y="1475.617">C</text>
      <text x="6204.467" y="1460.120">A</text>
      <text x="6193.650" y="1444.683">C</text>
      <text x="6182.749" y="1429.306">C</text>
      <text x="6171.763" y="1413.989">C</text>
      <text x="6160.691" y="1398.732">A</text>
      <text x="6149.536" y="1383.539">G</text>
      <text x="6138.297" y="1368.406">A</text>
      <text x="6126.975" y="1353.337">C</text>
      <text x="6115.568" y="1338.329">G</text>
      <text x="6104.080" y="1323.385">A</text>
      <text x="6092.509" y="1308.506">C</text>
      <text x="6080.855" y="1293.689">U</text>
      <text x="6069.121" y="1278.939">A</text>
      <text x="6057.304" y="1264.253">C</text>
      <text x="6045.407" y="1249.633">A</text>
      <text x="6033.429" y="1235.078">C</text>
      <text x="6021.370" y="1220.590">A</text>
      <text x="6009.231" y="1206.169">C</text>
      <text x="5997.014" y="1191.815">C</text>
      <text x="5984.717" y="1177.530">A</text>
      <text x="5972.340" y="1163.312">G</text>
      <text x="5959.886" y="1149.163">A</text>
      <text x="5947.354" y="1135.084">C</text>
      <text x="5934.743" y="1121.073">A</text>
      <text x="5922.056" y="1107.133">U</text>
      <text x="5909.291" y="1093.263">C</text>
      <text x="5896.450" y="1079.464">C</text>
      <text x="5883.533" y="1065.736">G</text>
      <text x="5870.540" y="1052.080">A</text>
      <text x="5857.473" y="1038.496">A</text>
      <text x="5844.329" y="1024.984">U</text>
      <text x="5831.112" y="1011.546">A</text>
      <text x="5817.820" y="998.180">G</text>
      <text x="5804.454" y="984.888">G</text>
      <text x="5791.016" y="971.671">A</text>
      <text x="5777.504" y="958.527">A</text>
      <text x="5763.920" y="945.460">C</text>
      <text x="5750.264" y="932.467">A</text>
      <text x="5736.536" y="919.550">A</text>
      <text x="5722.737" y="906.709">U</text>
      <text x="5708.867" y="893.944">C</text>
      <text x="5694.927" y="881.257">A</text>
      <text x="5680.916" y="868.646">C</text>
      <text x="5666.837" y="856.114">A</text>
      <text x="5652.688" y="843.660">G</text>
      <text x="5638.470" y="831.283">C</text>
      <text x="5624.185" y="818.986">U</text>
      <text x="5609.831" y="806.769">U</text>
      <text x="5595.410" y="794.630">G</text>
      <text x="5580.922" y="782.571">G</text>
      <text x="5566.368" y="770.594">U</text>
      <text x="5551.747" y="758.696">U</text>
      <text x="5537.061" y="746.879">G</text>
      <text x="5522.311" y="735.145">A</text>
      <text x="5507.494" y="723.491">G</text>
      <text x="5492.615" y="711.920">A</text>
      <text x="5477.671" y="700.432">U</text>
      <text x="5462.664" y="689.026">G</text>
      <text x="5447.594" y="677.703">C</text>
      <text x="5432.461" y="666.464">A</text>
      <text x="5417.268" y="655.309">A</text>
      <text x="5402.011" y="644.237">A</text>
      <text x="5386.695" y="633.251">A</text>
      <text x="5371.317" y="622.350">A</text>
      <text x="5355.880" y="611.533">C</text>
      <text x="5340.383" y="600.802">A</text>
      <text x="5324.827" y="590.157">A</text>
      <text x="5309.213" y="579.599">G</text>
      <text x="5293.540" y="569.126">A</text>
      <text x="5277.810" y="558.741">A</text>
      <text x="5262.021" y="548.442">A</text>
      <text x="5246.177" y="538.231">A</text>
      <text x="5230.276" y="528.109">G</text>
      <text x="5214.320" y="518.074">U</text>
      <text x="5198.309" y="508.128">G</text>
      <text x="5182.242" y="498.270">A</text>
      <text x="5166.121" y="488.501">A</text>
      <text x="5149.947" y="478.822">A</text>
      <text x="5133.719" y="469.232">G</text>
      <text x="5117.438" y="459.732">A</text>
      <text x="5101.105" y="450.322">U</text>
      <text x="5084.721" y="441.003">A</text>
      <text x="5068.285" y="431.774">C</text>
      <text x="5051.798" y="422.637">A</text>
      <text x="5035.262" y="413.591">G</text>
      <text x="5018.674" y="404.637">G</text>
      <text x="5002.039" y="395.774">A</text>
      <text x="4985.354" y="387.004">G</text>
      <text x="4968.620" y="378.325">U</text>
      <text x="4951.840" y="369.740">A</text>
      <text x="4935.012" y="361.248">A</text>
      <text x="4918.137" y="352.849">U</text>
      <text x="4901.216" y="344.543">G</text>
      <text x="4884.250" y="336.331">U</text>
      <text x="4867.237" y="328.213">C</text>
      <text x="4850.181" y="320.188">U</text>
      <text x="4833.081" y="312.260">C</text>
      <text x="4815.936" y="304.425">A</text>
      <text x="4798.749" y="296.685">G</text>
      <text x="4781.519" y="289.041">A</text>
      <text x="4764.247" y="281.491">A</text>
      <text x="4746.934" y="274.038">A</text>
      <text x="4729.580" y="266.680">G</text>
      <text x="4712.186" y="259.419">U</text>
      <text x="4694.750" y="252.253">G</text>
      <text x="4677.277" y="245.185">G</text>
      <text x="4659.764" y="238.213">A</text>
      <text x="4642.212" y="231.338">A</text>
      <text x="4624.624" y="224.560">G</text>
      <text x="4606.998" y="217.880">A</text>
      <text x="4589.335" y="211.297">A</text>
      <text x="4571.636" y="204.812">C</text>
      <text x="4553.901" y="198.425">A</text>
      <text x="4536.132" y="192.136">G</text>
      <text x="4518.328" y="185.945">C</text>
      <text x="4500.491" y="179.854">U</text>
      <text x="4482.619" y="173.860">U</text>
      <text x="4464.715" y="167.967">U</text>
      <text x="4446.778" y="162.171">A</text>
      <text x="4428.810" y="156.476">A</text>
      <text x="4410.810" y="150.879">A</text>
      <text x="4392.780" y="145.382">A</text>
      <text x="4374.720" y="139.986">A</text>
      <text x="4356.629" y="134.688">U</text>
      <text x="4338.511" y="129.492">U</text>
      <text x="4320.363" y="124.396">C</text>
      <text x="4302.187" y="119.399">A</text>
      <text x="4283.985" y="114.504">U</text>
      <text x="4265.755" y="109.709">G</text>
      <text x="4247.500" y="105.016">A</text>
      <text x="4229.218" y="100.423">A</text>
      <text x="4210.911" y="95.932">G</text>
      <text x="4192.580" y="91.541">U</text>
      <text x="4174.225" y="87.253">A</text>
      <text x="4155.847" y="83.065">A</text>
      <text x="4137.445" y="78.980">G</text>
      <text x="4119.021" y="74.997">A</text>
      <text x="4100.576" y="71.115">A</text>
      <text x="4082.109" y="67.335">A</text>
      <text x="4063.622" y="63.658">A</text>
      <text x="4045.114" y="60.083">G</text>
      <text x="4026.588" y="56.610">C</text>
      <text x="4008.042" y="53.240">C</text>
      <text x="3989.477" y="49.973">A</text>
      <text x="3970.896" y="46.808">G</text>
      <text x="3952.296" y="43.746">C</text>
      <text x="3933.681" y="40.787">A</text>
      <text x="3915.048" y="37.931">C</text>
      <text x="3896.401" y="35.178">A</text>
      <text x="3877.739" y="32.528">G</text>
      <text x="3859.062" y="29.981">C</text>
      <text x="3840.372" y="27.539">A</text>
      <text x="3821.667" y="25.199">A</text>
      <text x="3802.952" y="22.963">U</text>
      <text x="3784.223" y="20.830">G</text>
      <text x="3765.482" y="18.801">A</text>
      <text x="3746.732" y="16.876">A</text>
      <text x="3727.970" y="15.054">C</text>
      <text x="3709.200" y="13.336">G</text>
      <text x="3690.419" y="11.722">A</text>
      <text x="3671.631" y="10.212">A</text>
      <text x="3652.833" y="8.806">A</text>
      <text x="3634.028" y="7.504">U</text>
      <text x="3615.217" y="6.306">U</text>
      <text x="3596.399" y="5.212">G</text>
      <text x="3577.576" y="4.222">C</text>
      <text x="3558.747" y="3.336">U</text>
      <text x="3539.914" y="2.554">G</text>
      <text x="3521.077" y="1.876">G</text>
      <text x="3502.236" y="1.303">U</text>
      <text x="3483.392" y="0.834">A</text>
      <text x="3464.546" y="0.469">U</text>
      <text x="3445.699" y="0.208">U</text>
      <text x="3426.850" y="0.052">A</text>
      <text x="3408.000" y="0.000">C</text>
      <text x="3389.151" y="0.052">U</text>
      <text x="3370.302" y="0.208">G</text>
      <text x="3351.454" y="0.469">G</text>
      <text x="3332.608" y="0.834">C</text>
      <text x="3313.764" y="1.303">C</text>
      <text x="3294.924" y="1.876">U</text>
      <text x="3276.086" y="2.554">U</text>
      <text x="3257.253" y="3.336">G</text>
      <text x="3238.424" y="4.222">G</text>
      <text x="3219.601" y="5.212">A</text>
      <text x="3200.783" y="6.306">G</text>
      <text x="3181.971" y="7.504">A</text>
      <text x="3163.167" y="8.806">A</text>
      <text x="3144.370" y="10.212">G</text>
      <text x="3125.581" y="11.722">A</text>
      <text x="3106.801" y="13.336">A</text>
      <text x="3088.030" y="15.054">G</text>
      <text x="3069.268" y="16.876">C</text>
      <text x="3050.517" y="18.801">A</text>
      <text x="3031.778" y="20.830">C</text>
      <text x="3013.049" y="22.963">U</text>
      <text x="2994.333" y="25.199">A</text>
      <text x="2975.629" y="27.539">U</text>
      <text x="2956.938" y="29.981">C</text>
      <text x="2938.261" y="32.528">U</text>
      <text x="2919.599" y="35.178">C</text>
      <text x="2900.952" y="37.931">U</text>
      <text x="2882.320" y="40.787">C</text>
      <text x="2863.704" y="43.746">C</text>
      <text x="2845.105" y="46.808">A</text>
      <text x="2826.522" y="49.973">A</text>
      <text x="2807.959" y="53.240">A</text>
      <text x="2789.413" y="56.610">G</text>
      <text x="2770.886" y="60.083">A</text>
      <text x="2752.378" y="63.658">C</text>
      <text x="2733.891" y="67.335">A</text>
      <text x="2715.425" y="71.115">A</text>
      <text x="2696.979" y="74.996">A</text>
      <text x="2678.555" y="78.980">C</text>
      <text x="2660.153" y="83.065">A</text>
      <text x="2641.775" y="87.253">G</text>
      <text x="2623.420" y="91.541">A</text>
      <text x="2605.088" y="95.932">A</text>
      <text x="2586.782" y="100.423">A</text>
      <text x="2568.500" y="105.016">G</text>
      <text x="2550.245" y="109.709">U</text>
      <text x="2532.015" y="114.504">U</text>
      <text x="2513.812" y="119.399">U</text>
      <text x="2495.637" y="124.396">G</text>
      <text x="2477.490" y="129.492">G</text>
      <text x="2459.371" y="134.688">C</text>
      <text x="2441.281" y="139.985">C</text>
      <text x="2423.221" y="145.382">A</text>
      <text x="2405.190" y="150.879">U</text>
      <text x="2387.190" y="156.476">A</text>
      <text x="2369.222" y="162.171">U</text>
      <text x="2351.285" y="167.966">U</text>
      <text x="2333.381" y="173.860">A</text>
      <text x="2315.510" y="179.854">U</text>
      <text x="2297.671" y="185.945">G</text>
      <text x="2279.868" y="192.136">C</text>
      <text x="2262.098" y="198.425">A</text>
      <text x="2244.364" y="204.812">A</text>
      <text x="2226.665" y="211.297">U</text>
      <text x="2209.002" y="217.879">C</text>
      <text x="2191.376" y="224.560">A</text>
      <text x="2173.787" y="231.338">C</text>
      <text x="2156.236" y="238.213">A</text>
      <text x="2138.723" y="245.185">C</text>
      <text x="2121.250" y="252.253">U</text>
      <text x="2103.815" y="259.419">U</text>
      <text x="2086.421" y="266.680">U</text>
      <text x="2069.066" y="274.038">U</text>
      <text x="2051.752" y="281.491">G</text>
      <text x="2034.481" y="289.040">G</text>
      <text x="2017.251" y="296.685">A</text>
      <text x="2000.064" y="304.425">A</text>
      <text x="1982.920" y="312.259">G</text>
      <text x="1965.819" y="320.188">U</text>
      <text x="1948.763" y="328.213">A</text>
      <text x="1931.751" y="336.331">A</text>
      <text x="1914.784" y="344.542">U</text>
      <text x="1897.863" y="352.849">A</text>
      <text x="1880.989" y="361.247">U</text>
      <text x="1864.160" y="369.740">A</text>
      <text x="1847.379" y="378.326">A</text>
      <text x="1830.647" y="387.003">U</text>
      <text x="1813.961" y="395.774">G</text>
      <text x="1797.326" y="404.636">A</text>
      <text x="1780.739" y="413.591">G</text>
      <text x="1764.201" y="422.638">A</text>
      <text x="1747.715" y="431.774">C</text>
      <text x="1731.279" y="441.003">C</text>
      <text x="1714.895" y="450.322">C</text>
      <text x="1698.562" y="459.732">C</text>
      <text x="1682.281" y="469.231">A</text>
      <text x="1666.053" y="478.822">C</text>
      <text x="1649.879" y="488.501">U</text>
      <text x="1633.758" y="498.270">U</text>
      <text x="1617.691" y="508.128">G</text>
      <text x="1601.680" y="518.074">G</text>
      <text x="1585.724" y="528.109">A</text>
      <text x="1569.823" y="538.232">A</text>
      <text x="1553.979" y="548.442">A</text>
      <text x="1538.191" y="558.741">A</text>
      <text x="1522.461" y="569.126">A</text>
      <text x="1506.787" y="579.599">G</text>
      <text x="1491.173" y="590.157">C</text>
      <text x="1475.617" y="600.802">A</text>
      <text x="1460.120" y="611.533">A</text>
      <text x="1444.683" y="622.350">U</text>
      <text x="1429.305" y="633.251">A</text>
      <text x="1413.989" y="644.237">A</text>
      <text x="1398.733" y="655.309">A</text>
      <text x="1383.538" y="666.464">A</text>
      <text x="1368.406" y="677.703">G</text>
      <text x="1353.336" y="689.025">G</text>
      <text x="1338.330" y="700.432">A</text>
      <text x="1323.385" y="711.920">G</text>
      <text x="1308.506" y="723.491">U</text>
      <text x="1293.690" y="735.145">U</text>
      <text x="1278.938" y="746.880">G</text>
      <text x="1264.253" y="758.696">A</text>
      <text x="1249.632" y="770.594">A</text>
      <text x="1235.078" y="782.571">G</text>
      <text x="1220.590" y="794.630">G</text>
      <text x="1206.169" y="806.769">C</text>
      <text x="1191.816" y="818.986">A</text>
      <text x="1177.530" y="831.284">G</text>
      <text x="1163.312" y="843.659">A</text>
      <text x="1149.163" y="856.114">G</text>
      <text x="1135.084" y="868.646">U</text>
      <text x="1121.073" y="881.257">U</text>
      <text x="1107.133" y="893.944">G</text>
      <text x="1093.263" y="906.709">G</text>
      <text x="1079.464" y="919.550">A</text>
      <text x="1065.737" y="932.467">G</text>
      <text x="1052.080" y="945.460">A</text>
      <text x="1038.496" y="958.527">G</text>
      <text x="1024.984" y="971.671">A</text>
      <text x="1011.545" y="984.889">U</text>
      <text x="998.180" y="998.180">G</text>
      <text x="984.888" y="1011.546">G</text>
      <text x="971.671" y="1024.984">G</text>
      <text x="958.528" y="1038.496">A</text>
      <text x="945.459" y="1052.080">C</text>
      <text x="932.467" y="1065.736">G</text>
      <text x="919.550" y="1079.464">A</text>
      <text x="906.709" y="1093.263">A</text>
      <text x="893.944" y="1107.133">U</text>
      <text x="881.257" y="1121.073">G</text>
      <text x="868.647" y="1135.083">G</text>
      <text x="856.114" y="1149.164">C</text>
      <text x="843.660" y="1163.312">G</text>
      <text x="831.283" y="1177.530">A</text>
      <text x="818.986" y="1191.816">U</text>
      <text x="806.769" y="1206.169">G</text>
      <text x="794.630" y="1220.590">A</text>
      <text x="782.571" y="1235.079">A</text>
      <text x="770.593" y="1249.633">A</text>
      <text x="758.696" y="1264.253">U</text>
      <text x="746.880" y="1278.938">G</text>
      <text x="735.144" y="1293.690">G</text>
      <text x="723.491" y="1308.506">U</text>
      <text x="711.920" y="1323.385">U</text>
      <text x="700.431" y="1338.330">A</text>
      <text x="689.025" y="1353.337">G</text>
      <text x="677.703" y="1368.406">U</text>
      <text x="666.464" y="1383.538">U</text>
      <text x="655.309" y="1398.733">G</text>
      <text x="644.238" y="1413.988">U</text>
      <text x="633.251" y="1429.305">U</text>
      <text x="622.349" y="1444.683">A</text>
      <text x="611.533" y="1460.120">U</text>
      <text x="600.802" y="1475.617">A</text>
      <text x="590.157" y="1491.173">A</text>
      <text x="579.598" y="1506.788">U</text>
      <text x="569.126" y="1522.460">A</text>
      <text x="558.741" y="1538.190">U</text>
      <text x="548.442" y="1553.979">A</text>
      <text x="538.232" y="1569.823">U</text>
      <text x="528.109" y="1585.723">U</text>
      <text x="518.074" y="1601.681">U</text>
      <text x="508.127" y="1617.692">C</text>
      <text x="498.270" y="1633.758">U</text>
      <text x="488.501" y="1649.878">C</text>
      <text x="478.822" y="1666.054">U</text>
      <text x="469.232" y="1682.281">A</text>
      <text x="459.732" y="1698.561">U</text>
      <text x="450.322" y="1714.895">A</text>
      <text x="441.003" y="1731.279">A</text>
      <text x="431.775" y="1747.715">C</text>
      <text x="422.637" y="1764.201">A</text>
      <text x="413.591" y="1780.739">A</text>
      <text x="404.637" y="1797.325">G</text>
      <text x="395.774" y="1813.961">U</text>
      <text x="387.003" y="1830.647">C</text>
      <text x="378.325" y="1847.379">A</text>
      <text x="369.740" y="1864.160">A</text>
      <text x="361.247" y="1880.989">C</text>
      <text x="352.848" y="1897.863">C</text>
      <text x="344.543" y="1914.784">U</text>
      <text x="336.331" y="1931.750">G</text>
      <text x="328.212" y="1948.763">C</text>
      <text x="320.189" y="1965.819">U</text>
      <text x="312.260" y="1982.919">U</text>
      <text x="304.424" y="2000.064">C</text>
      <text x="296.685" y="2017.251">U</text>
      <text x="289.041" y="2034.480">G</text>
      <text x="281.491" y="2051.752">C</text>
      <text x="274.038" y="2069.066">U</text>
      <text x="266.680" y="2086.420">U</text>
      <text x="259.419" y="2103.814">G</text>
      <text x="252.253" y="2121.250">C</text>
      <text x="245.185" y="2138.724">A</text>
      <text x="238.213" y="2156.236">A</text>
      <text x="231.338" y="2173.787">U</text>
      <text x="224.560" y="2191.376">C</text>
      <text x="217.880" y="2209.002">U</text>
      <text x="211.297" y="2226.664">A</text>
      <text x="204.812" y="2244.364">A</text>
      <text x="198.425" y="2262.098">A</text>
      <text x="192.136" y="2279.867">G</text>
      <text x="185.946" y="2297.671">A</text>
      <text x="179.854" y="2315.510">C</text>
      <text x="173.861" y="2333.381">C</text>
      <text x="167.967" y="2351.285">U</text>
      <text x="162.171" y="2369.223">G</text>
      <text x="156.476" y="2387.190">U</text>
      <text x="150.879" y="2405.189">C</text>
      <text x="145.382" y="2423.221">U</text>
      <text x="139.986" y="2441.281">A</text>
      <text x="134.689" y="2459.371">A</text>
      <text x="129.492" y="2477.489">A</text>
      <text x="124.395" y="2495.638">C</text>
      <text x="119.399" y="2513.812">C</text>
      <text x="114.504" y="2532.015">U</text>
      <text x="109.709" y="2550.246">A</text>
      <text x="105.016" y="2568.501">U</text>
      <text x="100.423" y="2586.782">U</text>
      <text x="95.932" y="2605.088">U</text>
      <text x="91.541" y="2623.420">A</text>
      <text x="87.253" y="2641.775">A</text>
      <text x="83.066" y="2660.153">C</text>
      <text x="78.980" y="2678.556">A</text>
      <text x="74.996" y="2696.979">A</text>
      <text x="71.115" y="2715.424">U</text>
      <text x="67.335" y="2733.890">A</text>
      <text x="63.658" y="2752.379">C</text>
      <text x="60.083" y="2770.886">U</text>
      <text x="56.610" y="2789.412">G</text>
      <text x="53.240" y="2807.959">A</text>
      <text x="49.973" y="2826.523">U</text>
      <text x="46.808" y="2845.104">G</text>
      <text x="43.746" y="2863.705">C</text>
      <text x="40.787" y="2882.320">A</text>
      <text x="37.931" y="2900.951">G</text>
      <text x="35.178" y="2919.598">U</text>
      <text x="32.528" y="2938.262">A</text>
      <text x="29.982" y="2956.938">A</text>
      <text x="27.539" y="2975.628">C</text>
      <text x="25.199" y="2994.333">U</text>
      <text x="22.963" y="3013.049">G</text>
      <text x="20.830" y="3031.777">U</text>
      <text x="18.801" y="3050.517">U</text>
      <text x="16.875" y="3069.269">C</text>
      <text x="15.054" y="3088.030">A</text>
      <text x="13.336" y="3106.800">U</text>
      <text x="11.722" y="3125.582">U</text>
      <text x="10.212" y="3144.370">G</text>
      <text x="8.806" y="3163.167">C</text>
      <text x="7.504" y="3181.971">U</text>
      <text x="6.306" y="3200.783">U</text>
      <text x="5.212" y="3219.600">U</text>
      <text x="4.221" y="3238.424">A</text>
      <text x="3.336" y="3257.253">A</text>
      <text x="2.554" y="3276.086">U</text>
      <text x="1.876" y="3294.923">G</text>
      <text x="1.303" y="3313.763">A</text>
      <text x="0.834" y="3332.608">A</text>
      <text x="0.469" y="3351.454">A</text>
      <text x="0.208" y="3370.301">A</text>
      <text x="0.052" y="3389.151">C</text>
      <text x="0.000" y="3408.000">C</text>
      <text x="0.052" y="3426.849">A</text>
      <text x="0.208" y="3445.699">A</text>
      <text x="0.469" y="3464.546">G</text>
      <text x="0.834" y="3483.392">G</text>
      <text x="1.303" y="3502.235">A</text>
      <text x="1.876" y="3521.077">U</text>
      <text x="2.554" y="3539.914">A</text>
      <text x="3.336" y="3558.747">C</text>
      <text x="4.221" y="3577.577">A</text>
      <text x="5.212" y="3596.400">U</text>
      <text x="6.306" y="3615.217">G</text>
      <text x="7.504" y="3634.028">C</text>
      <text x="8.806" y="3652.833">U</text>
      <text x="10.212" y="3671.630">A</text>
      <text x="11.722" y="3690.418">A</text>
      <text x="13.336" y="3709.200">C</text>
      <text x="15.054" y="3727.971">A</text>
      <text x="16.876" y="3746.731">U</text>
      <text x="18.801" y="3765.482">U</text>
      <text x="20.830" y="3784.223">A</text>
      <text x="22.963" y="3802.951">G</text>
      <text x="25.199" y="3821.667">C</text>
      <text x="27.539" y="3840.372">A</text>
      <text x="29.982" y="3859.062">U</text>
      <text x="32.528" y="3877.738">C</text>
      <text x="35.178" y="3896.402">U</text>
      <text x="37.931" y="3915.049">U</text>
      <text x="40.787" y="3933.680">U</text>
      <text x="43.746" y="3952.295">G</text>
      <text x="46.808" y="3970.896">G</text>
      <text x="49.973" y="3989.477">G</text>
      <text x="53.240" y="4008.041">A</text>
      <text x="56.610" y="4026.588">U</text>
      <text x="60.083" y="4045.115">U</text>
      <text x="63.658" y="4063.621">A</text>
      <text x="67.335" y="4082.108">G</text>
      <text x="71.115" y="4100.576">G</text>
      <text x="74.996" y="4119.021">G</text>
      <text x="78.980" y="4137.444">A</text>
      <text x="83.066" y="4155.847">U</text>
      <text x="87.253" y="4174.225">A</text>
      <text x="91.541" y="4192.580">A</text>
      <text x="95.931" y="4210.911">U</text>
      <text x="100.423" y="4229.218">U</text>
      <text x="105.016" y="4247.499">A</text>
      <text x="109.709" y="4265.755">C</text>
      <text x="114.504" y="4283.985">U</text>
      <text x="119.399" y="4302.188">A</text>
      <text x="124.395" y="4320.362">U</text>
      <text x="129.492" y="4338.510">G</text>
      <text x="134.689" y="4356.630">U</text>
      <text x="139.986" y="4374.719">U</text>
      <text x="145.382" y="4392.779">G</text>
      <text x="150.879" y="4410.811">U</text>
      <text x="156.476" y="4428.810">A</text>
      <text x="162.171" y="4446.777">U</text>
      <text x="167.967" y="4464.715">U</text>
      <text x="173.861" y="4482.619">U</text>
      <text x="179.854" y="4500.490">A</text>
      <text x="185.945" y="4518.328">U</text>
      <text x="192.136" y="4536.133">U</text>
      <text x="198.425" y="4553.902">A</text>
      <text x="204.812" y="4571.636">G</text>
      <text x="211.297" y="4589.336">U</text>
      <text x="217.880" y="4606.998">A</text>
      <text x="224.560" y="4624.624">A</text>
      <text x="231.338" y="4642.212">A</text>
      <text x="238.213" y="4659.764">A</text>
      <text x="245.185" y="4677.276">A</text>
      <text x="252.253" y="4694.750">U</text>
      <text x="259.419" y="4712.186">C</text>
      <text x="266.680" y="4729.580">A</text>
      <text x="274.038" y="4746.934">U</text>
      <text x="281.491" y="4764.247">A</text>
      <text x="289.041" y="4781.520">A</text>
      <text x="296.685" y="4798.749">U</text>
      <text x="304.425" y="4815.936">U</text>
      <text x="312.260" y="4833.081">G</text>
      <text x="320.189" y="4850.181">A</text>
      <text x="328.212" y="4867.237">A</text>
      <text x="336.331" y="4884.250">C</text>
      <text x="344.543" y="4901.216">U</text>
      <text x="352.848" y="4918.137">U</text>
      <text x="361.247" y="4935.011">G</text>
      <text x="369.740" y="4951.840">U</text>
      <text x="378.325" y="4968.621">C</text>
      <text x="387.003" y="4985.353">A</text>
      <text x="395.774" y="5002.039">A</text>
      <text x="404.637" y="5018.675">U</text>
      <text x="413.591" y="5035.261">G</text>
      <text x="422.637" y="5051.798">G</text>
      <text x="431.775" y="5068.285">U</text>
      <text x="441.003" y="5084.721">U</text>
      <text x="450.322" y="5101.105">U</text>
      <text x="459.732" y="5117.439">U</text>
      <text x="469.232" y="5133.719">G</text>
      <text x="478.822" y="5149.947">U</text>
      <text x="488.501" y="5166.121">G</text>
      <text x="498.270" y="5182.242">C</text>
      <text x="508.127" y="5198.308">U</text>
      <text x="518.074" y="5214.319">C</text>
      <text x="528.109" y="5230.277">G</text>
      <text x="538.232" y="5246.177">G</text>
      <text x="548.442" y="5262.021">C</text>
      <text x="558.741" y="5277.810">A</text>
      <text x="569.126" y="5293.540">G</text>
      <text x="579.598" y="5309.212">A</text>
      <text x="590.157" y="5324.827">U</text>
      <text x="600.802" y="5340.384">G</text>
      <text x="611.533" y="5355.880">G</text>
      <text x="622.349" y="5371.317">G</text>
      <text x="633.251" y="5386.695">A</text>
      <text x="644.238" y="5402.012">G</text>
      <text x="655.309" y="5417.267">A</text>
      <text x="666.464" y="5432.461">G</text>
      <text x="677.703" y="5447.594">A</text>
      <text x="689.026" y="5462.664">U</text>
      <text x="700.431" y="5477.670">G</text>
      <text x="711.921" y="5492.615">G</text>
      <text x="723.491" y="5507.495">U</text>
      <text x="735.144" y="5522.310">G</text>
      <text x="746.879" y="5537.061">U</text>
      <text x="758.696" y="5551.747">G</text>
      <text x="770.593" y="5566.367">G</text>
      <text x="782.571" y="5580.921">A</text>
      <text x="794.630" y="5595.410">G</text>
      <text x="806.769" y="5609.831">A</text>
      <text x="818.986" y="5624.184">U</text>
      <text x="831.283" y="5638.470">A</text>
      <text x="843.660" y="5652.688">U</text>
      <text x="856.114" y="5666.836">A</text>
      <text x="868.646" y="5680.916">A</text>
      <text x="881.257" y="5694.927">A</text>
      <text x="893.944" y="5708.867">G</text>
      <text x="906.708" y="5722.736">A</text>
      <text x="919.550" y="5736.536">C</text>
      <text x="932.467" y="5750.264">C</text>
      <text x="945.459" y="5763.920">A</text>
      <text x="958.527" y="5777.503">C</text>
      <text x="971.671" y="5791.016">A</text>
      <text x="984.888" y="5804.455">A</text>
      <text x="998.180" y="5817.819">U</text>
      <text x="1011.546" y="5831.112">U</text>
      <text x="1024.984" y="5844.329">A</text>
      <text x="1038.496" y="5857.472">U</text>
      <text x="1052.080" y="5870.540">G</text>
      <text x="1065.737" y="5883.533">C</text>
      <text x="1079.464" y="5896.450">C</text>
      <text x="1093.263" y="5909.291">U</text>
      <text x="1107.134" y="5922.056">G</text>
      <text x="1121.073" y="5934.743">A</text>
      <text x="1135.083" y="5947.353">A</text>
      <text x="1149.163" y="5959.885">A</text>
      <text x="1163.313" y="5972.341">U</text>
      <text x="1177.530" y="5984.716">U</text>
      <text x="1191.815" y="5997.013">G</text>
      <text x="1206.170" y="6009.232">A</text>
      <text x="1220.590" y="6021.370">C</text>
      <text x="1235.078" y="6033.428">U</text>
      <text x="1249.633" y="6045.407">C</text>
      <text x="1264.253" y="6057.304">G</text>
      <text x="1278.939" y="6069.120">A</text>
      <text x="1293.689" y="6080.855">U</text>
      <text x="1308.506" y="6092.509">G</text>
      <text x="1323.385" y="6104.080">G</text>
      <text x="1338.329" y="6115.568">A</text>
      <text x="1353.337" y="6126.975">A</text>
      <text x="1368.407" y="6138.297">A</text>
      <text x="1383.538" y="6149.536">A</text>
      <text x="1398.732" y="6160.691">A</text>
      <text x="1413.989" y="6171.763">G</text>
      <text x="1429.305" y="6182.749">A</text>
      <text x="1444.682" y="6193.650">U</text>
      <text x="1460.120" y="6204.467">A</text>
      <text x="1475.617" y="6215.198">U</text>
      <text x="1491.172" y="6225.843">U</text>
      <text x="1506.787" y="6236.401">G</text>
      <text x="1522.461" y="6246.874">C</text>
      <text x="1538.191" y="6257.259">C</text>
      <text x="1553.978" y="6267.557">C</text>
      <text x="1569.823" y="6277.769">U</text>
      <text x="1585.724" y="6287.891">C</text>
      <text x="1601.680" y="6297.926">U</text>
      <text x="1617.691" y="6307.872">C</text>
      <text x="1633.758" y="6317.730">U</text>
      <text x="1649.879" y="6327.499">A</text>
      <text x="1666.053" y="6337.178">G</text>
      <text x="1682.281" y="6346.769">G</text>
      <text x="1698.562" y="6356.268">G</text>
      <text x="1714.894" y="6365.678">A</text>
      <text x="1731.280" y="6374.997">G</text>
      <text x="1747.715" y="6384.226">A</text>
      <text x="1764.202" y="6393.362">G</text>
      <text x="1780.738" y="6402.408">A</text>
      <text x="1797.326" y="6411.364">C</text>
      <text x="1813.962" y="6420.226">U</text>
      <text x="1830.646" y="6428.996">U</text>
      <text x="1847.380" y="6437.675">G</text>
      <text x="1864.161" y="6446.260">A</text>
      <text x="1880.988" y="6454.752">C</text>
      <text x="1897.862" y="6463.151">C</text>
      <text x="1914.785" y="6471.458">U</text>
      <text x="1931.751" y="6479.669">G</text>
      <text x="1948.762" y="6487.787">G</text>
      <text x="1965.820" y="6495.812">G</text>
      <text x="1982.920" y="6503.741">A</text>
      <text x="2000.063" y="6511.575">G</text>
      <text x="2017.250" y="6519.314">A</text>
      <text x="2034.481" y="6526.960">G</text>
      <text x="2051.752" y="6534.509">G</text>
      <text x="2069.065" y="6541.962">A</text>
      <text x="2086.421" y="6549.320">U</text>
      <text x="2103.815" y="6556.582">G</text>
      <text x="2121.249" y="6563.746">C</text>
      <text x="2138.724" y="6570.815">C</text>
      <text x="2156.236" y="6577.787">C</text>
      <text x="2173.787" y="6584.662">C</text>
      <text x="2191.375" y="6591.439">U</text>
      <text x="2209.002" y="6598.121">G</text>
      <text x="2226.665" y="6604.703">A</text>
      <text x="2244.363" y="6611.188">C</text>
      <text x="2262.099" y="6617.575">G</text>
      <text x="2279.868" y="6623.864">A</text>
      <text x="2297.671" y="6630.055">A</text>
      <text x="2315.509" y="6636.146">A</text>
      <text x="2333.381" y="6642.140">C</text>
      <text x="2351.285" y="6648.034">C</text>
      <text x="2369.221" y="6653.829">G</text>
      <text x="2387.191" y="6659.524">A</text>
      <text x="2405.190" y="6665.121">C</text>
      <text x="2423.220" y="6670.617">A</text>
      <text x="2441.280" y="6676.014">A</text>
      <text x="2459.371" y="6681.312">C</text>
      <text x="2477.490" y="6686.508">U</text>
      <text x="2495.637" y="6691.604">C</text>
      <text x="2513.813" y="6696.601">A</text>
      <text x="2532.015" y="6701.496">C</text>
      <text x="2550.244" y="6706.290">C</text>
      <text x="2568.500" y="6710.984">A</text>
      <text x="2586.782" y="6715.577">A</text>
      <text x="2605.088" y="6720.068">U</text>
      <text x="2623.419" y="6724.458">U</text>
      <text x="2641.775" y="6728.747">C</text>
      <text x="2660.154" y="6732.935">C</text>
      <text x="2678.555" y="6737.020">C</text>
      <text x="2696.979" y="6741.004">U</text>
      <text x="2715.425" y="6744.885">U</text>
      <text x="2733.891" y="6748.665">U</text>
      <text x="2752.378" y="6752.342">U</text>
      <text x="2770.886" y="6755.917">C</text>
      <text x="2789.413" y="6759.390">C</text>
      <text x="2807.958" y="6762.760">A</text>
      <text x="2826.523" y="6766.027">A</text>
      <text x="2845.105" y="6769.192">U</text>
      <text x="2863.704" y="6772.254">G</text>
      <text x="2882.319" y="6775.213">A</text>
      <text x="2900.952" y="6778.069">U</text>
      <text x="2919.599" y="6780.822">G</text>
      <text x="2938.261" y="6783.472">G</text>
      <text x="2956.938" y="6786.019">U</text>
      <text x="2975.629" y="6788.461">A</text>
      <text x="2994.332" y="6790.801">U</text>
      <text x="3013.048" y="6793.037">U</text>
      <text x="3031.778" y="6795.170">U</text>
      <text x="3050.517" y="6797.199">U</text>
      <text x="3069.268" y="6799.124">U</text>
      <text x="3088.030" y="6800.946">G</text>
      <text x="3106.801" y="6802.664">A</text>
      <text x="3125.581" y="6804.278">A</text>
      <text x="3144.371" y="6805.788">A</text>
      <text x="3163.167" y="6807.194">U</text>
      <text x="3181.971" y="6808.496">U</text>
      <text x="3200.782" y="6809.694">U</text>
      <text x="3219.601" y="6810.789">A</text>
      <text x="3238.424" y="6811.778">A</text>
      <text x="3257.252" y="6812.664">_</text>
      <text x="3276.087" y="6813.446">_</text>
      <text x="3294.924" y="6814.124">_</text>
      <text x="3313.764" y="6814.697">_</text>
      <text x="3332.607" y="6815.166">_</text>
      <text x="3351.454" y="6815.531">_</text>
      <text x="3370.302" y="6815.792">_</text>
      <text x="3389.150" y="6815.948">_</text>
    </g>
  </g>
</svg>
