<?xml version="1.0" encoding="UTF-8" standalone="yes"?>
<svg xmlns="http://www.w3.org/2000/svg" height="452" width="452">
<script type="text/ecmascript">
      <![CDATA[
        var shown = 1;
        function click() {
             var seq = document.getElementById("seq");
             if (shown==1) {
               seq.setAttribute("style", "visibility: hidden");
               shown = 0;
             } else {
               seq.setAttribute("style", "visibility: visible");
               shown = 1;
             }
         }
        ]]>
</script>
  <rect style="stroke: white; fill: white" height="452" x="0" y="0" width="452" onclick="click(evt)" />
  <g transform="scale(0.064915,0.064915) translate(7.500000,7.500000)">
    <polyline style="stroke: black; fill: none; stroke-width: 1.5" id="outline" points="
      3474.000,6948.000
      3492.849,6947.949
      3511.698,6947.795
      3530.546,6947.540
      3549.392,6947.182
      3568.236,6946.722
      3587.077,6946.159
      3605.915,6945.494
      3624.749,6944.728
      3643.579,6943.858
      3662.403,6942.888
      3681.222,6941.814
      3700.035,6940.639
      3718.841,6939.361
      3737.640,6937.981
      3756.431,6936.500
      3775.214,6934.917
      3793.988,6933.231
      3812.753,6931.444
      3831.508,6929.556
      3850.252,6927.565
      3868.985,6925.473
      3887.706,6923.279
      3906.415,6920.983
      3925.112,6918.586
      3943.795,6916.088
      3962.464,6913.488
      3981.120,6910.787
      3999.760,6907.985
      4018.384,6905.082
      4036.993,6902.077
      4055.585,6898.972
      4074.160,6895.766
      4092.717,6892.459
      4111.256,6889.052
      4129.776,6885.544
      4148.277,6881.936
      4166.758,6878.227
      4185.219,6874.418
      4203.659,6870.509
      4222.077,6866.500
      4240.473,6862.392
      4258.847,6858.183
      4277.197,6853.874
      4295.524,6849.467
      4313.827,6844.959
      4332.105,6840.353
      4350.358,6835.647
      4368.585,6830.843
      4386.785,6825.939
      4404.959,6820.938
      4423.105,6815.837
      4441.224,6810.638
      4459.313,6805.341
      4477.375,6799.946
      4495.406,6794.453
      4513.407,6788.862
      4531.378,6783.173
      4549.317,6777.387
      4567.226,6771.504
      4585.101,6765.524
      4602.944,6759.447
      4620.754,6753.273
      4638.530,6747.003
      4656.271,6740.636
      4673.979,6734.173
      4691.650,6727.614
      4709.286,6720.959
      4726.886,6714.209
      4744.448,6707.363
      4761.973,6700.422
      4779.460,6693.387
      4796.909,6686.256
      4814.319,6679.031
      4831.689,6671.711
      4849.020,6664.297
      4866.310,6656.790
      4883.558,6649.188
      4900.766,6641.493
      4917.931,6633.706
      4935.054,6625.824
      4952.134,6617.851
      4969.170,6609.784
      4986.163,6601.625
      5003.110,6593.375
      5020.013,6585.032
      5036.871,6576.598
      5053.682,6568.072
      5070.446,6559.455
      5087.164,6550.748
      5103.834,6541.949
      5120.457,6533.062
      5137.031,6524.083
      5153.556,6515.015
      5170.031,6505.856
      5186.457,6496.609
      5202.832,6487.273
      5219.156,6477.849
      5235.429,6468.335
      5251.649,6458.734
      5267.818,6449.045
      5283.934,6439.268
      5299.996,6429.404
      5316.005,6419.453
      5331.959,6409.415
      5347.859,6399.291
      5363.704,6389.081
      5379.493,6378.784
      5395.226,6368.402
      5410.902,6357.936
      5426.522,6347.384
      5442.083,6336.748
      5457.588,6326.026
      5473.033,6315.222
      5488.420,6304.334
      5503.747,6293.362
      5519.015,6282.308
      5534.222,6271.170
      5549.369,6259.950
      5564.455,6248.649
      5579.479,6237.266
      5594.440,6225.801
      5609.341,6214.255
      5624.177,6202.629
      5638.951,6190.922
      5653.661,6179.135
      5668.306,6167.269
      5682.887,6155.323
      5697.403,6143.298
      5711.854,6131.195
      5726.238,6119.014
      5740.557,6106.754
      5754.809,6094.418
      5768.993,6082.004
      5783.109,6069.513
      5797.158,6056.946
      5811.139,6044.303
      5825.051,6031.584
      5838.894,6018.790
      5852.666,6005.921
      5866.369,5992.978
      5880.001,5979.959
      5893.563,5966.868
      5907.054,5953.703
      5920.472,5940.465
      5933.819,5927.154
      5947.093,5913.771
      5960.295,5900.317
      5973.423,5886.791
      5986.478,5873.194
      5999.458,5859.526
      6012.365,5845.789
      6025.196,5831.980
      6037.953,5818.104
      6050.634,5804.157
      6063.239,5790.143
      6075.768,5776.060
      6088.221,5761.909
      6100.596,5747.690
      6112.894,5733.406
      6125.114,5719.054
      6137.257,5704.637
      6149.321,5690.153
      6161.306,5675.604
      6173.212,5660.991
      6185.039,5646.313
      6196.785,5631.572
      6208.452,5616.767
      6220.038,5601.898
      6231.543,5586.967
      6242.968,5571.974
      6254.310,5556.919
      6265.570,5541.803
      6276.749,5526.626
      6287.845,5511.388
      6298.858,5496.091
      6309.788,5480.734
      6320.635,5465.317
      6331.397,5449.843
      6342.076,5434.310
      6352.670,5418.719
      6363.180,5403.071
      6373.604,5387.366
      6383.943,5371.605
      6394.196,5355.789
      6404.364,5339.917
      6414.445,5323.989
      6424.439,5308.007
      6434.347,5291.972
      6444.167,5275.883
      6453.900,5259.740
      6463.546,5243.545
      6473.104,5227.299
      6482.572,5211.000
      6491.953,5194.650
      6501.244,5178.250
      6510.447,5161.799
      6519.560,5145.299
      6528.583,5128.750
      6537.517,5112.152
      6546.360,5095.505
      6555.113,5078.811
      6563.775,5062.070
      6572.346,5045.282
      6580.826,5028.447
      6589.215,5011.567
      6597.512,4994.642
      6605.716,4977.672
      6613.829,4960.658
      6621.849,4943.599
      6629.776,4926.498
      6637.611,4909.354
      6645.353,4892.167
      6653.001,4874.939
      6660.556,4857.669
      6668.016,4840.359
      6675.383,4823.009
      6682.655,4805.619
      6689.833,4788.189
      6696.916,4770.721
      6703.905,4753.215
      6710.798,4735.671
      6717.596,4718.090
      6724.299,4700.473
      6730.905,4682.819
      6737.416,4665.130
      6743.831,4647.405
      6750.150,4629.646
      6756.372,4611.854
      6762.498,4594.027
      6768.526,4576.167
      6774.458,4558.275
      6780.292,4540.352
      6786.029,4522.396
      6791.669,4504.410
      6797.211,4486.394
      6802.656,4468.348
      6808.002,4450.272
      6813.250,4432.168
      6818.399,4414.036
      6823.451,4395.875
      6828.404,4377.688
      6833.258,4359.475
      6838.013,4341.234
      6842.668,4322.969
      6847.226,4304.679
      6851.683,4286.364
      6856.041,4268.024
      6860.299,4249.663
      6864.458,4231.277
      6868.517,4212.870
      6872.477,4194.441
      6876.335,4175.991
      6880.094,4157.520
      6883.753,4139.029
      6887.311,4120.519
      6890.769,4101.988
      6894.125,4083.440
      6897.382,4064.875
      6900.537,4046.291
      6903.592,4027.690
      6906.546,4009.074
      6909.398,3990.441
      6912.150,3971.794
      6914.801,3953.131
      6917.350,3934.455
      6919.797,3915.765
      6922.144,3897.062
      6924.389,3878.347
      6926.531,3859.620
      6928.573,3840.881
      6930.513,3822.132
      6932.351,3803.372
      6934.087,3784.602
      6935.722,3765.823
      6937.254,3747.037
      6938.685,3728.241
      6940.013,3709.439
      6941.239,3690.629
      6942.364,3671.813
      6943.386,3652.991
      6944.306,3634.165
      6945.124,3615.333
      6945.840,3596.497
      6946.453,3577.657
      6946.964,3558.814
      6947.374,3539.969
      6947.681,3521.122
      6947.885,3502.274
      6947.987,3483.425
      6947.987,3464.575
      6947.885,3445.726
      6947.680,3426.877
      6947.374,3408.030
      6946.964,3389.185
      6946.453,3370.343
      6945.840,3351.503
      6945.124,3332.667
      6944.306,3313.836
      6943.386,3295.008
      6942.364,3276.187
      6941.239,3257.371
      6940.013,3238.561
      6938.685,3219.758
      6937.254,3200.963
      6935.722,3182.176
      6934.087,3163.397
      6932.351,3144.628
      6930.513,3125.869
      6928.573,3107.119
      6926.531,3088.380
      6924.389,3069.653
      6922.144,3050.938
      6919.797,3032.235
      6917.350,3013.544
      6914.801,2994.868
      6912.150,2976.206
      6909.398,2957.558
      6906.546,2938.926
      6903.592,2920.309
      6900.537,2901.709
      6897.382,2883.126
      6894.125,2864.560
      6890.769,2846.011
      6887.311,2827.481
      6883.753,2808.971
      6880.094,2790.479
      6876.335,2772.009
      6872.477,2753.559
      6868.517,2735.129
      6864.458,2716.722
      6860.300,2698.337
      6856.041,2679.975
      6851.683,2661.636
      6847.226,2643.321
      6842.668,2625.031
      6838.013,2606.765
      6833.257,2588.525
      6828.403,2570.312
      6823.451,2552.124
      6818.399,2533.964
      6813.250,2515.832
      6808.002,2497.728
      6802.656,2479.652
      6797.211,2461.605
      6791.669,2443.589
      6786.029,2425.604
      6780.292,2407.648
      6774.458,2389.725
      6768.526,2371.833
      6762.497,2353.973
      6756.372,2336.146
      6750.150,2318.354
      6743.831,2300.595
      6737.416,2282.870
      6730.905,2265.181
      6724.299,2247.527
      6717.596,2229.909
      6710.798,2212.329
      6703.904,2194.785
      6696.916,2177.278
      6689.833,2159.811
      6682.655,2142.381
      6675.383,2124.991
      6668.016,2107.640
      6660.555,2090.330
      6653.001,2073.061
      6645.353,2055.833
      6637.611,2038.646
      6629.776,2021.502
      6621.849,2004.401
      6613.829,1987.343
      6605.716,1970.328
      6597.511,1953.357
      6589.215,1936.432
      6580.826,1919.552
      6572.346,1902.718
      6563.775,1885.930
      6555.113,1869.188
      6546.360,1852.495
      6537.517,1835.848
      6528.583,1819.250
      6519.560,1802.700
      6510.447,1786.201
      6501.244,1769.750
      6491.953,1753.350
      6482.572,1737.000
      6473.103,1720.701
      6463.546,1704.454
      6453.900,1688.260
      6444.167,1672.118
      6434.347,1656.028
      6424.439,1639.992
      6414.445,1624.011
      6404.363,1608.083
      6394.196,1592.211
      6383.943,1576.395
      6373.604,1560.633
      6363.180,1544.929
      6352.670,1529.281
      6342.076,1513.690
      6331.397,1498.157
      6320.635,1482.682
      6309.788,1467.267
      6298.858,1451.909
      6287.845,1436.611
      6276.749,1421.374
      6265.570,1406.197
      6254.310,1391.080
      6242.968,1376.026
      6231.543,1361.033
      6220.038,1346.102
      6208.452,1331.233
      6196.785,1316.428
      6185.038,1301.686
      6173.211,1287.008
      6161.306,1272.396
      6149.320,1257.847
      6137.257,1243.363
      6125.114,1228.945
      6112.894,1214.594
      6100.596,1200.309
      6088.220,1186.091
      6075.769,1171.940
      6063.239,1157.857
      6050.634,1143.843
      6037.953,1129.896
      6025.196,1116.019
      6012.364,1102.211
      5999.458,1088.474
      5986.478,1074.806
      5973.423,1061.209
      5960.294,1047.683
      5947.093,1034.228
      5933.818,1020.845
      5920.472,1007.535
      5907.054,994.297
      5893.563,981.132
      5880.001,968.040
      5866.369,955.022
      5852.666,942.079
      5838.893,929.210
      5825.051,916.416
      5811.140,903.697
      5797.158,891.054
      5783.109,878.487
      5768.992,865.996
      5754.808,853.582
      5740.557,841.245
      5726.238,828.986
      5711.854,816.805
      5697.403,804.702
      5682.887,792.677
      5668.306,780.731
      5653.660,768.864
      5638.950,757.078
      5624.177,745.372
      5609.341,733.745
      5594.440,722.199
      5579.479,710.734
      5564.454,699.351
      5549.368,688.049
      5534.222,676.830
      5519.015,665.692
      5503.747,654.638
      5488.420,643.666
      5473.033,632.778
      5457.587,621.973
      5442.083,611.252
      5426.522,600.616
      5410.902,590.064
      5395.226,579.598
      5379.493,569.216
      5363.704,558.919
      5347.859,548.709
      5331.959,538.585
      5316.005,528.547
      5299.996,518.596
      5283.934,508.732
      5267.818,498.955
      5251.649,489.266
      5235.428,479.664
      5219.155,470.151
      5202.832,460.727
      5186.457,451.391
      5170.031,442.143
      5153.555,432.985
      5137.030,423.917
      5120.457,414.938
      5103.835,406.051
      5087.165,397.252
      5070.446,388.545
      5053.682,379.928
      5036.870,371.402
      5020.013,362.968
      5003.110,354.625
      4986.163,346.375
      4969.170,338.216
      4952.134,330.149
      4935.054,322.176
      4917.931,314.294
      4900.765,306.506
      4883.558,298.812
      4866.310,291.210
      4849.020,283.703
      4831.689,276.289
      4814.318,268.969
      4796.909,261.744
      4779.460,254.613
      4761.973,247.578
      4744.448,240.637
      4726.885,233.791
      4709.286,227.041
      4691.650,220.386
      4673.979,213.827
      4656.271,207.364
      4638.530,200.997
      4620.754,194.727
      4602.944,188.553
      4585.101,182.476
      4567.225,176.496
      4549.317,170.612
      4531.378,164.827
      4513.407,159.138
      4495.406,153.547
      4477.375,148.054
      4459.313,142.659
      4441.224,137.362
      4423.105,132.163
      4404.959,127.062
      4386.785,122.061
      4368.584,117.157
      4350.357,112.353
      4332.104,107.647
      4313.827,103.041
      4295.523,98.533
      4277.197,94.126
      4258.847,89.817
      4240.473,85.608
      4222.077,81.500
      4203.658,77.491
      4185.218,73.582
      4166.758,69.773
      4148.277,66.064
      4129.776,62.456
      4111.256,58.948
      4092.717,55.541
      4074.159,52.233
      4055.584,49.027
      4036.993,45.923
      4018.384,42.918
      3999.760,40.015
      3981.119,37.213
      3962.464,34.512
      3943.795,31.912
      3925.111,29.414
      3906.416,27.017
      3887.706,24.721
      3868.985,22.527
      3850.251,20.435
      3831.507,18.444
      3812.752,16.556
      3793.988,14.769
      3775.214,13.083
      3756.431,11.500
      3737.640,10.018
      3718.841,8.639
      3700.034,7.361
      3681.221,6.186
      3662.403,5.112
      3643.579,4.142
      3624.749,3.272
      3605.915,2.506
      3587.077,1.841
      3568.236,1.278
      3549.392,0.818
      3530.546,0.460
      3511.698,0.205
      3492.849,0.051
      3474.000,0.000
      3455.150,0.051
      3436.301,0.205
      3417.454,0.460
      3398.608,0.818
      3379.764,1.278
      3360.922,1.841
      3342.084,2.506
      3323.250,3.272
      3304.421,4.142
      3285.597,5.112
      3266.778,6.186
      3247.965,7.361
      3229.159,8.639
      3210.360,10.019
      3191.568,11.500
      3172.785,13.083
      3154.012,14.769
      3135.247,16.556
      3116.492,18.444
      3097.748,20.436
      3079.015,22.527
      3060.293,24.722
      3041.585,27.017
      3022.888,29.414
      3004.205,31.912
      2985.535,34.512
      2966.880,37.213
      2948.240,40.015
      2929.615,42.918
      2911.007,45.923
      2892.415,49.028
      2873.840,52.234
      2855.283,55.541
      2836.744,58.948
      2818.223,62.456
      2799.722,66.064
      2781.242,69.773
      2762.781,73.582
      2744.341,77.491
      2725.923,81.500
      2707.526,85.609
      2689.153,89.817
      2670.803,94.126
      2652.476,98.533
      2634.173,103.041
      2615.895,107.647
      2597.642,112.353
      2579.415,117.157
      2561.214,122.061
      2543.041,127.062
      2524.895,132.163
      2506.776,137.362
      2488.686,142.659
      2470.625,148.055
      2452.594,153.548
      2434.592,159.139
      2416.622,164.827
      2398.682,170.613
      2380.774,176.496
      2362.898,182.476
      2345.055,188.553
      2327.246,194.728
      2309.470,200.997
      2291.728,207.364
      2274.021,213.827
      2256.350,220.386
      2238.713,227.041
      2221.114,233.791
      2203.551,240.637
      2186.027,247.578
      2168.540,254.613
      2151.091,261.744
      2133.681,268.970
      2116.311,276.289
      2098.980,283.703
      2081.691,291.210
      2064.442,298.812
      2047.234,306.507
      2030.069,314.294
      2012.946,322.176
      1995.866,330.149
      1978.829,338.216
      1961.838,346.375
      1944.890,354.625
      1927.987,362.968
      1911.129,371.402
      1894.318,379.928
      1877.553,388.545
      1860.835,397.253
      1844.166,406.050
      1827.543,414.938
      1810.969,423.917
      1794.444,432.985
      1777.969,442.144
      1761.543,451.391
      1745.169,460.727
      1728.844,470.151
      1712.571,479.665
      1696.350,489.266
      1680.182,498.955
      1664.066,508.732
      1648.003,518.596
      1631.995,528.547
      1616.040,538.585
      1600.140,548.709
      1584.296,558.920
      1568.506,569.216
      1552.774,579.598
      1537.097,590.064
      1521.478,600.616
      1505.916,611.252
      1490.412,621.974
      1474.967,632.778
      1459.580,643.667
      1444.252,654.638
      1428.985,665.692
      1413.778,676.830
      1398.631,688.050
      1383.545,699.352
      1368.521,710.735
      1353.559,722.200
      1338.659,733.745
      1323.823,745.371
      1309.049,757.078
      1294.339,768.865
      1279.694,780.731
      1265.113,792.677
      1250.596,804.702
      1236.146,816.805
      1221.762,828.986
      1207.443,841.246
      1193.191,853.582
      1179.007,865.996
      1164.890,878.487
      1150.841,891.054
      1136.861,903.697
      1122.949,916.416
      1109.106,929.210
      1095.333,942.079
      1081.631,955.023
      1067.998,968.041
      1054.437,981.133
      1040.947,994.297
      1027.528,1007.535
      1014.181,1020.846
      1000.907,1034.229
      987.705,1047.683
      974.577,1061.209
      961.522,1074.807
      948.542,1088.474
      935.635,1102.212
      922.803,1116.020
      910.047,1129.896
      897.366,1143.843
      884.760,1157.858
      872.232,1171.940
      859.780,1186.091
      847.404,1200.310
      835.105,1214.595
      822.886,1228.945
      810.744,1243.363
      798.679,1257.847
      786.694,1272.396
      774.788,1287.009
      762.961,1301.687
      751.215,1316.429
      739.548,1331.233
      727.962,1346.102
      716.457,1361.033
      705.032,1376.026
      693.689,1391.082
      682.429,1406.198
      671.251,1421.374
      660.155,1436.611
      649.142,1451.909
      638.212,1467.266
      627.365,1482.683
      616.602,1498.157
      605.924,1513.690
      595.329,1529.281
      584.820,1544.929
      574.396,1560.634
      564.056,1576.395
      553.803,1592.212
      543.635,1608.084
      533.555,1624.010
      523.561,1639.992
      513.653,1656.028
      503.833,1672.117
      494.099,1688.260
      484.454,1704.455
      474.896,1720.702
      465.427,1737.000
      456.047,1753.350
      446.755,1769.750
      437.553,1786.201
      428.440,1802.702
      419.416,1819.251
      410.484,1835.848
      401.640,1852.494
      392.887,1869.188
      384.225,1885.930
      375.654,1902.718
      367.174,1919.553
      358.785,1936.433
      350.489,1953.358
      342.283,1970.329
      334.171,1987.343
      326.150,2004.401
      318.223,2021.503
      310.388,2038.647
      302.647,2055.834
      295.000,2073.061
      287.445,2090.330
      279.984,2107.641
      272.617,2124.991
      265.345,2142.381
      258.167,2159.811
      251.083,2177.279
      244.095,2194.785
      237.202,2212.329
      230.404,2229.910
      223.701,2247.528
      217.094,2265.182
      210.583,2282.871
      204.169,2300.594
      197.850,2318.354
      191.628,2336.146
      185.502,2353.973
      179.474,2371.833
      173.542,2389.725
      167.707,2407.648
      161.970,2425.604
      156.331,2443.590
      150.788,2461.606
      145.344,2479.653
      139.998,2497.729
      134.750,2515.833
      129.600,2533.964
      124.549,2552.124
      119.596,2570.312
      114.743,2588.525
      109.988,2606.766
      105.332,2625.031
      100.775,2643.322
      96.317,2661.637
      91.959,2679.976
      87.700,2698.338
      83.542,2716.723
      79.483,2735.130
      75.524,2753.560
      71.665,2772.010
      67.906,2790.479
      64.248,2808.971
      60.689,2827.481
      57.231,2846.011
      53.875,2864.560
      50.618,2883.126
      47.463,2901.709
      44.408,2920.310
      41.454,2938.927
      38.601,2957.559
      35.850,2976.207
      33.199,2994.869
      30.650,3013.546
      28.203,3032.234
      25.856,3050.938
      23.612,3069.653
      21.469,3088.380
      19.427,3107.119
      17.487,3125.869
      15.649,3144.629
      13.913,3163.398
      12.279,3182.177
      10.746,3200.964
      9.316,3219.759
      7.987,3238.562
      6.761,3257.372
      5.636,3276.186
      4.614,3295.008
      3.694,3313.835
      2.876,3332.667
      2.160,3351.503
      1.547,3370.343
      1.036,3389.186
      0.626,3408.031
      0.320,3426.878
      0.115,3445.727
      0.013,3464.576
      0.013,3483.426
      0.115,3502.275
      0.320,3521.124
      0.626,3539.969
      1.036,3558.814
      1.547,3577.657
      2.160,3596.497
      2.876,3615.333
      3.694,3634.165
      4.614,3652.992
      5.636,3671.814
      6.761,3690.630
      7.987,3709.440
      9.316,3728.242
      10.746,3747.038
      12.279,3765.825
      13.913,3784.602
      15.649,3803.372
      17.487,3822.131
      19.427,3840.881
      21.469,3859.620
      23.612,3878.347
      25.856,3897.062
      28.203,3915.766
      30.650,3934.456
      33.199,3953.132
      35.850,3971.795
      38.601,3990.442
      41.454,4009.075
      44.408,4027.690
      47.463,4046.291
      50.618,4064.874
      53.875,4083.440
      57.231,4101.989
      60.689,4120.519
      64.248,4139.029
      67.906,4157.521
      71.665,4175.992
      75.524,4194.442
      79.483,4212.871
      83.542,4231.279
      87.701,4249.664
      91.959,4268.024
      96.317,4286.363
      100.775,4304.679
      105.332,4322.969
      109.988,4341.234
      114.743,4359.475
      119.596,4377.688
      124.549,4395.876
      129.600,4414.036
      134.750,4432.169
      139.998,4450.273
      145.344,4468.349
      150.789,4486.395
      156.331,4504.412
      161.970,4522.396
      167.708,4540.352
      173.542,4558.275
      179.474,4576.167
      185.503,4594.027
      191.628,4611.854
      197.850,4629.646
      204.169,4647.406
      210.584,4665.130
      217.095,4682.820
      223.702,4700.474
      230.404,4718.091
      237.202,4735.672
      244.095,4753.215
      251.083,4770.721
      258.167,4788.189
      265.345,4805.619
      272.617,4823.009
      279.984,4840.359
      287.445,4857.670
      295.000,4874.939
      302.648,4892.168
      310.389,4909.354
      318.224,4926.499
      326.151,4943.600
      334.172,4960.659
      342.283,4977.671
      350.489,4994.642
      358.785,5011.567
      367.174,5028.447
      375.654,5045.282
      384.225,5062.070
      392.887,5078.812
      401.640,5095.506
      410.484,5112.152
      419.417,5128.750
      428.440,5145.300
      437.554,5161.800
      446.756,5178.251
      456.048,5194.651
      465.427,5211.000
      474.897,5227.298
      484.454,5243.545
      494.099,5259.740
      503.833,5275.883
      513.653,5291.972
      523.561,5308.008
      533.555,5323.990
      543.637,5339.917
      553.804,5355.790
      564.057,5371.606
      574.396,5387.367
      584.821,5403.072
      595.329,5418.719
      605.924,5434.310
      616.602,5449.843
      627.365,5465.317
      638.212,5480.734
      649.142,5496.091
      660.155,5511.389
      671.251,5526.626
      682.430,5541.804
      693.690,5556.920
      705.033,5571.975
      716.458,5586.968
      727.963,5601.899
      739.548,5616.767
      751.215,5631.572
      762.961,5646.313
      774.788,5660.991
      786.694,5675.605
      798.679,5690.153
      810.744,5704.637
      822.886,5719.055
      835.106,5733.406
      847.405,5747.691
      859.780,5761.910
      872.233,5776.061
      884.761,5790.144
      897.367,5804.158
      910.047,5818.104
      922.804,5831.980
      935.635,5845.789
      948.542,5859.526
      961.522,5873.194
      974.577,5886.792
      987.706,5900.317
      1000.907,5913.772
      1014.182,5927.155
      1027.528,5940.466
      1040.947,5953.704
      1054.438,5966.869
      1067.999,5979.960
      1081.631,5992.977
      1095.334,6005.921
      1109.106,6018.790
      1122.949,6031.584
      1136.861,6044.303
      1150.842,6056.946
      1164.891,6069.514
      1179.008,6082.004
      1193.192,6094.418
      1207.444,6106.755
      1221.762,6119.015
      1236.147,6131.196
      1250.598,6143.299
      1265.113,6155.323
      1279.694,6167.269
      1294.339,6179.135
      1309.049,6190.922
      1323.823,6202.629
      1338.660,6214.255
      1353.560,6225.801
      1368.522,6237.266
      1383.546,6248.649
      1398.632,6259.951
      1413.779,6271.171
      1428.986,6282.308
      1444.254,6293.363
      1459.580,6304.333
      1474.967,6315.222
      1490.412,6326.026
      1505.916,6336.748
      1521.478,6347.384
      1537.098,6357.936
      1552.774,6368.403
      1568.507,6378.785
      1584.297,6389.081
      1600.141,6399.291
      1616.041,6409.416
      1631.996,6419.454
      1648.005,6429.405
      1664.067,6439.269
      1680.182,6449.045
      1696.350,6458.734
      1712.572,6468.335
      1728.844,6477.849
      1745.169,6487.273
      1761.544,6496.610
      1777.969,6505.857
      1794.445,6515.015
      1810.970,6524.083
      1827.544,6533.062
      1844.166,6541.950
      1860.837,6550.748
      1877.555,6559.456
      1894.318,6568.072
      1911.129,6576.598
      1927.987,6585.032
      1944.890,6593.375
      1961.838,6601.625
      1978.830,6609.784
      1995.866,6617.851
      2012.947,6625.825
      2030.070,6633.706
      2047.235,6641.494
      2064.443,6649.188
      2081.691,6656.790
      2098.981,6664.298
      2116.311,6671.711
      2133.681,6679.030
      2151.091,6686.256
      2168.540,6693.387
      2186.027,6700.422
      2203.552,6707.363
      2221.115,6714.209
      2238.714,6720.959
      2256.350,6727.614
      2274.022,6734.173
      2291.729,6740.636
      2309.471,6747.003
      2327.247,6753.273
      2345.057,6759.447
      2362.898,6765.524
      2380.774,6771.504
      2398.682,6777.387
      2416.622,6783.173
      2434.593,6788.862
      2452.594,6794.453
      2470.626,6799.946
      2488.687,6805.341
      2506.777,6810.638
      2524.896,6815.837
      2543.042,6820.938
      2561.216,6825.940
      2579.417,6830.843
      2597.642,6835.647
      2615.895,6840.353
      2634.173,6844.959
      2652.476,6849.467
      2670.803,6853.874
      2689.154,6858.183
      2707.527,6862.392
      2725.924,6866.500
      2744.342,6870.509
      2762.782,6874.418
      2781.243,6878.228
      2799.724,6881.936
      2818.225,6885.544
      2836.744,6889.052
      2855.283,6892.459
      2873.840,6895.766
      2892.415,6898.972
      2911.007,6902.077
      2929.616,6905.082
      2948.241,6907.985
      2966.881,6910.787
      2985.536,6913.488
      3004.206,6916.088
      3022.889,6918.586
      3041.586,6920.983
      3060.295,6923.279
      3079.017,6925.473
      3097.748,6927.564
      3116.492,6929.556
      3135.247,6931.444
      3154.012,6933.231
      3172.786,6934.917
      3191.569,6936.500
      3210.360,6937.982
      3229.160,6939.361
      3247.966,6940.639
      3266.779,6941.814
      3285.598,6942.888
      3304.423,6943.858
      3323.252,6944.728
      3342.084,6945.494
      3360.923,6946.159
      3379.764,6946.722
      3398.608,6947.182
      3417.454,6947.540
      3436.302,6947.795
      3455.151,6947.949
    " />
    <g style="stroke: black; stroke-width: 1; fill: none;" id="pairs">
      <path id="304,506" d="M 6938.684570312500000 3219.758300781250000 C 5723.950195312500000,3308.896484375000000 4355.677246093750000,1397.420898437500000 4831.688964843750000 276.289062500000000" />
      <path id="305,505" d="M 6937.253906250000000 3200.962890625000000 C 5734.984375000000000,3295.747802734375000 4371.681152343750000,1391.215332031250000 4849.019531250000000 283.702636718750000" />
      <path id="306,504" d="M 6935.721679687500000 3182.176269531250000 C 5745.941406250000000,3282.474853515625000 4387.778320312500000,1385.122070312500000 4866.309570312500000 291.209960937500000" />
      <path id="307,503" d="M 6934.086914062500000 3163.397460937500000 C 5756.820800781250000,3269.077392578125000 4403.967285156250000,1379.143066406250000 4883.557617187500000 298.811523437500000" />
      <path id="309,393" d="M 6930.512695312500000 3125.868652343750000 C 6423.080078125000000,3176.975830078125000 5991.300781250000000,1909.233398437500000 6424.439453125000000 1639.992187500000000" />
      <path id="310,392" d="M 6928.573242187500000 3107.118896484375000 C 6433.357910156250000,3159.711669921875000 6009.979492187500000,1916.635742187500000 6434.346679687500000 1656.028320312500000" />
      <path id="311,391" d="M 6926.531250000000000 3088.380126953125000 C 6443.534667968750000,3142.326904296875000 6028.651855468750000,1924.194335937500000 6444.167480468750000 1672.117675781250000" />
      <path id="312,390" d="M 6924.388671875000000 3069.653076171875000 C 6453.610351562500000,3124.823242187500000 6047.316406250000000,1931.910156250000000 6453.900390625000000 1688.259765625000000" />
      <path id="319,383" d="M 6906.545898437500000 2938.926269531250000 C 6521.199218750000000,2998.994873046875000 6177.657226562500000,1990.324707031250000 6519.559570312500000 1802.700195312500000" />
      <path id="320,382" d="M 6903.592285156250000 2920.309326171875000 C 6530.424316406250000,2980.555419921875000 6196.218750000000000,1999.300292968750000 6528.583007812500000 1819.250000000000000" />
      <path id="326,379" d="M 6883.752929687500000 2808.970703125000000 C 6565.745117187500000,2870.994384765625000 6267.754882812500000,2018.860351562500000 6555.112792968750000 1869.188476562500000" />
      <path id="327,378" d="M 6880.093750000000000 2790.479492187500000 C 6574.192382812500000,2851.866699218750000 6286.282226562500000,2028.554687500000000 6563.774902343750000 1885.930175781250000" />
      <path id="328,377" d="M 6876.334960937500000 2772.008789062500000 C 6582.523925781250000,2832.629882812500000 6304.786132812500000,2038.407714843750000 6572.346191406250000 1902.718261718750000" />
      <path id="329,375" d="M 6872.476562500000000 2753.558593750000000 C 6596.606933593750000,2812.040039062500000 6336.338867187500000,2061.243164062500000 6589.214843750000000 1936.432128906250000" />
      <path id="330,374" d="M 6868.517089843750000 2735.129394531250000 C 6604.694335937500000,2792.554687500000000 6354.750976562500000,2071.542480468750000 6597.511230468750000 1953.357421875000000" />
      <path id="331,373" d="M 6864.458007812500000 2716.722167968750000 C 6612.662597656250000,2772.961914062500000 6373.136718750000000,2081.999511718750000 6605.716308593750000 1970.328125000000000" />
      <path id="332,372" d="M 6860.299804687500000 2698.337402343750000 C 6620.509765625000000,2753.263183593750000 6391.492187500000000,2092.615234375000000 6613.829101562500000 1987.342773437500000" />
      <path id="333,371" d="M 6856.041015625000000 2679.975097656250000 C 6628.235351562500000,2733.458496093750000 6409.817382812500000,2103.389648437500000 6621.849121093750000 2004.400878906250000" />
      <path id="334,370" d="M 6851.682617187500000 2661.635742187500000 C 6635.837890625000000,2713.548828125000000 6428.111816406250000,2114.321289062500000 6629.776367187500000 2021.501953125000000" />
      <path id="335,369" d="M 6847.225585937500000 2643.320800781250000 C 6643.317382812500000,2693.534667968750000 6446.374023437500000,2125.412109375000000 6637.611328125000000 2038.646484375000000" />
      <path id="336,368" d="M 6842.668457031250000 2625.030761718750000 C 6650.671875000000000,2673.417480468750000 6464.602050781250000,2136.660644531250000 6645.352539062500000 2055.832519531250000" />
      <path id="337,367" d="M 6838.012695312500000 2606.765136718750000 C 6657.901367187500000,2653.197265625000000 6482.794921875000000,2148.067871093750000 6653.000976562500000 2073.060546875000000" />
      <path id="338,366" d="M 6833.257324218750000 2588.525390625000000 C 6665.004394531250000,2632.875488281250000 6500.952148437500000,2159.633300781250000 6660.555175781250000 2090.330078125000000" />
      <path id="339,365" d="M 6828.403320312500000 2570.311523437500000 C 6671.980468750000000,2612.452636718750000 6519.072265625000000,2171.356445312500000 6668.015625000000000 2107.640136718750000" />
      <path id="340,364" d="M 6823.451171875000000 2552.124023437500000 C 6678.828613281250000,2591.928710937500000 6537.153320312500000,2183.238281250000000 6675.382812500000000 2124.991210937500000" />
      <path id="343,363" d="M 6808.001953125000000 2497.727539062500000 C 6687.079589843750000,2533.136230468750000 6566.279296875000000,2190.678222656250000 6682.655273437500000 2142.380859375000000" />
      <path id="344,362" d="M 6802.655761718750000 2479.651855468750000 C 6693.425292968750000,2512.281738281250000 6584.304687500000000,2202.936035156250000 6689.833007812500000 2159.810546875000000" />
      <path id="346,359" d="M 6791.669433593750000 2443.589355468750000 C 6711.449218750000000,2468.504394531250000 6632.533203125000000,2242.835449218750000 6710.797851562500000 2212.328613281250000" />
      <path id="347,358" d="M 6786.029296875000000 2425.603515625000000 C 6717.386718750000000,2447.331542968750000 6650.371093750000000,2255.693359375000000 6717.595703125000000 2229.909179687500000" />
      <path id="348,357" d="M 6780.292480468750000 2407.647949218750000 C 6723.188964843750000,2426.065429687500000 6668.162109375000000,2268.709960937500000 6724.298828125000000 2247.527343750000000" />
      <path id="349,356" d="M 6774.458007812500000 2389.724609375000000 C 6728.855468750000000,2404.706054687500000 6685.905273437500000,2281.883300781250000 6730.905273437500000 2265.181152343750000" />
      <path id="396,406" d="M 6394.196289062500000 1592.210937500000000 C 6338.717773437500000,1627.961425781250000 6234.386718750000000,1475.318359375000000 6287.845214843750000 1436.611328125000000" />
      <path id="397,405" d="M 6383.943359375000000 1576.394531250000000 C 6338.710937500000000,1605.891113281250000 6254.948730468750000,1483.340820312500000 6298.858398437500000 1451.909179687500000" />
      <path id="398,404" d="M 6373.604492187500000 1560.633300781250000 C 6338.548828125000000,1583.765625000000000 6275.503906250000000,1491.527343750000000 6309.788085937500000 1467.266601562500000" />
      <path id="412,443" d="M 6220.038085937500000 1346.101562500000000 C 6068.270507812500000,1463.705566406250000 5695.113281250000000,1057.767578125000000 5825.050781250000000 916.415527343750000" />
      <path id="413,442" d="M 6208.451660156250000 1331.233398437500000 C 6066.770507812500000,1442.257324218750000 5716.359375000000000,1061.064453125000000 5838.893066406250000 929.209960937500000" />
      <path id="414,441" d="M 6196.785156250000000 1316.427734375000000 C 6065.113281250000000,1420.766601562500000 5737.635742187500000,1064.520507812500000 5852.666015625000000 942.079101562500000" />
      <path id="422,434" d="M 6100.595703125000000 1200.308593750000000 C 6041.622070312500000,1251.358886718750000 5891.565917968750000,1089.006835937500000 5947.092773437500000 1034.228027343750000" />
      <path id="423,433" d="M 6088.220214843750000 1186.090820312500000 C 6038.554687500000000,1229.556640625000000 5913.059082031250000,1093.778320312500000 5960.294433593750000 1047.682617187500000" />
      <path id="424,432" d="M 6075.768554687500000 1171.940429687500000 C 6035.326171875000000,1207.723632812500000 5934.571777343750000,1098.713378906250000 5973.422851562500000 1061.208984375000000" />
      <path id="448,502" d="M 5754.808105468750000 853.582031250000000 C 5538.150878906250000,1102.499023437500000 4765.234863281250000,607.390625000000000 4900.765136718750000 306.505859375000000" />
      <path id="452,498" d="M 5697.403320312500000 804.701660156250000 C 5516.919921875000000,1021.380371093750000 4847.800781250000000,592.761230468750000 4969.169921875000000 338.215820312500000" />
      <path id="453,497" d="M 5682.886718750000000 792.676757812500000 C 5511.211914062500000,1001.069824218750000 4868.637207031250000,589.454589843750000 4986.162597656250000 346.375000000000000" />
      <path id="454,491" d="M 5668.306152343750000 780.731445312500000 C 5524.292968750000000,957.491210937500000 4981.291992187500000,599.180664062500000 5087.164550781250000 397.251953125000000" />
      <path id="455,490" d="M 5653.660156250000000 768.864257812500000 C 5518.137207031250000,937.059570312500000 5002.498046875000000,596.803710937500000 5103.834960937500000 406.050781250000000" />
      <path id="456,489" d="M 5638.950195312500000 757.078125000000000 C 5511.820312500000000,916.621093750000000 5023.773437500000000,594.572265625000000 5120.456542968750000 414.938476562500000" />
      <path id="457,488" d="M 5624.177246093750000 745.371582031250000 C 5505.341796875000000,896.176757812500000 5045.118652343750000,592.488281250000000 5137.030273437500000 423.916992187500000" />
      <path id="458,487" d="M 5609.340820312500000 733.745117187500000 C 5498.701171875000000,875.727539062500000 5066.531738281250000,590.550781250000000 5153.555175781250000 432.985351562500000" />
      <path id="459,486" d="M 5594.440429687500000 722.199218750000000 C 5491.897949218750000,855.274414062500000 5088.012207031250000,588.761230468750000 5170.030761718750000 442.143066406250000" />
      <path id="460,485" d="M 5579.478515625000000 710.734375000000000 C 5484.932128906250000,834.818847656250000 5109.558593750000000,587.120605468750000 5186.456542968750000 451.390625000000000" />
      <path id="461,484" d="M 5564.454101562500000 699.351074218750000 C 5477.803222656250000,814.362304687500000 5131.169921875000000,585.628906250000000 5202.831542968750000 460.726562500000000" />
      <path id="463,482" d="M 5534.221679687500000 676.829589843750000 C 5463.056640625000000,773.450195312500000 5174.583984375000000,583.095703125000000 5235.428222656250000 479.664062500000000" />
      <path id="464,481" d="M 5519.014648437500000 665.692382812500000 C 5455.439453125000000,752.997558593750000 5196.385253906250000,582.055175781250000 5251.648925781250000 489.265625000000000" />
      <path id="1097,1141" d="M 2327.247070312500000 6753.273437500000000 C 2416.373046875000000,6498.407226562500000 3161.575195312500000,6662.730957031250000 3135.247070312500000 6931.444335937500000" />
      <path id="1098,1140" d="M 2345.057128906250000 6759.447265625000000 C 2428.898925781250000,6515.450195312500000 3143.042968750000000,6672.925781250000000 3116.492431640625000 6929.555664062500000" />
      <path id="1099,1139" d="M 2362.898437500000000 6765.523925781250000 C 2441.577636718750000,6532.445312500000000 3124.391113281250000,6683.011718750000000 3097.748046875000000 6927.564453125000000" />
      <path id="1106,1131" d="M 2488.686767578125000 6805.340820312500000 C 2532.932373046875000,6655.747070312500000 2971.850097656250000,6753.782226562500000 2948.240722656250000 6907.985351562500000" />
      <path id="1107,1130" d="M 2506.776855468750000 6810.638183593750000 C 2546.869140625000000,6672.332031250000000 2952.181152343750000,6762.860351562500000 2929.616210937500000 6905.082031250000000" />
      <path id="1108,1129" d="M 2524.895507812500000 6815.837402343750000 C 2560.958007812500000,6688.859375000000000 2932.399169921875000,6771.822265625000000 2911.007324218750000 6902.077148437500000" />
      <path id="1109,1128" d="M 2543.041992187500000 6820.937500000000000 C 2575.199218750000000,6705.326660156250000 2912.504638671875000,6780.666015625000000 2892.415283203125000 6898.972167968750000" />
      <path id="1112,1123" d="M 2597.641845703125000 6835.647460937500000 C 2615.804687500000000,6765.976074218750000 2813.698730468750000,6811.305664062500000 2799.724121093750000 6881.936035156250000" />
      <path id="1113,1122" d="M 2615.894775390625000 6840.353027343750000 C 2630.715332031250000,6782.211914062500000 2793.207519531250000,6819.432617187500000 2781.242675781250000 6878.227539062500000" />
      <path id="1114,1121" d="M 2634.172851562500000 6844.958984375000000 C 2645.776855468750000,6798.382812500000000 2772.608886718750000,6827.434570312500000 2762.781982421875000 6874.417968750000000" />
    </g>
    <g style="font-family: SansSerif" transform="translate(-4.6, 4)" id="seq">
      <text x="3474.000" y="6948.000">_</text>
      <text x="3492.849" y="6947.949">_</text>
      <text x="3511.698" y="6947.795">U</text>
      <text x="3530.546" y="6947.540">C</text>
      <text x="3549.392" y="6947.182">U</text>
      <text x="3568.236" y="6946.722">U</text>
      <text x="3587.077" y="6946.159">A</text>
      <text x="3605.915" y="6945.494">A</text>
      <text x="3624.749" y="6944.728">A</text>
      <text x="3643.579" y="6943.858">A</text>
      <text x="3662.403" y="6942.888">U</text>
      <text x="3681.222" y="6941.814">G</text>
      <text x="3700.035" y="6940.639">U</text>
      <text x="3718.841" y="6939.361">C</text>
      <text x="3737.640" y="6937.981">G</text>
      <text x="3756.431" y="6936.500">C</text>
      <text x="3775.214" y="6934.917">U</text>
      <text x="3793.988" y="6933.231">G</text>
      <text x="3812.753" y="6931.444">U</text>
      <text x="3831.508" y="6929.556">U</text>
      <text x="3850.252" y="6927.565">U</text>
      <text x="3868.985" y="6925.473">G</text>
      <text x="3887.706" y="6923.279">G</text>
      <text x="3906.415" y="6920.983">A</text>
      <text x="3925.112" y="6918.586">G</text>
      <text x="3943.795" y="6916.088">A</text>
      <text x="3962.464" y="6913.488">C</text>
      <text x="3981.120" y="6910.787">A</text>
      <text x="3999.760" y="6907.985">C</text>
      <text x="4018.384" y="6905.082">A</text>
      <text x="4036.993" y="6902.077">A</text>
      <text x="4055.585" y="6898.972">U</text>
      <text x="4074.160" y="6895.766">U</text>
      <text x="4092.717" y="6892.459">G</text>
      <text x="4111.256" y="6889.052">C</text>
      <text x="4129.776" y="6885.544">C</text>
      <text x="4148.277" y="6881.936">U</text>
      <text x="4166.758" y="6878.227">A</text>
      <text x="4185.219" y="6874.418">C</text>
      <text x="4203.659" y="6870.509">C</text>
      <text x="4222.077" y="6866.500">U</text>
      <text x="4240.473" y="6862.392">G</text>
      <text x="4258.847" y="6858.183">C</text>
      <text x="4277.197" y="6853.874">U</text>
      <text x="4295.524" y="6849.467">U</text>
      <text x="4313.827" y="6844.959">U</text>
      <text x="4332.105" y="6840.353">C</text>
      <text x="4350.358" y="6835.647">A</text>
      <text x="4368.585" y="6830.843">U</text>
      <text x="4386.785" y="6825.939">U</text>
      <text x="4404.959" y="6820.938">A</text>
      <text x="4423.105" y="6815.837">A</text>
      <text x="4441.224" y="6810.638">C</text>
      <text x="4459.313" y="6805.341">A</text>
      <text x="4477.375" y="6799.946">G</text>
      <text x="4495.406" y="6794.453">A</text>
      <text x="4513.407" y="6788.862">A</text>
      <text x="4531.378" y="6783.173">G</text>
      <text x="4549.317" y="6777.387">A</text>
      <text x="4567.226" y="6771.504">U</text>
      <text x="4585.101" y="6765.524">G</text>
      <text x="4602.944" y="6759.447">G</text>
      <text x="4620.754" y="6753.273">A</text>
      <text x="4638.530" y="6747.003">G</text>
      <text x="4656.271" y="6740.636">A</text>
      <text x="4673.979" y="6734.173">A</text>
      <text x="4691.650" y="6727.614">G</text>
      <text x="4709.286" y="6720.959">G</text>
      <text x="4726.886" y="6714.209">C</text>
      <text x="4744.448" y="6707.363">A</text>
      <text x="4761.973" y="6700.422">A</text>
      <text x="4779.460" y="6693.387">A</text>
      <text x="4796.909" y="6686.256">G</text>
      <text x="4814.319" y="6679.031">C</text>
      <text x="4831.689" y="6671.711">A</text>
      <text x="4849.020" y="6664.297">G</text>
      <text x="4866.310" y="6656.790">A</text>
      <text x="4883.558" y="6649.188">A</text>
      <text x="4900.766" y="6641.493">C</text>
      <text x="4917.931" y="6633.706">U</text>
      <text x="4935.054" y="6625.824">A</text>
      <text x="4952.134" y="6617.851">G</text>
      <text x="4969.170" y="6609.784">C</text>
      <text x="4986.163" y="6601.625">A</text>
      <text x="5003.110" y="6593.375">G</text>
      <text x="5020.013" y="6585.032">A</text>
      <text x="5036.871" y="6576.598">A</text>
      <text x="5053.682" y="6568.072">A</text>
      <text x="5070.446" y="6559.455">A</text>
      <text x="5087.164" y="6550.748">A</text>
      <text x="5103.834" y="6541.949">U</text>
      <text x="5120.457" y="6533.062">U</text>
      <text x="5137.031" y="6524.083">A</text>
      <text x="5153.556" y="6515.015">C</text>
      <text x="5170.031" y="6505.856">A</text>
      <text x="5186.457" y="6496.609">C</text>
      <text x="5202.832" y="6487.273">U</text>
      <text x="5219.156" y="6477.849">G</text>
      <text x="5235.429" y="6468.335">U</text>
      <text x="5251.649" y="6458.734">U</text>
      <text x="5267.818" y="6449.045">G</text>
      <text x="5283.934" y="6439.268">G</text>
      <text x="5299.996" y="6429.404">U</text>
      <text x="5316.005" y="6419.453">U</text>
      <text x="5331.959" y="6409.415">C</text>
      <text x="5347.859" y="6399.291">G</text>
      <text x="5363.704" y="6389.081">G</text>
      <text x="5379.493" y="6378.784">U</text>
      <text x="5395.226" y="6368.402">G</text>
      <text x="5410.902" y="6357.936">G</text>
      <text x="5426.522" y="6347.384">G</text>
      <text x="5442.083" y="6336.748">A</text>
      <text x="5457.588" y="6326.026">A</text>
      <text x="5473.033" y="6315.222">A</text>
      <text x="5488.420" y="6304.334">G</text>
      <text x="5503.747" y="6293.362">A</text>
      <text x="5519.015" y="6282.308">A</text>
      <text x="5534.222" y="6271.170">U</text>
      <text x="5549.369" y="6259.950">U</text>
      <text x="5564.455" y="6248.649">U</text>
      <text x="5579.479" y="6237.266">G</text>
      <text x="5594.440" y="6225.801">A</text>
      <text x="5609.341" y="6214.255">C</text>
      <text x="5624.177" y="6202.629">C</text>
      <text x="5638.951" y="6190.922">U</text>
      <text x="5653.661" y="6179.135">A</text>
      <text x="5668.306" y="6167.269">G</text>
      <text x="5682.887" y="6155.323">A</text>
      <text x="5697.403" y="6143.298">C</text>
      <text x="5711.854" y="6131.195">U</text>
      <text x="5726.238" y="6119.014">C</text>
      <text x="5740.557" y="6106.754">U</text>
      <text x="5754.809" y="6094.418">G</text>
      <text x="5768.993" y="6082.004">C</text>
      <text x="5783.109" y="6069.513">C</text>
      <text x="5797.158" y="6056.946">U</text>
      <text x="5811.139" y="6044.303">U</text>
      <text x="5825.051" y="6031.584">G</text>
      <text x="5838.894" y="6018.790">G</text>
      <text x="5852.666" y="6005.921">A</text>
      <text x="5866.369" y="5992.978">A</text>
      <text x="5880.001" y="5979.959">U</text>
      <text x="5893.563" y="5966.868">G</text>
      <text x="5907.054" y="5953.703">G</text>
      <text x="5920.472" y="5940.465">A</text>
      <text x="5933.819" y="5927.154">U</text>
      <text x="5947.093" y="5913.771">A</text>
      <text x="5960.295" y="5900.317">A</text>
      <text x="5973.423" y="5886.791">A</text>
      <text x="5986.478" y="5873.194">A</text>
      <text x="5999.458" y="5859.526">A</text>
      <text x="6012.365" y="5845.789">A</text>
      <text x="6025.196" y="5831.980">C</text>
      <text x="6037.953" y="5818.104">A</text>
      <text x="6050.634" y="5804.157">A</text>
      <text x="6063.239" y="5790.143">A</text>
      <text x="6075.768" y="5776.060">A</text>
      <text x="6088.221" y="5761.909">G</text>
      <text x="6100.596" y="5747.690">A</text>
      <text x="6112.894" y="5733.406">U</text>
      <text x="6125.114" y="5719.054">G</text>
      <text x="6137.257" y="5704.637">C</text>
      <text x="6149.321" y="5690.153">U</text>
      <text x="6161.306" y="5675.604">U</text>
      <text x="6173.212" y="5660.991">A</text>
      <text x="6185.039" y="5646.313">A</text>
      <text x="6196.785" y="5631.572">C</text>
      <text x="6208.452" y="5616.767">U</text>
      <text x="6220.038" y="5601.898">G</text>
      <text x="6231.543" y="5586.967">A</text>
      <text x="6242.968" y="5571.974">U</text>
      <text x="6254.310" y="5556.919">A</text>
      <text x="6265.570" y="5541.803">U</text>
      <text x="6276.749" y="5526.626">A</text>
      <text x="6287.845" y="5511.388">C</text>
      <text x="6298.858" y="5496.091">A</text>
      <text x="6309.788" y="5480.734">G</text>
      <text x="6320.635" y="5465.317">A</text>
      <text x="6331.397" y="5449.843">A</text>
      <text x="6342.076" y="5434.310">A</text>
      <text x="6352.670" y="5418.719">G</text>
      <text x="6363.180" y="5403.071">C</text>
      <text x="6373.604" y="5387.366">A</text>
      <text x="6383.943" y="5371.605">C</text>
      <text x="6394.196" y="5355.789">U</text>
      <text x="6404.364" y="5339.917">A</text>
      <text x="6414.445" y="5323.989">A</text>
      <text x="6424.439" y="5308.007">U</text>
      <text x="6434.347" y="5291.972">U</text>
      <text x="6444.167" y="5275.883">G</text>
      <text x="6453.900" y="5259.740">G</text>
      <text x="6463.546" y="5243.545">U</text>
      <text x="6473.104" y="5227.299">G</text>
      <text x="6482.572" y="5211.000">C</text>
      <text x="6491.953" y="5194.650">C</text>
      <text x="6501.244" y="5178.250">U</text>
      <text x="6510.447" y="5161.799">C</text>
      <text x="6519.560" y="5145.299">U</text>
      <text x="6528.583" y="5128.750">A</text>
      <text x="6537.517" y="5112.152">U</text>
      <text x="6546.360" y="5095.505">C</text>
      <text x="6555.113" y="5078.811">U</text>
      <text x="6563.775" y="5062.070">G</text>
      <text x="6572.346" y="5045.282">C</text>
      <text x="6580.826" y="5028.447">U</text>
      <text x="6589.215" y="5011.567">U</text>
      <text x="6597.512" y="4994.642">U</text>
      <text x="6605.716" y="4977.672">U</text>
      <text x="6613.829" y="4960.658">U</text>
      <text x="6621.849" y="4943.599">A</text>
      <text x="6629.776" y="4926.498">A</text>
      <text x="6637.611" y="4909.354">A</text>
      <text x="6645.353" y="4892.167">A</text>
      <text x="6653.001" y="4874.939">C</text>
      <text x="6660.556" y="4857.669">C</text>
      <text x="6668.016" y="4840.359">C</text>
      <text x="6675.383" y="4823.009">A</text>
      <text x="6682.655" y="4805.619">A</text>
      <text x="6689.833" y="4788.189">A</text>
      <text x="6696.916" y="4770.721">G</text>
      <text x="6703.905" y="4753.215">A</text>
      <text x="6710.798" y="4735.671">C</text>
      <text x="6717.596" y="4718.090">C</text>
      <text x="6724.299" y="4700.473">A</text>
      <text x="6730.905" y="4682.819">G</text>
      <text x="6737.416" y="4665.130">G</text>
      <text x="6743.831" y="4647.405">A</text>
      <text x="6750.150" y="4629.646">A</text>
      <text x="6756.372" y="4611.854">A</text>
      <text x="6762.498" y="4594.027">G</text>
      <text x="6768.526" y="4576.167">A</text>
      <text x="6774.458" y="4558.275">A</text>
      <text x="6780.292" y="4540.352">A</text>
      <text x="6786.029" y="4522.396">A</text>
      <text x="6791.669" y="4504.410">A</text>
      <text x="6797.211" y="4486.394">G</text>
      <text x="6802.656" y="4468.348">A</text>
      <text x="6808.002" y="4450.272">A</text>
      <text x="6813.250" y="4432.168">G</text>
      <text x="6818.399" y="4414.036">A</text>
      <text x="6823.451" y="4395.875">U</text>
      <text x="6828.404" y="4377.688">U</text>
      <text x="6833.258" y="4359.475">C</text>
      <text x="6838.013" y="4341.234">A</text>
      <text x="6842.668" y="4322.969">U</text>
      <text x="6847.226" y="4304.679">C</text>
      <text x="6851.683" y="4286.364">A</text>
      <text x="6856.041" y="4268.024">C</text>
      <text x="6860.299" y="4249.663">A</text>
      <text x="6864.458" y="4231.277">G</text>
      <text x="6868.517" y="4212.870">A</text>
      <text x="6872.477" y="4194.441">G</text>
      <text x="6876.335" y="4175.991">C</text>
      <text x="6880.094" y="4157.520">C</text>
      <text x="6883.753" y="4139.029">C</text>
      <text x="6887.311" y="4120.519">U</text>
      <text x="6890.769" y="4101.988">U</text>
      <text x="6894.125" y="4083.440">A</text>
      <text x="6897.382" y="4064.875">U</text>
      <text x="6900.537" y="4046.291">C</text>
      <text x="6903.592" y="4027.690">G</text>
      <text x="6906.546" y="4009.074">G</text>
      <text x="6909.398" y="3990.441">G</text>
      <text x="6912.150" y="3971.794">A</text>
      <text x="6914.801" y="3953.131">A</text>
      <text x="6917.350" y="3934.455">U</text>
      <text x="6919.797" y="3915.765">G</text>
      <text x="6922.144" y="3897.062">G</text>
      <text x="6924.389" y="3878.347">G</text>
      <text x="6926.531" y="3859.620">A</text>
      <text x="6928.573" y="3840.881">A</text>
      <text x="6930.513" y="3822.132">C</text>
      <text x="6932.351" y="3803.372">A</text>
      <text x="6934.087" y="3784.602">A</text>
      <text x="6935.722" y="3765.823">C</text>
      <text x="6937.254" y="3747.037">A</text>
      <text x="6938.685" y="3728.241">G</text>
      <text x="6940.013" y="3709.439">C</text>
      <text x="6941.239" y="3690.629">A</text>
      <text x="6942.364" y="3671.813">A</text>
      <text x="6943.386" y="3652.991">C</text>
      <text x="6944.306" y="3634.165">A</text>
      <text x="6945.124" y="3615.333">A</text>
      <text x="6945.840" y="3596.497">A</text>
      <text x="6946.453" y="3577.657">A</text>
      <text x="6946.964" y="3558.814">A</text>
      <text x="6947.374" y="3539.969">A</text>
      <text x="6947.681" y="3521.122">G</text>
      <text x="6947.885" y="3502.274">A</text>
      <text x="6947.987" y="3483.425">A</text>
      <text x="6947.987" y="3464.575">G</text>
      <text x="6947.885" y="3445.726">G</text>
      <text x="6947.680" y="3426.877">G</text>
      <text x="6947.374" y="3408.030">C</text>
      <text x="6946.964" y="3389.185">C</text>
      <text x="6946.453" y="3370.343">U</text>
      <text x="6945.840" y="3351.503">G</text>
      <text x="6945.124" y="3332.667">A</text>
      <text x="6944.306" y="3313.836">U</text>
      <text x="6943.386" y="3295.008">U</text>
      <text x="6942.364" y="3276.187">C</text>
      <text x="6941.239" y="3257.371">U</text>
      <text x="6940.013" y="3238.561">G</text>
      <text x="6938.685" y="3219.758">G</text>
      <text x="6937.254" y="3200.963">C</text>
      <text x="6935.722" y="3182.176">U</text>
      <text x="6934.087" y="3163.397">G</text>
      <text x="6932.351" y="3144.628">A</text>
      <text x="6930.513" y="3125.869">G</text>
      <text x="6928.573" y="3107.119">A</text>
      <text x="6926.531" y="3088.380">G</text>
      <text x="6924.389" y="3069.653">A</text>
      <text x="6922.144" y="3050.938">A</text>
      <text x="6919.797" y="3032.235">A</text>
      <text x="6917.350" y="3013.544">A</text>
      <text x="6914.801" y="2994.868">A</text>
      <text x="6912.150" y="2976.206">U</text>
      <text x="6909.398" y="2957.558">G</text>
      <text x="6906.546" y="2938.926">A</text>
      <text x="6903.592" y="2920.309">G</text>
      <text x="6900.537" y="2901.709">A</text>
      <text x="6897.382" y="2883.126">A</text>
      <text x="6894.125" y="2864.560">A</text>
      <text x="6890.769" y="2846.011">A</text>
      <text x="6887.311" y="2827.481">U</text>
      <text x="6883.753" y="2808.971">G</text>
      <text x="6880.094" y="2790.479">U</text>
      <text x="6876.335" y="2772.009">G</text>
      <text x="6872.477" y="2753.559">U</text>
      <text x="6868.517" y="2735.129">G</text>
      <text x="6864.458" y="2716.722">A</text>
      <text x="6860.300" y="2698.337">G</text>
      <text x="6856.041" y="2679.975">C</text>
      <text x="6851.683" y="2661.636">U</text>
      <text x="6847.226" y="2643.321">U</text>
      <text x="6842.668" y="2625.031">U</text>
      <text x="6838.013" y="2606.765">C</text>
      <text x="6833.257" y="2588.525">A</text>
      <text x="6828.403" y="2570.312">U</text>
      <text x="6823.451" y="2552.124">G</text>
      <text x="6818.399" y="2533.964">A</text>
      <text x="6813.250" y="2515.832">A</text>
      <text x="6808.002" y="2497.728">G</text>
      <text x="6802.656" y="2479.652">C</text>
      <text x="6797.211" y="2461.605">A</text>
      <text x="6791.669" y="2443.589">U</text>
      <text x="6786.029" y="2425.604">U</text>
      <text x="6780.292" y="2407.648">U</text>
      <text x="6774.458" y="2389.725">G</text>
      <text x="6768.526" y="2371.833">A</text>
      <text x="6762.497" y="2353.973">A</text>
      <text x="6756.372" y="2336.146">A</text>
      <text x="6750.150" y="2318.354">U</text>
      <text x="6743.831" y="2300.595">A</text>
      <text x="6737.416" y="2282.870">G</text>
      <text x="6730.905" y="2265.181">C</text>
      <text x="6724.299" y="2247.527">A</text>
      <text x="6717.596" y="2229.909">G</text>
      <text x="6710.798" y="2212.329">A</text>
      <text x="6703.904" y="2194.785">A</text>
      <text x="6696.916" y="2177.278">G</text>
      <text x="6689.833" y="2159.811">G</text>
      <text x="6682.655" y="2142.381">C</text>
      <text x="6675.383" y="2124.991">C</text>
      <text x="6668.016" y="2107.640">A</text>
      <text x="6660.555" y="2090.330">U</text>
      <text x="6653.001" y="2073.061">G</text>
      <text x="6645.353" y="2055.833">A</text>
      <text x="6637.611" y="2038.646">A</text>
      <text x="6629.776" y="2021.502">A</text>
      <text x="6621.849" y="2004.401">G</text>
      <text x="6613.829" y="1987.343">C</text>
      <text x="6605.716" y="1970.328">U</text>
      <text x="6597.511" y="1953.357">C</text>
      <text x="6589.215" y="1936.432">A</text>
      <text x="6580.826" y="1919.552">G</text>
      <text x="6572.346" y="1902.718">C</text>
      <text x="6563.775" y="1885.930">G</text>
      <text x="6555.113" y="1869.188">C</text>
      <text x="6546.360" y="1852.495">U</text>
      <text x="6537.517" y="1835.848">A</text>
      <text x="6528.583" y="1819.250">C</text>
      <text x="6519.560" y="1802.700">U</text>
      <text x="6510.447" y="1786.201">A</text>
      <text x="6501.244" y="1769.750">U</text>
      <text x="6491.953" y="1753.350">A</text>
      <text x="6482.572" y="1737.000">U</text>
      <text x="6473.103" y="1720.701">U</text>
      <text x="6463.546" y="1704.454">G</text>
      <text x="6453.900" y="1688.260">U</text>
      <text x="6444.167" y="1672.118">C</text>
      <text x="6434.347" y="1656.028">U</text>
      <text x="6424.439" y="1639.992">C</text>
      <text x="6414.445" y="1624.011">A</text>
      <text x="6404.363" y="1608.083">U</text>
      <text x="6394.196" y="1592.211">G</text>
      <text x="6383.943" y="1576.395">G</text>
      <text x="6373.604" y="1560.633">U</text>
      <text x="6363.180" y="1544.929">C</text>
      <text x="6352.670" y="1529.281">A</text>
      <text x="6342.076" y="1513.690">U</text>
      <text x="6331.397" y="1498.157">G</text>
      <text x="6320.635" y="1482.682">U</text>
      <text x="6309.788" y="1467.267">A</text>
      <text x="6298.858" y="1451.909">C</text>
      <text x="6287.845" y="1436.611">C</text>
      <text x="6276.749" y="1421.374">U</text>
      <text x="6265.570" y="1406.197">G</text>
      <text x="6254.310" y="1391.080">A</text>
      <text x="6242.968" y="1376.026">A</text>
      <text x="6231.543" y="1361.033">U</text>
      <text x="6220.038" y="1346.102">C</text>
      <text x="6208.452" y="1331.233">C</text>
      <text x="6196.785" y="1316.428">U</text>
      <text x="6185.038" y="1301.686">G</text>
      <text x="6173.211" y="1287.008">G</text>
      <text x="6161.306" y="1272.396">A</text>
      <text x="6149.320" y="1257.847">A</text>
      <text x="6137.257" y="1243.363">A</text>
      <text x="6125.114" y="1228.945">U</text>
      <text x="6112.894" y="1214.594">U</text>
      <text x="6100.596" y="1200.309">A</text>
      <text x="6088.220" y="1186.091">U</text>
      <text x="6075.769" y="1171.940">U</text>
      <text x="6063.239" y="1157.857">C</text>
      <text x="6050.634" y="1143.843">A</text>
      <text x="6037.953" y="1129.896">A</text>
      <text x="6025.196" y="1116.019">U</text>
      <text x="6012.364" y="1102.211">G</text>
      <text x="5999.458" y="1088.474">C</text>
      <text x="5986.478" y="1074.806">A</text>
      <text x="5973.423" y="1061.209">A</text>
      <text x="5960.294" y="1047.683">G</text>
      <text x="5947.093" y="1034.228">U</text>
      <text x="5933.818" y="1020.845">A</text>
      <text x="5920.472" y="1007.535">A</text>
      <text x="5907.054" y="994.297">A</text>
      <text x="5893.563" y="981.132">A</text>
      <text x="5880.001" y="968.040">C</text>
      <text x="5866.369" y="955.022">U</text>
      <text x="5852.666" y="942.079">A</text>
      <text x="5838.893" y="929.210">G</text>
      <text x="5825.051" y="916.416">G</text>
      <text x="5811.140" y="903.697">A</text>
      <text x="5797.158" y="891.054">A</text>
      <text x="5783.109" y="878.487">C</text>
      <text x="5768.992" y="865.996">A</text>
      <text x="5754.808" y="853.582">C</text>
      <text x="5740.557" y="841.245">U</text>
      <text x="5726.238" y="828.986">C</text>
      <text x="5711.854" y="816.805">U</text>
      <text x="5697.403" y="804.702">G</text>
      <text x="5682.887" y="792.677">U</text>
      <text x="5668.306" y="780.731">G</text>
      <text x="5653.660" y="768.864">C</text>
      <text x="5638.950" y="757.078">U</text>
      <text x="5624.177" y="745.372">U</text>
      <text x="5609.341" y="733.745">U</text>
      <text x="5594.440" y="722.199">G</text>
      <text x="5579.479" y="710.734">U</text>
      <text x="5564.454" y="699.351">G</text>
      <text x="5549.368" y="688.049">C</text>
      <text x="5534.222" y="676.830">G</text>
      <text x="5519.015" y="665.692">A</text>
      <text x="5503.747" y="654.638">A</text>
      <text x="5488.420" y="643.666">A</text>
      <text x="5473.033" y="632.778">A</text>
      <text x="5457.587" y="621.973">A</text>
      <text x="5442.083" y="611.252">C</text>
      <text x="5426.522" y="600.616">A</text>
      <text x="5410.902" y="590.064">A</text>
      <text x="5395.226" y="579.598">G</text>
      <text x="5379.493" y="569.216">C</text>
      <text x="5363.704" y="558.919">A</text>
      <text x="5347.859" y="548.709">U</text>
      <text x="5331.959" y="538.585">C</text>
      <text x="5316.005" y="528.547">A</text>
      <text x="5299.996" y="518.596">C</text>
      <text x="5283.934" y="508.732">A</text>
      <text x="5267.818" y="498.955">U</text>
      <text x="5251.649" y="489.266">U</text>
      <text x="5235.428" y="479.664">C</text>
      <text x="5219.155" y="470.151">A</text>
      <text x="5202.832" y="460.727">C</text>
      <text x="5186.457" y="451.391">A</text>
      <text x="5170.031" y="442.143">C</text>
      <text x="5153.555" y="432.985">A</text>
      <text x="5137.030" y="423.917">G</text>
      <text x="5120.457" y="414.938">A</text>
      <text x="5103.835" y="406.051">G</text>
      <text x="5087.165" y="397.252">C</text>
      <text x="5070.446" y="388.545">U</text>
      <text x="5053.682" y="379.928">C</text>
      <text x="5036.870" y="371.402">A</text>
      <text x="5020.013" y="362.968">U</text>
      <text x="5003.110" y="354.625">A</text>
      <text x="4986.163" y="346.375">G</text>
      <text x="4969.170" y="338.216">C</text>
      <text x="4952.134" y="330.149">A</text>
      <text x="4935.054" y="322.176">G</text>
      <text x="4917.931" y="314.294">A</text>
      <text x="4900.765" y="306.506">G</text>
      <text x="4883.558" y="298.812">C</text>
      <text x="4866.310" y="291.210">A</text>
      <text x="4849.020" y="283.703">G</text>
      <text x="4831.689" y="276.289">C</text>
      <text x="4814.318" y="268.969">G</text>
      <text x="4796.909" y="261.744">A</text>
      <text x="4779.460" y="254.613">G</text>
      <text x="4761.973" y="247.578">A</text>
      <text x="4744.448" y="240.637">U</text>
      <text x="4726.885" y="233.791">C</text>
      <text x="4709.286" y="227.041">C</text>
      <text x="4691.650" y="220.386">U</text>
      <text x="4673.979" y="213.827">C</text>
      <text x="4656.271" y="207.364">A</text>
      <text x="4638.530" y="200.997">G</text>
      <text x="4620.754" y="194.727">U</text>
      <text x="4602.944" y="188.553">G</text>
      <text x="4585.101" y="182.476">C</text>
      <text x="4567.225" y="176.496">C</text>
      <text x="4549.317" y="170.612">A</text>
      <text x="4531.378" y="164.827">G</text>
      <text x="4513.407" y="159.138">G</text>
      <text x="4495.406" y="153.547">A</text>
      <text x="4477.375" y="148.054">G</text>
      <text x="4459.313" y="142.659">U</text>
      <text x="4441.224" y="137.362">G</text>
      <text x="4423.105" y="132.163">A</text>
      <text x="4404.959" y="127.062">G</text>
      <text x="4386.785" y="122.061">A</text>
      <text x="4368.584" y="117.157">C</text>
      <text x="4350.357" y="112.353">G</text>
      <text x="4332.104" y="107.647">G</text>
      <text x="4313.827" y="103.041">G</text>
      <text x="4295.523" y="98.533">A</text>
      <text x="4277.197" y="94.126">A</text>
      <text x="4258.847" y="89.817">A</text>
      <text x="4240.473" y="85.608">U</text>
      <text x="4222.077" y="81.500">G</text>
      <text x="4203.658" y="77.491">C</text>
      <text x="4185.218" y="73.582">A</text>
      <text x="4166.758" y="69.773">G</text>
      <text x="4148.277" y="66.064">A</text>
      <text x="4129.776" y="62.456">U</text>
      <text x="4111.256" y="58.948">G</text>
      <text x="4092.717" y="55.541">G</text>
      <text x="4074.159" y="52.233">U</text>
      <text x="4055.584" y="49.027">C</text>
      <text x="4036.993" y="45.923">U</text>
      <text x="4018.384" y="42.918">C</text>
      <text x="3999.760" y="40.015">A</text>
      <text x="3981.119" y="37.213">G</text>
      <text x="3962.464" y="34.512">C</text>
      <text x="3943.795" y="31.912">U</text>
      <text x="3925.111" y="29.414">A</text>
      <text x="3906.416" y="27.017">U</text>
      <text x="3887.706" y="24.721">G</text>
      <text x="3868.985" y="22.527">A</text>
      <text x="3850.251" y="20.435">A</text>
      <text x="3831.507" y="18.444">C</text>
      <text x="3812.752" y="16.556">A</text>
      <text x="3793.988" y="14.769">C</text>
      <text x="3775.214" y="13.083">A</text>
      <text x="3756.431" y="11.500">G</text>
      <text x="3737.640" y="10.018">C</text>
      <text x="3718.841" y="8.639">A</text>
      <text x="3700.034" y="7.361">A</text>
      <text x="3681.221" y="6.186">A</text>
      <text x="3662.403" y="5.112">A</text>
      <text x="3643.579" y="4.142">A</text>
      <text x="3624.749" y="3.272">C</text>
      <text x="3605.915" y="2.506">A</text>
      <text x="3587.077" y="1.841">A</text>
      <text x="3568.236" y="1.278">U</text>
      <text x="3549.392" y="0.818">G</text>
      <text x="3530.546" y="0.460">A</text>
      <text x="3511.698" y="0.205">A</text>
      <text x="3492.849" y="0.051">U</text>
      <text x="3474.000" y="0.000">G</text>
      <text x="3455.150" y="0.051">G</text>
      <text x="3436.301" y="0.205">A</text>
      <text x="3417.454" y="0.460">A</text>
      <text x="3398.608" y="0.818">U</text>
      <text x="3379.764" y="1.278">G</text>
      <text x="3360.922" y="1.841">G</text>
      <text x="3342.084" y="2.506">G</text>
      <text x="3323.250" y="3.272">A</text>
      <text x="3304.421" y="4.142">A</text>
      <text x="3285.597" y="5.112">A</text>
      <text x="3266.778" y="6.186">A</text>
      <text x="3247.965" y="7.361">G</text>
      <text x="3229.159" y="8.639">G</text>
      <text x="3210.360" y="10.019">A</text>
      <text x="3191.568" y="11.500">G</text>
      <text x="3172.785" y="13.083">A</text>
      <text x="3154.012" y="14.769">A</text>
      <text x="3135.247" y="16.556">G</text>
      <text x="3116.492" y="18.444">A</text>
      <text x="3097.748" y="20.436">C</text>
      <text x="3079.015" y="22.527">G</text>
      <text x="3060.293" y="24.722">U</text>
      <text x="3041.585" y="27.017">C</text>
      <text x="3022.888" y="29.414">C</text>
      <text x="3004.205" y="31.912">A</text>
      <text x="2985.535" y="34.512">A</text>
      <text x="2966.880" y="37.213">A</text>
      <text x="2948.240" y="40.015">A</text>
      <text x="2929.615" y="42.918">A</text>
      <text x="2911.007" y="45.923">C</text>
      <text x="2892.415" y="49.028">U</text>
      <text x="2873.840" y="52.234">G</text>
      <text x="2855.283" y="55.541">G</text>
      <text x="2836.744" y="58.948">C</text>
      <text x="2818.223" y="62.456">A</text>
      <text x="2799.722" y="66.064">G</text>
      <text x="2781.242" y="69.773">A</text>
      <text x="2762.781" y="73.582">A</text>
      <text x="2744.341" y="77.491">G</text>
      <text x="2725.923" y="81.500">A</text>
      <text x="2707.526" y="85.609">A</text>
      <text x="2689.153" y="89.817">U</text>
      <text x="2670.803" y="94.126">G</text>
      <text x="2652.476" y="98.533">C</text>
      <text x="2634.173" y="103.041">A</text>
      <text x="2615.895" y="107.647">A</text>
      <text x="2597.642" y="112.353">A</text>
      <text x="2579.415" y="117.157">G</text>
      <text x="2561.214" y="122.061">C</text>
      <text x="2543.041" y="127.062">A</text>
      <text x="2524.895" y="132.163">A</text>
      <text x="2506.776" y="137.362">C</text>
      <text x="2488.686" y="142.659">A</text>
      <text x="2470.625" y="148.055">U</text>
      <text x="2452.594" y="153.548">U</text>
      <text x="2434.592" y="159.139">G</text>
      <text x="2416.622" y="164.827">G</text>
      <text x="2398.682" y="170.613">A</text>
      <text x="2380.774" y="176.496">G</text>
      <text x="2362.898" y="182.476">U</text>
      <text x="2345.055" y="188.553">A</text>
      <text x="2327.246" y="194.728">U</text>
      <text x="2309.470" y="200.997">U</text>
      <text x="2291.728" y="207.364">G</text>
      <text x="2274.021" y="213.827">A</text>
      <text x="2256.350" y="220.386">G</text>
      <text x="2238.713" y="227.041">A</text>
      <text x="2221.114" y="233.791">U</text>
      <text x="2203.551" y="240.637">C</text>
      <text x="2186.027" y="247.578">C</text>
      <text x="2168.540" y="254.613">C</text>
      <text x="2151.091" y="261.744">U</text>
      <text x="2133.681" y="268.970">U</text>
      <text x="2116.311" y="276.289">G</text>
      <text x="2098.980" y="283.703">G</text>
      <text x="2081.691" y="291.210">G</text>
      <text x="2064.442" y="298.812">G</text>
      <text x="2047.234" y="306.507">C</text>
      <text x="2030.069" y="314.294">A</text>
      <text x="2012.946" y="322.176">A</text>
      <text x="1995.866" y="330.149">G</text>
      <text x="1978.829" y="338.216">U</text>
      <text x="1961.838" y="346.375">C</text>
      <text x="1944.890" y="354.625">A</text>
      <text x="1927.987" y="362.968">G</text>
      <text x="1911.129" y="371.402">A</text>
      <text x="1894.318" y="379.928">A</text>
      <text x="1877.553" y="388.545">G</text>
      <text x="1860.835" y="397.253">A</text>
      <text x="1844.166" y="406.050">A</text>
      <text x="1827.543" y="414.938">U</text>
      <text x="1810.969" y="423.917">G</text>
      <text x="1794.444" y="432.985">G</text>
      <text x="1777.969" y="442.144">G</text>
      <text x="1761.543" y="451.391">G</text>
      <text x="1745.169" y="460.727">A</text>
      <text x="1728.844" y="470.151">A</text>
      <text x="1712.571" y="479.665">G</text>
      <text x="1696.350" y="489.266">G</text>
      <text x="1680.182" y="498.955">A</text>
      <text x="1664.066" y="508.732">A</text>
      <text x="1648.003" y="518.596">U</text>
      <text x="1631.995" y="528.547">U</text>
      <text x="1616.040" y="538.585">G</text>
      <text x="1600.140" y="548.709">C</text>
      <text x="1584.296" y="558.920">A</text>
      <text x="1568.506" y="569.216">A</text>
      <text x="1552.774" y="579.598">A</text>
      <text x="1537.097" y="590.064">G</text>
      <text x="1521.478" y="600.616">G</text>
      <text x="1505.916" y="611.252">A</text>
      <text x="1490.412" y="621.974">U</text>
      <text x="1474.967" y="632.778">G</text>
      <text x="1459.580" y="643.667">U</text>
      <text x="1444.252" y="654.638">A</text>
      <text x="1428.985" y="665.692">A</text>
      <text x="1413.778" y="676.830">U</text>
      <text x="1398.631" y="688.050">G</text>
      <text x="1383.545" y="699.352">G</text>
      <text x="1368.521" y="710.735">A</text>
      <text x="1353.559" y="722.200">A</text>
      <text x="1338.659" y="733.745">G</text>
      <text x="1323.823" y="745.371">U</text>
      <text x="1309.049" y="757.078">G</text>
      <text x="1294.339" y="768.865">C</text>
      <text x="1279.694" y="780.731">U</text>
      <text x="1265.113" y="792.677">A</text>
      <text x="1250.596" y="804.702">A</text>
      <text x="1236.146" y="816.805">A</text>
      <text x="1221.762" y="828.986">G</text>
      <text x="1207.443" y="841.246">C</text>
      <text x="1193.191" y="853.582">A</text>
      <text x="1179.007" y="865.996">G</text>
      <text x="1164.890" y="878.487">A</text>
      <text x="1150.841" y="891.054">G</text>
      <text x="1136.861" y="903.697">C</text>
      <text x="1122.949" y="916.416">U</text>
      <text x="1109.106" y="929.210">C</text>
      <text x="1095.333" y="942.079">U</text>
      <text x="1081.631" y="955.023">A</text>
      <text x="1067.998" y="968.041">U</text>
      <text x="1054.437" y="981.133">G</text>
      <text x="1040.947" y="994.297">G</text>
      <text x="1027.528" y="1007.535">G</text>
      <text x="1014.181" y="1020.846">A</text>
      <text x="1000.907" y="1034.229">A</text>
      <text x="987.705" y="1047.683">A</text>
      <text x="974.577" y="1061.209">U</text>
      <text x="961.522" y="1074.807">U</text>
      <text x="948.542" y="1088.474">C</text>
      <text x="935.635" y="1102.212">A</text>
      <text x="922.803" y="1116.020">G</text>
      <text x="910.047" y="1129.896">C</text>
      <text x="897.366" y="1143.843">U</text>
      <text x="884.760" y="1157.858">C</text>
      <text x="872.232" y="1171.940">U</text>
      <text x="859.780" y="1186.091">U</text>
      <text x="847.404" y="1200.310">G</text>
      <text x="835.105" y="1214.595">U</text>
      <text x="822.886" y="1228.945">G</text>
      <text x="810.744" y="1243.363">A</text>
      <text x="798.679" y="1257.847">A</text>
      <text x="786.694" y="1272.396">G</text>
      <text x="774.788" y="1287.009">A</text>
      <text x="762.961" y="1301.687">A</text>
      <text x="751.215" y="1316.429">A</text>
      <text x="739.548" y="1331.233">U</text>
      <text x="727.962" y="1346.102">A</text>
      <text x="716.457" y="1361.033">C</text>
      <text x="705.032" y="1376.026">C</text>
      <text x="693.689" y="1391.082">U</text>
      <text x="682.429" y="1406.198">A</text>
      <text x="671.251" y="1421.374">U</text>
      <text x="660.155" y="1436.611">A</text>
      <text x="649.142" y="1451.909">A</text>
      <text x="638.212" y="1467.266">U</text>
      <text x="627.365" y="1482.683">G</text>
      <text x="616.602" y="1498.157">U</text>
      <text x="605.924" y="1513.690">U</text>
      <text x="595.329" y="1529.281">U</text>
      <text x="584.820" y="1544.929">G</text>
      <text x="574.396" y="1560.634">A</text>
      <text x="564.056" y="1576.395">A</text>
      <text x="553.803" y="1592.212">C</text>
      <text x="543.635" y="1608.084">C</text>
      <text x="533.555" y="1624.010">A</text>
      <text x="523.561" y="1639.992">U</text>
      <text x="513.653" y="1656.028">U</text>
      <text x="503.833" y="1672.117">C</text>
      <text x="494.099" y="1688.260">C</text>
      <text x="484.454" y="1704.455">A</text>
      <text x="474.896" y="1720.702">G</text>
      <text x="465.427" y="1737.000">A</text>
      <text x="456.047" y="1753.350">U</text>
      <text x="446.755" y="1769.750">U</text>
      <text x="437.553" y="1786.201">C</text>
      <text x="428.440" y="1802.702">U</text>
      <text x="419.416" y="1819.251">U</text>
      <text x="410.484" y="1835.848">U</text>
      <text x="401.640" y="1852.494">C</text>
      <text x="392.887" y="1869.188">A</text>
      <text x="384.225" y="1885.930">A</text>
      <text x="375.654" y="1902.718">U</text>
      <text x="367.174" y="1919.553">U</text>
      <text x="358.785" y="1936.433">U</text>
      <text x="350.489" y="1953.358">G</text>
      <text x="342.283" y="1970.329">U</text>
      <text x="334.171" y="1987.343">U</text>
      <text x="326.150" y="2004.401">C</text>
      <text x="318.223" y="2021.503">U</text>
      <text x="310.388" y="2038.647">U</text>
      <text x="302.647" y="2055.834">U</text>
      <text x="295.000" y="2073.061">U</text>
      <text x="287.445" y="2090.330">A</text>
      <text x="279.984" y="2107.641">U</text>
      <text x="272.617" y="2124.991">U</text>
      <text x="265.345" y="2142.381">U</text>
      <text x="258.167" y="2159.811">A</text>
      <text x="251.083" y="2177.279">U</text>
      <text x="244.095" y="2194.785">C</text>
      <text x="237.202" y="2212.329">A</text>
      <text x="230.404" y="2229.910">G</text>
      <text x="223.701" y="2247.528">C</text>
      <text x="217.094" y="2265.182">U</text>
      <text x="210.583" y="2282.871">C</text>
      <text x="204.169" y="2300.594">U</text>
      <text x="197.850" y="2318.354">C</text>
      <text x="191.628" y="2336.146">C</text>
      <text x="185.502" y="2353.973">A</text>
      <text x="179.474" y="2371.833">U</text>
      <text x="173.542" y="2389.725">U</text>
      <text x="167.707" y="2407.648">U</text>
      <text x="161.970" y="2425.604">C</text>
      <text x="156.331" y="2443.590">A</text>
      <text x="150.788" y="2461.606">U</text>
      <text x="145.344" y="2479.653">G</text>
      <text x="139.998" y="2497.729">G</text>
      <text x="134.750" y="2515.833">C</text>
      <text x="129.600" y="2533.964">U</text>
      <text x="124.549" y="2552.124">U</text>
      <text x="119.596" y="2570.312">G</text>
      <text x="114.743" y="2588.525">G</text>
      <text x="109.988" y="2606.766">A</text>
      <text x="105.332" y="2625.031">C</text>
      <text x="100.775" y="2643.322">A</text>
      <text x="96.317" y="2661.637">A</text>
      <text x="91.959" y="2679.976">U</text>
      <text x="87.700" y="2698.338">A</text>
      <text x="83.542" y="2716.723">G</text>
      <text x="79.483" y="2735.130">G</text>
      <text x="75.524" y="2753.560">A</text>
      <text x="71.665" y="2772.010">C</text>
      <text x="67.906" y="2790.479">A</text>
      <text x="64.248" y="2808.971">U</text>
      <text x="60.689" y="2827.481">U</text>
      <text x="57.231" y="2846.011">U</text>
      <text x="53.875" y="2864.560">A</text>
      <text x="50.618" y="2883.126">A</text>
      <text x="47.463" y="2901.709">A</text>
      <text x="44.408" y="2920.310">U</text>
      <text x="41.454" y="2938.927">C</text>
      <text x="38.601" y="2957.559">A</text>
      <text x="35.850" y="2976.207">A</text>
      <text x="33.199" y="2994.869">A</text>
      <text x="30.650" y="3013.546">U</text>
      <text x="28.203" y="3032.234">A</text>
      <text x="25.856" y="3050.938">A</text>
      <text x="23.612" y="3069.653">A</text>
      <text x="21.469" y="3088.380">A</text>
      <text x="19.427" y="3107.119">A</text>
      <text x="17.487" y="3125.869">G</text>
      <text x="15.649" y="3144.629">A</text>
      <text x="13.913" y="3163.398">G</text>
      <text x="12.279" y="3182.177">G</text>
      <text x="10.746" y="3200.964">A</text>
      <text x="9.316" y="3219.759">G</text>
      <text x="7.987" y="3238.562">U</text>
      <text x="6.761" y="3257.372">A</text>
      <text x="5.636" y="3276.186">A</text>
      <text x="4.614" y="3295.008">A</text>
      <text x="3.694" y="3313.835">C</text>
      <text x="2.876" y="3332.667">A</text>
      <text x="2.160" y="3351.503">U</text>
      <text x="1.547" y="3370.343">G</text>
      <text x="1.036" y="3389.186">A</text>
      <text x="0.626" y="3408.031">A</text>
      <text x="0.320" y="3426.878">A</text>
      <text x="0.115" y="3445.727">A</text>
      <text x="0.013" y="3464.576">U</text>
      <text x="0.013" y="3483.426">A</text>
      <text x="0.115" y="3502.275">A</text>
      <text x="0.320" y="3521.124">G</text>
      <text x="0.626" y="3539.969">A</text>
      <text x="1.036" y="3558.814">A</text>
      <text x="1.547" y="3577.657">U</text>
      <text x="2.160" y="3596.497">A</text>
      <text x="2.876" y="3615.333">A</text>
      <text x="3.694" y="3634.165">A</text>
      <text x="4.614" y="3652.992">G</text>
      <text x="5.636" y="3671.814">G</text>
      <text x="6.761" y="3690.630">G</text>
      <text x="7.987" y="3709.440">G</text>
      <text x="9.316" y="3728.242">C</text>
      <text x="10.746" y="3747.038">C</text>
      <text x="12.279" y="3765.825">A</text>
      <text x="13.913" y="3784.602">A</text>
      <text x="15.649" y="3803.372">A</text>
      <text x="17.487" y="3822.131">U</text>
      <text x="19.427" y="3840.881">A</text>
      <text x="21.469" y="3859.620">A</text>
      <text x="23.612" y="3878.347">A</text>
      <text x="25.856" y="3897.062">G</text>
      <text x="28.203" y="3915.766">A</text>
      <text x="30.650" y="3934.456">G</text>
      <text x="33.199" y="3953.132">A</text>
      <text x="35.850" y="3971.795">C</text>
      <text x="38.601" y="3990.442">A</text>
      <text x="41.454" y="4009.075">A</text>
      <text x="44.408" y="4027.690">U</text>
      <text x="47.463" y="4046.291">A</text>
      <text x="50.618" y="4064.874">A</text>
      <text x="53.875" y="4083.440">A</text>
      <text x="57.231" y="4101.989">C</text>
      <text x="60.689" y="4120.519">A</text>
      <text x="64.248" y="4139.029">G</text>
      <text x="67.906" y="4157.521">A</text>
      <text x="71.665" y="4175.992">G</text>
      <text x="75.524" y="4194.442">A</text>
      <text x="79.483" y="4212.871">G</text>
      <text x="83.542" y="4231.279">G</text>
      <text x="87.701" y="4249.664">U</text>
      <text x="91.959" y="4268.024">A</text>
      <text x="96.317" y="4286.363">U</text>
      <text x="100.775" y="4304.679">C</text>
      <text x="105.332" y="4322.969">A</text>
      <text x="109.988" y="4341.234">A</text>
      <text x="114.743" y="4359.475">U</text>
      <text x="119.596" y="4377.688">U</text>
      <text x="124.549" y="4395.876">U</text>
      <text x="129.600" y="4414.036">U</text>
      <text x="134.750" y="4432.169">G</text>
      <text x="139.998" y="4450.273">A</text>
      <text x="145.344" y="4468.349">G</text>
      <text x="150.789" y="4486.395">A</text>
      <text x="156.331" y="4504.412">C</text>
      <text x="161.970" y="4522.396">A</text>
      <text x="167.708" y="4540.352">C</text>
      <text x="173.542" y="4558.275">A</text>
      <text x="179.474" y="4576.167">G</text>
      <text x="185.503" y="4594.027">U</text>
      <text x="191.628" y="4611.854">U</text>
      <text x="197.850" y="4629.646">A</text>
      <text x="204.169" y="4647.406">C</text>
      <text x="210.584" y="4665.130">C</text>
      <text x="217.095" y="4682.820">A</text>
      <text x="223.702" y="4700.474">A</text>
      <text x="230.404" y="4718.091">A</text>
      <text x="237.202" y="4735.672">A</text>
      <text x="244.095" y="4753.215">A</text>
      <text x="251.083" y="4770.721">G</text>
      <text x="258.167" y="4788.189">A</text>
      <text x="265.345" y="4805.619">A</text>
      <text x="272.617" y="4823.009">A</text>
      <text x="279.984" y="4840.359">U</text>
      <text x="287.445" y="4857.670">U</text>
      <text x="295.000" y="4874.939">C</text>
      <text x="302.648" y="4892.168">A</text>
      <text x="310.389" y="4909.354">G</text>
      <text x="318.224" y="4926.499">G</text>
      <text x="326.151" y="4943.600">C</text>
      <text x="334.172" y="4960.659">U</text>
      <text x="342.283" y="4977.671">A</text>
      <text x="350.489" y="4994.642">A</text>
      <text x="358.785" y="5011.567">A</text>
      <text x="367.174" y="5028.447">G</text>
      <text x="375.654" y="5045.282">A</text>
      <text x="384.225" y="5062.070">A</text>
      <text x="392.887" y="5078.812">G</text>
      <text x="401.640" y="5095.506">C</text>
      <text x="410.484" y="5112.152">A</text>
      <text x="419.417" y="5128.750">A</text>
      <text x="428.440" y="5145.300">U</text>
      <text x="437.554" y="5161.800">G</text>
      <text x="446.756" y="5178.251">A</text>
      <text x="456.048" y="5194.651">A</text>
      <text x="465.427" y="5211.000">G</text>
      <text x="474.897" y="5227.298">G</text>
      <text x="484.454" y="5243.545">A</text>
      <text x="494.099" y="5259.740">A</text>
      <text x="503.833" y="5275.883">G</text>
      <text x="513.653" y="5291.972">U</text>
      <text x="523.561" y="5308.008">A</text>
      <text x="533.555" y="5323.990">C</text>
      <text x="543.637" y="5339.917">U</text>
      <text x="553.804" y="5355.790">C</text>
      <text x="564.057" y="5371.606">U</text>
      <text x="574.396" y="5387.367">C</text>
      <text x="584.821" y="5403.072">U</text>
      <text x="595.329" y="5418.719">G</text>
      <text x="605.924" y="5434.310">A</text>
      <text x="616.602" y="5449.843">C</text>
      <text x="627.365" y="5465.317">A</text>
      <text x="638.212" y="5480.734">A</text>
      <text x="649.142" y="5496.091">C</text>
      <text x="660.155" y="5511.389">A</text>
      <text x="671.251" y="5526.626">U</text>
      <text x="682.430" y="5541.804">G</text>
      <text x="693.690" y="5556.920">G</text>
      <text x="705.033" y="5571.975">A</text>
      <text x="716.458" y="5586.968">A</text>
      <text x="727.963" y="5601.899">G</text>
      <text x="739.548" y="5616.767">U</text>
      <text x="751.215" y="5631.572">A</text>
      <text x="762.961" y="5646.313">U</text>
      <text x="774.788" y="5660.991">U</text>
      <text x="786.694" y="5675.605">G</text>
      <text x="798.679" y="5690.153">A</text>
      <text x="810.744" y="5704.637">G</text>
      <text x="822.886" y="5719.055">U</text>
      <text x="835.106" y="5733.406">G</text>
      <text x="847.405" y="5747.691">A</text>
      <text x="859.780" y="5761.910">C</text>
      <text x="872.233" y="5776.061">C</text>
      <text x="884.761" y="5790.144">A</text>
      <text x="897.367" y="5804.158">C</text>
      <text x="910.047" y="5818.104">A</text>
      <text x="922.804" y="5831.980">U</text>
      <text x="935.635" y="5845.789">A</text>
      <text x="948.542" y="5859.526">G</text>
      <text x="961.522" y="5873.194">U</text>
      <text x="974.577" y="5886.792">A</text>
      <text x="987.706" y="5900.317">A</text>
      <text x="1000.907" y="5913.772">U</text>
      <text x="1014.182" y="5927.155">U</text>
      <text x="1027.528" y="5940.466">G</text>
      <text x="1040.947" y="5953.704">A</text>
      <text x="1054.438" y="5966.869">G</text>
      <text x="1067.999" y="5979.960">G</text>
      <text x="1081.631" y="5992.977">G</text>
      <text x="1095.334" y="6005.921">G</text>
      <text x="1109.106" y="6018.790">C</text>
      <text x="1122.949" y="6031.584">U</text>
      <text x="1136.861" y="6044.303">U</text>
      <text x="1150.842" y="6056.946">U</text>
      <text x="1164.891" y="6069.514">C</text>
      <text x="1179.008" y="6082.004">U</text>
      <text x="1193.192" y="6094.418">G</text>
      <text x="1207.444" y="6106.755">C</text>
      <text x="1221.762" y="6119.015">U</text>
      <text x="1236.147" y="6131.196">G</text>
      <text x="1250.598" y="6143.299">A</text>
      <text x="1265.113" y="6155.323">A</text>
      <text x="1279.694" y="6167.269">G</text>
      <text x="1294.339" y="6179.135">A</text>
      <text x="1309.049" y="6190.922">G</text>
      <text x="1323.823" y="6202.629">A</text>
      <text x="1338.660" y="6214.255">U</text>
      <text x="1353.560" y="6225.801">A</text>
      <text x="1368.522" y="6237.266">A</text>
      <text x="1383.546" y="6248.649">U</text>
      <text x="1398.632" y="6259.951">A</text>
      <text x="1413.779" y="6271.171">A</text>
      <text x="1428.986" y="6282.308">A</text>
      <text x="1444.254" y="6293.363">A</text>
      <text x="1459.580" y="6304.333">A</text>
      <text x="1474.967" y="6315.222">U</text>
      <text x="1490.412" y="6326.026">G</text>
      <text x="1505.916" y="6336.748">G</text>
      <text x="1521.478" y="6347.384">G</text>
      <text x="1537.098" y="6357.936">U</text>
      <text x="1552.774" y="6368.403">G</text>
      <text x="1568.507" y="6378.785">A</text>
      <text x="1584.297" y="6389.081">A</text>
      <text x="1600.141" y="6399.291">A</text>
      <text x="1616.041" y="6409.416">C</text>
      <text x="1631.996" y="6419.454">A</text>
      <text x="1648.005" y="6429.405">G</text>
      <text x="1664.067" y="6439.269">U</text>
      <text x="1680.182" y="6449.045">U</text>
      <text x="1696.350" y="6458.734">U</text>
      <text x="1712.572" y="6468.335">U</text>
      <text x="1728.844" y="6477.849">G</text>
      <text x="1745.169" y="6487.273">G</text>
      <text x="1761.544" y="6496.610">A</text>
      <text x="1777.969" y="6505.857">G</text>
      <text x="1794.445" y="6515.015">G</text>
      <text x="1810.970" y="6524.083">U</text>
      <text x="1827.544" y="6533.062">A</text>
      <text x="1844.166" y="6541.950">G</text>
      <text x="1860.837" y="6550.748">A</text>
      <text x="1877.555" y="6559.456">A</text>
      <text x="1894.318" y="6568.072">G</text>
      <text x="1911.129" y="6576.598">A</text>
      <text x="1927.987" y="6585.032">A</text>
      <text x="1944.890" y="6593.375">U</text>
      <text x="1961.838" y="6601.625">C</text>
      <text x="1978.830" y="6609.784">G</text>
      <text x="1995.866" y="6617.851">C</text>
      <text x="2012.947" y="6625.825">A</text>
      <text x="2030.070" y="6633.706">U</text>
      <text x="2047.235" y="6641.494">U</text>
      <text x="2064.443" y="6649.188">A</text>
      <text x="2081.691" y="6656.790">A</text>
      <text x="2098.981" y="6664.298">A</text>
      <text x="2116.311" y="6671.711">U</text>
      <text x="2133.681" y="6679.030">U</text>
      <text x="2151.091" y="6686.256">C</text>
      <text x="2168.540" y="6693.387">A</text>
      <text x="2186.027" y="6700.422">A</text>
      <text x="2203.552" y="6707.363">_</text>
      <text x="2221.115" y="6714.209">_</text>
      <text x="2238.714" y="6720.959">U</text>
      <text x="2256.350" y="6727.614">U</text>
      <text x="2274.022" y="6734.173">U</text>
      <text x="2291.729" y="6740.636">U</text>
      <text x="2309.471" y="6747.003">A</text>
      <text x="2327.247" y="6753.273">C</text>
      <text x="2345.057" y="6759.447">U</text>
      <text x="2362.898" y="6765.524">G</text>
      <text x="2380.774" y="6771.504">U</text>
      <text x="2398.682" y="6777.387">A</text>
      <text x="2416.622" y="6783.173">U</text>
      <text x="2434.593" y="6788.862">U</text>
      <text x="2452.594" y="6794.453">U</text>
      <text x="2470.626" y="6799.946">C</text>
      <text x="2488.687" y="6805.341">U</text>
      <text x="2506.777" y="6810.638">U</text>
      <text x="2524.896" y="6815.837">A</text>
      <text x="2543.042" y="6820.938">C</text>
      <text x="2561.216" y="6825.940">U</text>
      <text x="2579.417" y="6830.843">A</text>
      <text x="2597.642" y="6835.647">U</text>
      <text x="2615.895" y="6840.353">G</text>
      <text x="2634.173" y="6844.959">C</text>
      <text x="2652.476" y="6849.467">A</text>
      <text x="2670.803" y="6853.874">U</text>
      <text x="2689.154" y="6858.183">U</text>
      <text x="2707.527" y="6862.392">U</text>
      <text x="2725.924" y="6866.500">A</text>
      <text x="2744.342" y="6870.509">A</text>
      <text x="2762.782" y="6874.418">G</text>
      <text x="2781.243" y="6878.228">C</text>
      <text x="2799.724" y="6881.936">A</text>
      <text x="2818.225" y="6885.544">A</text>
      <text x="2836.744" y="6889.052">A</text>
      <text x="2855.283" y="6892.459">U</text>
      <text x="2873.840" y="6895.766">U</text>
      <text x="2892.415" y="6898.972">G</text>
      <text x="2911.007" y="6902.077">U</text>
      <text x="2929.616" y="6905.082">A</text>
      <text x="2948.241" y="6907.985">A</text>
      <text x="2966.881" y="6910.787">U</text>
      <text x="2985.536" y="6913.488">C</text>
      <text x="3004.206" y="6916.088">A</text>
      <text x="3022.889" y="6918.586">A</text>
      <text x="3041.586" y="6920.983">U</text>
      <text x="3060.295" y="6923.279">G</text>
      <text x="3079.017" y="6925.473">U</text>
      <text x="3097.748" y="6927.564">C</text>
      <text x="3116.492" y="6929.556">A</text>
      <text x="3135.247" y="6931.444">G</text>
      <text x="3154.012" y="6933.231">C</text>
      <text x="3172.786" y="6934.917">A</text>
      <text x="3191.569" y="6936.500">A</text>
      <text x="3210.360" y="6937.982">A</text>
      <text x="3229.160" y="6939.361">U</text>
      <text x="3247.966" y="6940.639">A</text>
      <text x="3266.779" y="6941.814">A</text>
      <text x="3285.598" y="6942.888">A</text>
      <text x="3304.423" y="6943.858">C</text>
      <text x="3323.252" y="6944.728">U</text>
      <text x="3342.084" y="6945.494">G</text>
      <text x="3360.923" y="6946.159">G</text>
      <text x="3379.764" y="6946.722">_</text>
      <text x="3398.608" y="6947.182">_</text>
      <text x="3417.454" y="6947.540">A</text>
      <text x="3436.302" y="6947.795">A</text>
      <text x="3455.151" y="6947.949">A</text>
    </g>
  </g>
</svg>
