<?xml version="1.0" encoding="UTF-8" standalone="yes"?>
<svg xmlns="http://www.w3.org/2000/svg" height="452" width="452">
<script type="text/ecmascript">
      <![CDATA[
        var shown = 1;
        function click() {
             var seq = document.getElementById("seq");
             if (shown==1) {
               seq.setAttribute("style", "visibility: hidden");
               shown = 0;
             } else {
               seq.setAttribute("style", "visibility: visible");
               shown = 1;
             }
         }
        ]]>
</script>
  <rect style="stroke: white; fill: white" height="452" x="0" y="0" width="452" onclick="click(evt)" />
  <g transform="scale(0.085074,0.085074) translate(7.496094,7.504395)">
    <polyline style="stroke: black; fill: none; stroke-width: 1.5" id="outline" points="
      2649.000,5297.983
      2667.849,5297.916
      2686.698,5297.715
      2705.544,5297.380
      2724.388,5296.910
      2743.228,5296.307
      2762.063,5295.569
      2780.892,5294.698
      2799.715,5293.692
      2818.530,5292.553
      2837.336,5291.280
      2856.134,5289.873
      2874.920,5288.332
      2893.695,5286.658
      2912.458,5284.850
      2931.207,5282.908
      2949.942,5280.833
      2968.662,5278.625
      2987.365,5276.284
      3006.052,5273.811
      3024.720,5271.203
      3043.369,5268.463
      3061.999,5265.591
      3080.607,5262.586
      3099.194,5259.448
      3117.757,5256.179
      3136.297,5252.777
      3154.813,5249.244
      3173.302,5245.579
      3191.766,5241.782
      3210.202,5237.854
      3228.609,5233.796
      3246.987,5229.606
      3265.334,5225.285
      3283.651,5220.835
      3301.936,5216.254
      3320.187,5211.542
      3338.404,5206.702
      3356.586,5201.731
      3374.733,5196.632
      3392.843,5191.403
      3410.915,5186.046
      3428.949,5180.560
      3446.943,5174.946
      3464.896,5169.204
      3482.809,5163.335
      3500.679,5157.338
      3518.506,5151.214
      3536.289,5144.964
      3554.027,5138.587
      3571.719,5132.084
      3589.365,5125.456
      3606.963,5118.702
      3624.512,5111.822
      3642.012,5104.819
      3659.462,5097.690
      3676.861,5090.438
      3694.208,5083.062
      3711.501,5075.564
      3728.741,5067.942
      3745.926,5060.197
      3763.056,5052.331
      3780.129,5044.343
      3797.145,5036.234
      3814.103,5028.004
      3831.001,5019.653
      3847.840,5011.182
      3864.619,5002.592
      3881.335,4993.882
      3897.990,4985.054
      3914.581,4976.107
      3931.108,4967.043
      3947.570,4957.861
      3963.966,4948.562
      3980.296,4939.147
      3996.558,4929.616
      4012.752,4919.970
      4028.877,4910.208
      4044.933,4900.333
      4060.917,4890.343
      4076.830,4880.239
      4092.671,4870.022
      4108.438,4859.694
      4124.132,4849.253
      4139.751,4838.701
      4155.295,4828.038
      4170.762,4817.264
      4186.152,4806.381
      4201.465,4795.389
      4216.698,4784.287
      4231.853,4773.078
      4246.927,4761.761
      4261.920,4750.337
      4276.832,4738.807
      4291.662,4727.171
      4306.408,4715.430
      4321.070,4703.584
      4335.647,4691.634
      4350.139,4679.581
      4364.545,4667.425
      4378.864,4655.167
      4393.096,4642.807
      4407.239,4630.346
      4421.293,4617.784
      4435.258,4605.124
      4449.132,4592.363
      4462.915,4579.505
      4476.606,4566.549
      4490.204,4553.496
      4503.709,4540.346
      4517.121,4527.101
      4530.438,4513.760
      4543.659,4500.326
      4556.785,4486.797
      4569.813,4473.175
      4582.745,4459.461
      4595.579,4445.655
      4608.314,4431.759
      4620.950,4417.772
      4633.487,4403.695
      4645.922,4389.530
      4658.257,4375.276
      4670.490,4360.936
      4682.620,4346.508
      4694.648,4331.994
      4706.572,4317.396
      4718.392,4302.712
      4730.106,4287.945
      4741.716,4273.096
      4753.220,4258.163
      4764.617,4243.149
      4775.907,4228.055
      4787.089,4212.881
      4798.163,4197.627
      4809.128,4182.295
      4819.984,4166.886
      4830.730,4151.399
      4841.366,4135.837
      4851.891,4120.199
      4862.303,4104.487
      4872.604,4088.701
      4882.792,4072.842
      4892.867,4056.911
      4902.829,4040.909
      4912.676,4024.836
      4922.409,4008.694
      4932.027,3992.482
      4941.529,3976.203
      4950.915,3959.857
      4960.185,3943.444
      4969.337,3926.966
      4978.372,3910.422
      4987.289,3893.815
      4996.087,3877.146
      5004.767,3860.413
      5013.327,3843.620
      5021.769,3826.766
      5030.089,3809.852
      5038.289,3792.880
      5046.368,3775.850
      5054.326,3758.762
      5062.162,3741.619
      5069.875,3724.419
      5077.467,3707.166
      5084.935,3689.859
      5092.280,3672.500
      5099.501,3655.088
      5106.598,3637.625
      5113.570,3620.113
      5120.418,3602.552
      5127.141,3584.941
      5133.738,3567.284
      5140.210,3549.580
      5146.555,3531.831
      5152.774,3514.037
      5158.866,3496.199
      5164.831,3478.318
      5170.668,3460.395
      5176.378,3442.432
      5181.960,3424.427
      5187.414,3406.384
      5192.739,3388.302
      5197.936,3370.183
      5203.003,3352.028
      5207.940,3333.836
      5212.749,3315.611
      5217.428,3297.351
      5221.977,3279.059
      5226.395,3260.734
      5230.682,3242.379
      5234.839,3223.993
      5238.865,3205.579
      5242.760,3187.136
      5246.524,3168.666
      5250.156,3150.170
      5253.656,3131.648
      5257.025,3113.102
      5260.262,3094.533
      5263.366,3075.940
      5266.338,3057.327
      5269.177,3038.692
      5271.884,3020.038
      5274.458,3001.365
      5276.898,2982.674
      5279.207,2963.966
      5281.381,2945.243
      5283.423,2926.504
      5285.331,2907.751
      5287.105,2888.986
      5288.746,2870.208
      5290.254,2851.419
      5291.627,2832.619
      5292.867,2813.811
      5293.973,2794.993
      5294.945,2776.169
      5295.783,2757.338
      5296.487,2738.502
      5297.057,2719.661
      5297.493,2700.816
      5297.795,2681.969
      5297.962,2663.121
      5297.996,2644.271
      5297.896,2625.422
      5297.661,2606.574
      5297.292,2587.728
      5296.789,2568.885
      5296.151,2550.046
      5295.381,2531.213
      5294.476,2512.385
      5293.437,2493.564
      5292.264,2474.751
      5290.957,2455.947
      5289.517,2437.153
      5287.942,2418.369
      5286.235,2399.597
      5284.394,2380.837
      5282.419,2362.092
      5280.311,2343.361
      5278.069,2324.645
      5275.695,2305.945
      5273.188,2287.263
      5270.547,2268.599
      5267.774,2249.955
      5264.868,2231.331
      5261.830,2212.728
      5258.660,2194.147
      5255.357,2175.589
      5251.923,2157.055
      5248.356,2138.546
      5244.659,2120.062
      5240.829,2101.606
      5236.869,2083.177
      5232.777,2064.777
      5228.555,2046.407
      5224.202,2028.067
      5219.718,2009.758
      5215.104,1991.482
      5210.361,1973.239
      5205.488,1955.031
      5200.485,1936.857
      5195.354,1918.719
      5190.093,1900.619
      5184.703,1882.556
      5179.186,1864.533
      5173.540,1846.549
      5167.766,1828.605
      5161.864,1810.703
      5155.836,1792.844
      5149.681,1775.028
      5143.398,1757.256
      5136.990,1739.529
      5130.456,1721.848
      5123.796,1704.215
      5117.010,1686.629
      5110.100,1669.092
      5103.065,1651.604
      5095.906,1634.167
      5088.623,1616.781
      5081.216,1599.448
      5073.687,1582.167
      5066.034,1564.941
      5058.259,1547.770
      5050.362,1530.654
      5042.344,1513.595
      5034.204,1496.594
      5025.944,1479.651
      5017.563,1462.767
      5009.062,1445.943
      5000.442,1429.180
      4991.703,1412.479
      4982.845,1395.840
      4973.869,1379.265
      4964.775,1362.754
      4955.564,1346.308
      4946.236,1329.929
      4936.792,1313.615
      4927.232,1297.370
      4917.557,1281.193
      4907.767,1265.086
      4897.862,1249.048
      4887.844,1233.082
      4877.712,1217.186
      4867.468,1201.364
      4857.110,1185.614
      4846.642,1169.939
      4836.062,1154.339
      4825.371,1138.815
      4814.570,1123.366
      4803.660,1107.996
      4792.640,1092.703
      4781.512,1077.489
      4770.275,1062.354
      4758.932,1047.301
      4747.481,1032.327
      4735.925,1017.437
      4724.262,1002.627
      4712.495,987.902
      4700.623,973.261
      4688.647,958.705
      4676.568,944.234
      4664.386,929.851
      4652.103,915.553
      4639.717,901.344
      4627.231,887.222
      4614.646,873.190
      4601.959,859.249
      4589.175,845.397
      4576.292,831.637
      4563.312,817.970
      4550.234,804.394
      4537.061,790.912
      4523.791,777.524
      4510.427,764.231
      4496.969,751.034
      4483.417,737.932
      4469.772,724.928
      4456.035,712.021
      4442.207,699.211
      4428.287,686.500
      4414.278,673.890
      4400.179,661.378
      4385.992,648.968
      4371.716,636.659
      4357.354,624.452
      4342.904,612.347
      4328.369,600.345
      4313.749,588.447
      4299.045,576.653
      4284.257,564.965
      4269.387,553.382
      4254.434,541.904
      4239.400,530.534
      4224.286,519.271
      4209.092,508.116
      4193.818,497.068
      4178.467,486.131
      4163.038,475.302
      4147.533,464.584
      4131.951,453.977
      4116.295,443.479
      4100.564,433.095
      4084.760,422.822
      4068.883,412.662
      4052.934,402.615
      4036.914,392.682
      4020.824,382.863
      4004.664,373.159
      3988.436,363.570
      3972.140,354.097
      3955.776,344.740
      3939.347,335.500
      3922.852,326.377
      3906.293,317.371
      3889.670,308.484
      3872.985,299.715
      3856.237,291.065
      3839.429,282.534
      3822.560,274.124
      3805.631,265.833
      3788.644,257.663
      3771.600,249.614
      3754.498,241.687
      3737.341,233.882
      3720.128,226.199
      3702.861,218.638
      3685.541,211.201
      3668.168,203.887
      3650.744,196.696
      3633.269,189.631
      3615.744,182.689
      3598.170,175.873
      3580.548,169.181
      3562.880,162.615
      3545.164,156.176
      3527.404,149.862
      3509.598,143.675
      3491.750,137.614
      3473.858,131.681
      3455.925,125.876
      3437.951,120.198
      3419.937,114.647
      3401.884,109.227
      3383.793,103.934
      3365.665,98.769
      3347.500,93.734
      3329.300,88.829
      3311.065,84.053
      3292.798,79.406
      3274.497,74.891
      3256.165,70.505
      3237.802,66.250
      3219.409,62.125
      3200.987,58.132
      3182.538,54.270
      3164.061,50.539
      3145.559,46.940
      3127.031,43.472
      3108.479,40.137
      3089.903,36.934
      3071.306,33.862
      3052.687,30.923
      3034.047,28.117
      3015.388,25.443
      2996.711,22.903
      2978.015,20.495
      2959.304,18.221
      2940.576,16.079
      2921.834,14.071
      2903.078,12.196
      2884.309,10.455
      2865.528,8.848
      2846.737,7.374
      2827.935,6.034
      2809.124,4.827
      2790.305,3.755
      2771.479,2.816
      2752.646,2.012
      2733.809,1.341
      2714.967,0.805
      2696.121,0.402
      2677.274,0.134
      2658.425,0.000
      2639.575,0.000
      2620.726,0.134
      2601.879,0.402
      2583.033,0.805
      2564.192,1.341
      2545.354,2.012
      2526.522,2.816
      2507.695,3.755
      2488.877,4.827
      2470.066,6.034
      2451.264,7.374
      2432.472,8.848
      2413.691,10.455
      2394.922,12.196
      2376.167,14.071
      2357.424,16.079
      2338.697,18.221
      2319.985,20.495
      2301.290,22.903
      2282.612,25.443
      2263.954,28.117
      2245.314,30.923
      2226.695,33.862
      2208.097,36.934
      2189.522,40.137
      2170.970,43.472
      2152.442,46.939
      2133.939,50.539
      2115.463,54.270
      2097.013,58.132
      2078.592,62.125
      2060.199,66.250
      2041.836,70.505
      2023.503,74.891
      2005.203,79.406
      1986.935,84.053
      1968.700,88.829
      1950.500,93.734
      1932.336,98.769
      1914.208,103.933
      1896.116,109.227
      1878.063,114.647
      1860.049,120.197
      1842.075,125.875
      1824.142,131.681
      1806.251,137.614
      1788.402,143.675
      1770.597,149.861
      1752.836,156.176
      1735.121,162.615
      1717.452,169.181
      1699.830,175.872
      1682.256,182.689
      1664.732,189.631
      1647.256,196.696
      1629.833,203.887
      1612.459,211.201
      1595.140,218.638
      1577.872,226.198
      1560.660,233.882
      1543.502,241.687
      1526.401,249.614
      1509.356,257.663
      1492.369,265.833
      1475.441,274.124
      1458.572,282.534
      1441.763,291.065
      1425.016,299.715
      1408.330,308.484
      1391.707,317.371
      1375.148,326.377
      1358.653,335.500
      1342.224,344.740
      1325.861,354.097
      1309.565,363.570
      1293.336,373.159
      1277.177,382.863
      1261.086,392.682
      1245.067,402.615
      1229.117,412.662
      1213.241,422.821
      1197.436,433.095
      1181.706,443.479
      1166.049,453.976
      1150.468,464.584
      1134.962,475.302
      1119.533,486.130
      1104.182,497.068
      1088.909,508.115
      1073.714,519.271
      1058.600,530.534
      1043.566,541.904
      1028.614,553.381
      1013.743,564.964
      998.955,576.653
      984.251,588.447
      969.631,600.345
      955.096,612.347
      940.647,624.451
      926.284,636.659
      912.009,648.968
      897.821,661.378
      883.723,673.889
      869.713,686.500
      855.794,699.211
      841.965,712.020
      828.229,724.927
      814.583,737.932
      801.031,751.034
      787.573,764.231
      774.209,777.524
      760.940,790.912
      747.766,804.394
      734.689,817.969
      721.708,831.637
      708.826,845.397
      696.041,859.249
      683.355,873.190
      670.769,887.222
      658.283,901.343
      645.898,915.553
      633.614,929.850
      621.432,944.234
      609.353,958.705
      597.378,973.261
      585.505,987.902
      573.738,1002.627
      562.075,1017.437
      550.519,1032.327
      539.069,1047.300
      527.725,1062.354
      516.488,1077.489
      505.361,1092.702
      494.341,1107.995
      483.430,1123.366
      472.629,1138.814
      461.939,1154.338
      451.358,1169.939
      440.889,1185.614
      430.532,1201.364
      420.288,1217.186
      410.156,1233.081
      400.138,1249.048
      390.233,1265.085
      380.443,1281.193
      370.768,1297.370
      361.208,1313.615
      351.764,1329.928
      342.436,1346.309
      333.225,1362.753
      324.131,1379.265
      315.155,1395.840
      306.297,1412.479
      297.558,1429.179
      288.938,1445.942
      280.437,1462.767
      272.056,1479.651
      263.796,1496.593
      255.656,1513.595
      247.638,1530.654
      239.741,1547.770
      231.966,1564.940
      224.314,1582.167
      216.784,1599.448
      209.377,1616.781
      202.094,1634.166
      194.935,1651.603
      187.900,1669.091
      180.990,1686.628
      174.205,1704.214
      167.545,1721.848
      161.010,1739.529
      154.602,1757.256
      148.320,1775.026
      142.164,1792.843
      136.136,1810.703
      130.234,1828.605
      124.461,1846.547
      118.815,1864.532
      113.297,1882.556
      107.907,1900.619
      102.646,1918.720
      97.515,1936.856
      92.512,1955.030
      87.639,1973.239
      82.895,1991.482
      78.282,2009.758
      73.798,2028.066
      69.445,2046.407
      65.223,2064.777
      61.132,2083.177
      57.171,2101.606
      53.341,2120.062
      49.643,2138.546
      46.077,2157.054
      42.643,2175.588
      39.340,2194.146
      36.170,2212.728
      33.132,2231.330
      30.226,2249.955
      27.453,2268.599
      24.812,2287.263
      22.305,2305.944
      19.931,2324.644
      17.689,2343.360
      15.581,2362.092
      13.606,2380.836
      11.765,2399.596
      10.057,2418.368
      8.483,2437.152
      7.043,2455.946
      5.736,2474.750
      4.563,2493.563
      3.524,2512.385
      2.619,2531.212
      1.848,2550.046
      1.211,2568.885
      0.708,2587.728
      0.339,2606.574
      0.105,2625.421
      0.004,2644.271
      0.038,2663.120
      0.205,2681.969
      0.507,2700.816
      0.943,2719.660
      1.513,2738.502
      2.217,2757.338
      3.055,2776.168
      4.027,2794.993
      5.133,2813.810
      6.373,2832.619
      7.746,2851.418
      9.254,2870.207
      10.895,2888.986
      12.669,2907.752
      14.577,2926.503
      16.619,2945.242
      18.793,2963.966
      21.101,2982.674
      23.542,3001.364
      26.116,3020.037
      28.823,3038.692
      31.662,3057.327
      34.634,3075.939
      37.738,3094.532
      40.975,3113.102
      44.343,3131.648
      47.844,3150.169
      51.476,3168.666
      55.240,3187.136
      59.135,3205.579
      63.161,3223.992
      67.318,3242.378
      71.605,3260.734
      76.024,3279.058
      80.572,3297.351
      85.251,3315.610
      90.059,3333.836
      94.997,3352.028
      100.065,3370.183
      105.261,3388.302
      110.586,3406.384
      116.040,3424.427
      121.622,3442.432
      127.331,3460.395
      133.169,3478.318
      139.134,3496.199
      145.226,3514.037
      151.445,3531.830
      157.790,3549.580
      164.262,3567.284
      170.859,3584.942
      177.581,3602.551
      184.429,3620.113
      191.402,3637.625
      198.499,3655.088
      205.720,3672.499
      213.065,3689.859
      220.533,3707.166
      228.125,3724.419
      235.838,3741.617
      243.674,3758.761
      251.632,3775.849
      259.711,3792.880
      267.911,3809.851
      276.231,3826.765
      284.672,3843.619
      293.233,3860.413
      301.912,3877.145
      310.711,3893.815
      319.628,3910.422
      328.663,3926.965
      337.816,3943.444
      347.085,3959.856
      356.471,3976.203
      365.973,3992.482
      375.591,4008.694
      385.323,4024.835
      395.171,4040.908
      405.133,4056.911
      415.208,4072.842
      425.396,4088.700
      435.697,4104.486
      446.110,4120.199
      456.634,4135.837
      467.269,4151.399
      478.015,4166.885
      488.871,4182.295
      499.837,4197.627
      510.910,4212.880
      522.093,4228.055
      533.383,4243.149
      544.780,4258.163
      556.283,4273.095
      567.893,4287.945
      579.608,4302.712
      591.428,4317.396
      603.352,4331.994
      615.379,4346.507
      627.510,4360.935
      639.743,4375.276
      652.077,4389.529
      664.513,4403.695
      677.049,4417.771
      689.685,4431.759
      702.420,4445.654
      715.254,4459.460
      728.186,4473.175
      741.215,4486.797
      754.341,4500.326
      767.562,4513.760
      780.879,4527.101
      794.290,4540.346
      807.796,4553.496
      821.394,4566.548
      835.085,4579.505
      848.868,4592.363
      862.742,4605.124
      876.706,4617.784
      890.760,4630.345
      904.904,4642.806
      919.136,4655.167
      933.454,4667.424
      947.860,4679.580
      962.353,4691.634
      976.930,4703.584
      991.592,4715.429
      1006.338,4727.171
      1021.168,4738.807
      1036.079,4750.337
      1051.072,4761.761
      1066.147,4773.078
      1081.301,4784.287
      1096.535,4795.389
      1111.847,4806.380
      1127.237,4817.264
      1142.705,4828.037
      1158.249,4838.701
      1173.867,4849.252
      1189.561,4859.693
      1205.329,4870.022
      1221.170,4880.239
      1237.082,4890.342
      1253.067,4900.332
      1269.122,4910.208
      1285.248,4919.970
      1301.442,4929.617
      1317.703,4939.147
      1334.033,4948.562
      1350.430,4957.861
      1366.892,4967.043
      1383.419,4976.107
      1400.010,4985.054
      1416.665,4993.882
      1433.381,5002.592
      1450.159,5011.182
      1466.998,5019.652
      1483.897,5028.003
      1500.855,5036.234
      1517.870,5044.343
      1534.944,5052.331
      1552.074,5060.197
      1569.259,5067.942
      1586.498,5075.563
      1603.792,5083.062
      1621.139,5090.438
      1638.538,5097.690
      1655.987,5104.818
      1673.487,5111.822
      1691.037,5118.701
      1708.635,5125.456
      1726.280,5132.084
      1743.972,5138.587
      1761.710,5144.964
      1779.494,5151.214
      1797.320,5157.338
      1815.190,5163.335
      1833.103,5169.204
      1851.057,5174.946
      1869.050,5180.560
      1887.084,5186.046
      1905.157,5191.403
      1923.267,5196.632
      1941.414,5201.731
      1959.595,5206.701
      1977.813,5211.542
      1996.064,5216.254
      2014.349,5220.835
      2032.665,5225.285
      2051.013,5229.605
      2069.391,5233.796
      2087.799,5237.854
      2106.233,5241.782
      2124.697,5245.579
      2143.187,5249.244
      2161.703,5252.777
      2180.242,5256.179
      2198.806,5259.448
      2217.393,5262.586
      2236.001,5265.591
      2254.630,5268.463
      2273.280,5271.203
      2291.948,5273.810
      2310.635,5276.284
      2329.337,5278.625
      2348.058,5280.833
      2366.793,5282.908
      2385.542,5284.850
      2404.304,5286.658
      2423.079,5288.332
      2441.866,5289.873
      2460.663,5291.280
      2479.469,5292.553
      2498.284,5293.692
      2517.107,5294.698
      2535.937,5295.569
      2554.772,5296.307
      2573.611,5296.910
      2592.455,5297.380
      2611.302,5297.715
      2630.151,5297.916
    " />
    <g style="stroke: black; stroke-width: 1; fill: none;" id="pairs">
      <path id="66,346" d="M 3831.001464843750000 5019.652832031250000 C 3078.697021484375000,3510.801025390625000 3259.506835937500000,1904.234863281250000 4328.369140625000000 600.344726562500000" />
      <path id="67,345" d="M 3847.840332031250000 5011.182128906250000 C 3090.249267578125000,3518.422363281250000 3272.464111328125000,1899.371826171875000 4342.904296875000000 612.346679687500000" />
      <path id="71,154" d="M 3914.580810546875000 4976.107421875000000 C 3673.790771484375000,4533.347656250000000 4549.529296875000000,3643.474853515625000 4996.087402343750000 3877.145507812500000" />
      <path id="72,153" d="M 3931.107910156250000 4967.042968750000000 C 3692.981445312500000,4536.508789062500000 4552.997070312500000,3662.612304687500000 4987.288574218750000 3893.815429687500000" />
      <path id="73,152" d="M 3947.569824218750000 4957.861328125000000 C 3712.268554687500000,4539.491699218750000 4556.288574218750000,3681.849121093750000 4978.371582031250000 3910.422363281250000" />
      <path id="74,151" d="M 3963.966064453125000 4948.562500000000000 C 3731.650390625000000,4542.294921875000000 4559.401855468750000,3701.184082031250000 4969.336914062500000 3926.965576171875000" />
      <path id="75,150" d="M 3980.295898437500000 4939.147460937500000 C 3751.125976562500000,4544.917968750000000 4562.335937500000000,3720.614990234375000 4960.184570312500000 3943.443847656250000" />
      <path id="76,149" d="M 3996.558105468750000 4929.616210937500000 C 3770.693359375000000,4547.358398437500000 4565.089843750000000,3740.140625000000000 4950.915039062500000 3959.856933593750000" />
      <path id="77,148" d="M 4012.752441406250000 4919.970214843750000 C 3790.351074218750000,4549.616699218750000 4567.662109375000000,3759.759765625000000 4941.528808593750000 3976.203125000000000" />
      <path id="78,147" d="M 4028.877441406250000 4910.208496093750000 C 3810.097167968750000,4551.690429687500000 4570.052246093750000,3779.470214843750000 4932.026855468750000 3992.482421875000000" />
      <path id="79,146" d="M 4044.932617187500000 4900.333007812500000 C 3829.930419921875000,4553.579101562500000 4572.257812500000000,3799.270751953125000 4922.409179687500000 4008.693847656250000" />
      <path id="80,145" d="M 4060.916992187500000 4890.342773437500000 C 3849.849121093750000,4555.281250000000000 4574.278320312500000,3819.159179687500000 4912.676269531250000 4024.835937500000000" />
      <path id="85,104" d="M 4139.750976562500000 4838.700683593750000 C 4072.219970703125000,4739.505859375000000 4341.008300781250000,4528.597656250000000 4421.293457031250000 4617.784179687500000" />
      <path id="86,103" d="M 4155.294921875000000 4828.037597656250000 C 4093.882812500000000,4739.197265625000000 4335.555664062500000,4549.564941406250000 4407.239257812500000 4630.345703125000000" />
      <path id="88,101" d="M 4186.152343750000000 4806.380859375000000 C 4137.409179687500000,4737.969726562500000 4324.010253906250000,4591.550292968750000 4378.864257812500000 4655.166503906250000" />
      <path id="89,100" d="M 4201.464843750000000 4795.388671875000000 C 4159.268554687500000,4737.048828125000000 4317.916503906250000,4612.563476562500000 4364.545410156250000 4667.424804687500000" />
      <path id="90,99" d="M 4216.698242187500000 4784.287109375000000 C 4181.189941406250000,4735.922363281250000 4311.608398437500000,4633.587890625000000 4350.139160156250000 4679.581054687500000" />
      <path id="91,98" d="M 4231.853027343750000 4773.078125000000000 C 4203.171386718750000,4734.588867187500000 4305.084960937500000,4654.621093750000000 4335.647460937500000 4691.634277343750000" />
      <path id="121,139" d="M 4645.922363281250000 4389.529785156250000 C 4559.984375000000000,4314.625488281250000 4757.088867187500000,4056.885253906250000 4851.890625000000000 4120.199218750000000" />
      <path id="122,138" d="M 4658.256835937500000 4375.276367187500000 C 4580.890625000000000,4308.805175781250000 4756.948242187500000,4078.585449218750000 4841.365722656250000 4135.836914062500000" />
      <path id="123,137" d="M 4670.489746093750000 4360.935546875000000 C 4601.809570312500000,4302.771972656250000 4756.605468750000000,4100.354980468750000 4830.730468750000000 4151.399414062500000" />
      <path id="124,136" d="M 4682.620117187500000 4346.507812500000000 C 4622.740234375000000,4296.524414062500000 4756.059570312500000,4122.191406250000000 4819.984375000000000 4166.885742187500000" />
      <path id="125,135" d="M 4694.647949218750000 4331.994140625000000 C 4643.680664062500000,4290.062011718750000 4755.308593750000000,4144.092773437500000 4809.128417968750000 4182.295410156250000" />
      <path id="157,179" d="M 5021.768554687500000 3826.765869140625000 C 4898.158691406250000,3765.409179687500000 5044.713867187500000,3401.096679687500000 5176.377929687500000 3442.431640625000000" />
      <path id="158,178" d="M 5030.088867187500000 3809.852294921875000 C 4916.832031250000000,3754.635498046875000 5050.725097656250000,3421.800292968750000 5170.668457031250000 3460.395263671875000" />
      <path id="159,177" d="M 5038.289062500000000 3792.879882812500000 C 4935.465820312500000,3743.652099609375000 5056.561523437500000,3442.627685546875000 5164.831054687500000 3478.318115234375000" />
      <path id="160,172" d="M 5046.368164062500000 3775.849609375000000 C 4975.777343750000000,3742.668945312500000 5060.575195312500000,3540.244628906250000 5133.738281250000000 3567.284179687500000" />
      <path id="161,171" d="M 5054.325683593750000 3758.762207031250000 C 4994.396972656250000,3731.111816406250000 5065.398437500000000,3561.622070312500000 5127.141113281250000 3584.941406250000000" />
      <path id="162,170" d="M 5062.161621093750000 3741.618652343750000 C 5012.969238281250000,3719.345214843750000 5070.038574218750000,3583.112792968750000 5120.418457031250000 3602.551513671875000" />
      <path id="163,169" d="M 5069.875488281250000 3724.419433593750000 C 5031.492187500000000,3707.368652343750000 5074.495117187500000,3604.715820312500000 5113.570312500000000 3620.113037109375000" />
      <path id="188,340" d="M 5221.976562500000000 3279.058593750000000 C 4330.322265625000000,3060.708496093750000 3802.527832031250000,1358.350097656250000 4414.277832031250000 673.889648437500000" />
      <path id="189,339" d="M 5226.394531250000000 3260.734130859375000 C 4344.884765625000000,3051.505615234375000 3819.742675781250000,1357.700683593750000 4428.287109375000000 686.500488281250000" />
      <path id="190,338" d="M 5230.682128906250000 3242.378662109375000 C 4359.400878906250000,3042.116210937500000 3837.024658203125000,1357.231689453125000 4442.206542968750000 699.210937500000000" />
      <path id="192,336" d="M 5238.865234375000000 3205.578857421875000 C 4388.286621093750000,3022.778564453125000 3871.783691406250000,1356.837402343750000 4469.771972656250000 724.927734375000000" />
      <path id="193,335" d="M 5242.760253906250000 3187.136230468750000 C 4402.652343750000000,3012.830566406250000 3889.256835937500000,1356.913574218750000 4483.416992187500000 737.932128906250000" />
      <path id="196,264" d="M 5253.656250000000000 3131.648193359375000 C 4846.586914062500000,3056.214843750000000 4783.753906250000000,1987.130859375000000 5179.185546875000000 1864.532714843750000" />
      <path id="197,263" d="M 5257.025390625000000 3113.102294921875000 C 4861.243164062500000,3042.669677734375000 4799.896484375000000,1998.865722656250000 5184.703125000000000 1882.556396484375000" />
      <path id="198,262" d="M 5260.261718750000000 3094.532714843750000 C 4875.817382812500000,3028.936523437500000 4815.979492187500000,2010.797363281250000 5190.092773437500000 1900.619140625000000" />
      <path id="199,261" d="M 5263.365722656250000 3075.940429687500000 C 4890.307617187500000,3015.015625000000000 4832.000976562500000,2022.924804687500000 5195.353515625000000 1918.719482421875000" />
      <path id="204,256" d="M 5276.898437500000000 2982.674072265625000 C 4961.431640625000000,2942.616210937500000 4911.115722656250000,2086.494140625000000 5219.718261718750000 2009.758300781250000" />
      <path id="209,233" d="M 5287.105468750000000 2888.985595703125000 C 5137.722656250000000,2875.395507812500000 5139.997070312500000,2449.147460937500000 5289.516601562500000 2437.152587890625000" />
      <path id="210,232" d="M 5288.746093750000000 2870.207763671875000 C 5151.228515625000000,2858.683105468750000 5153.324218750000000,2466.003173828125000 5290.957031250000000 2455.947021484375000" />
      <path id="211,231" d="M 5290.253906250000000 2851.418701171875000 C 5164.622070312500000,2841.789794921875000 5166.537109375000000,2483.038574218750000 5292.263671875000000 2474.750976562500000" />
      <path id="213,230" d="M 5292.867187500000000 2813.810546875000000 C 5185.076171875000000,2807.090576171875000 5185.623046875000000,2499.900634765625000 5293.436523437500000 2493.563964843750000" />
      <path id="214,229" d="M 5293.972656250000000 2794.993408203125000 C 5198.119140625000000,2789.702148437500000 5198.603515625000000,2517.335205078125000 5294.475585937500000 2512.385009765625000" />
      <path id="215,228" d="M 5294.944824218750000 2776.168945312500000 C 5211.041992187500000,2772.135986328125000 5211.463867187500000,2534.947265625000000 5295.380859375000000 2531.212646484375000" />
      <path id="216,227" d="M 5295.783203125000000 2757.338134765625000 C 5223.843261718750000,2754.393066406250000 5224.202148437500000,2552.735595703125000 5296.151367187500000 2550.046386718750000" />
      <path id="218,225" d="M 5297.056640625000000 2719.660888671875000 C 5249.074218750000000,2718.380371093750000 5249.304687500000000,2588.837890625000000 5297.291992187500000 2587.728027343750000" />
      <path id="219,224" d="M 5297.493164062500000 2700.816406250000000 C 5261.500000000000000,2700.112060546875000 5261.665039062500000,2607.150146484375000 5297.660644531250000 2606.573730468750000" />
      <path id="234,255" d="M 5287.942382812500000 2418.368896484375000 C 5156.443847656250000,2429.860351562500000 5095.878906250000000,2059.007324218750000 5224.201660156250000 2028.066894531250000" />
      <path id="235,254" d="M 5286.234863281250000 2399.596923828125000 C 5166.767578125000000,2410.894042968750000 5111.700195312500000,2073.703613281250000 5228.554687500000000 2046.406738281250000" />
      <path id="236,253" d="M 5284.393554687500000 2380.837402343750000 C 5176.948242187500000,2391.769775390625000 5127.436523437500000,2088.595458984375000 5232.777343750000000 2064.777343750000000" />
      <path id="240,251" d="M 5275.694824218750000 2305.945068359375000 C 5204.300781250000000,2315.268798828125000 5170.383300781250000,2116.483886718750000 5240.829101562500000 2101.605957031250000" />
      <path id="241,250" d="M 5273.187500000000000 2287.263183593750000 C 5213.749023437500000,2295.456054687500000 5185.867187500000000,2132.042724609375000 5244.658691406250000 2120.062500000000000" />
      <path id="242,249" d="M 5270.546875000000000 2268.599365234375000 C 5223.044433593750000,2275.491943359375000 5201.255859375000000,2147.794921875000000 5248.356445312500000 2138.545898437500000" />
      <path id="243,248" d="M 5267.773925781250000 2249.955078125000000 C 5232.184570312500000,2255.377929687500000 5216.548828125000000,2163.740234375000000 5251.922851562500000 2157.054687500000000" />
      <path id="265,278" d="M 5173.539550781250000 1846.548583984375000 C 5093.486328125000000,1871.993652343750000 5011.262207031250000,1649.512207031250000 5088.623046875000000 1616.781005859375000" />
      <path id="266,277" d="M 5167.765625000000000 1828.604980468750000 C 5099.305664062500000,1850.903076171875000 5029.398437500000000,1661.749511718750000 5095.905761718750000 1634.166503906250000" />
      <path id="267,276" d="M 5161.864257812500000 1810.703125000000000 C 5104.947753906250000,1829.690429687500000 5047.480468750000000,1674.194335937500000 5103.064941406250000 1651.603759765625000" />
      <path id="268,275" d="M 5155.835937500000000 1792.843750000000000 C 5110.411621093750000,1808.356933593750000 5065.504882812500000,1686.847167968750000 5110.099609375000000 1669.091552734375000" />
      <path id="283,322" d="M 5050.362304687500000 1530.654296875000000 C 4832.798339843750000,1631.975097656250000 4470.621093750000000,1072.602050781250000 4652.102539062500000 915.552734375000000" />
      <path id="284,321" d="M 5042.343750000000000 1513.595458984375000 C 4836.348632812500000,1611.318603515625000 4490.921386718750000,1077.816406250000000 4664.386230468750000 929.850585937500000" />
      <path id="285,320" d="M 5034.204101562500000 1496.593750000000000 C 4839.714355468750000,1590.559814453125000 4511.239746093750000,1083.240234375000000 4676.567871093750000 944.234375000000000" />
      <path id="286,319" d="M 5025.943847656250000 1479.650878906250000 C 4842.894531250000000,1569.701416015625000 4531.573730468750000,1088.874023437500000 4688.647460937500000 958.705078125000000" />
      <path id="287,318" d="M 5017.562988281250000 1462.766601562500000 C 4845.889160156250000,1548.743652343750000 4551.920898437500000,1094.717773437500000 4700.623046875000000 973.261230468750000" />
      <path id="288,317" d="M 5009.062500000000000 1445.943115234375000 C 4848.695800781250000,1527.689941406250000 4572.280273437500000,1100.773437500000000 4712.495117187500000 987.902343750000000" />
      <path id="289,316" d="M 5000.442382812500000 1429.179687500000000 C 4851.313476562500000,1506.540039062500000 4592.648437500000000,1107.039550781250000 4724.262207031250000 1002.627441406250000" />
      <path id="290,315" d="M 4991.703125000000000 1412.479003906250000 C 4853.741210937500000,1485.296875000000000 4613.025390625000000,1113.518554687500000 4735.924804687500000 1017.436523437500000" />
      <path id="292,314" d="M 4973.869140625000000 1379.265136718750000 C 4852.754882812500000,1445.411376953125000 4638.160644531250000,1116.546875000000000 4747.481445312500000 1032.327148437500000" />
      <path id="293,313" d="M 4964.775390625000000 1362.754150390625000 C 4854.625000000000000,1423.933593750000000 4658.573242187500000,1123.484863281250000 4758.932128906250000 1047.300781250000000" />
      <path id="296,305" d="M 4936.791992187500000 1313.615478515625000 C 4884.973632812500000,1343.861816406250000 4796.865234375000000,1203.439941406250000 4846.642089843750000 1169.939453125000000" />
      <path id="297,304" d="M 4927.232421875000000 1297.370361328125000 C 4885.950683593750000,1321.861816406250000 4817.099609375000000,1212.130859375000000 4857.110351562500000 1185.614257812500000" />
      <path id="387,472" d="M 3668.168457031250000 203.886718750000000 C 3469.644042968750000,680.168457031250000 2204.534912109375000,562.805175781250000 2097.012939453125000 58.131835937500000" />
      <path id="388,471" d="M 3650.743652343750000 196.696289062500000 C 3460.151611328125000,663.269531250000000 2216.973876953125000,547.941406250000000 2115.462890625000000 54.269531250000000" />
      <path id="389,470" d="M 3633.269042968750000 189.630859375000000 C 3450.460449218750000,646.407226562500000 2229.601562500000000,533.149414062500000 2133.939208984375000 50.539062500000000" />
      <path id="390,469" d="M 3615.743896484375000 182.689453125000000 C 3440.569580078125000,629.583007812500000 2242.418701171875000,518.431152343750000 2152.442138671875000 46.939453125000000" />
      <path id="391,467" d="M 3598.170410156250000 175.873046875000000 C 3432.629882812500000,607.196777343750000 2269.657470703125000,495.133789062500000 2189.521972656250000 40.136718750000000" />
      <path id="392,466" d="M 3580.548339843750000 169.181152343750000 C 3422.301269531250000,590.438476562500000 2282.995605468750000,480.656250000000000 2208.097167968750000 36.933593750000000" />
      <path id="393,465" d="M 3562.879638671875000 162.615234375000000 C 3411.773681640625000,573.725097656250000 2296.521240234375000,466.260742187500000 2226.695068359375000 33.862304687500000" />
      <path id="394,464" d="M 3545.164062500000000 156.175781250000000 C 3401.046875000000000,557.057617187500000 2310.232666015625000,451.947753906250000 2245.313720703125000 30.923339843750000" />
      <path id="395,463" d="M 3527.403564453125000 149.862304687500000 C 3390.122070312500000,540.438476562500000 2324.130615234375000,437.720214843750000 2263.953613281250000 28.117187500000000" />
      <path id="396,462" d="M 3509.598144531250000 143.674804687500000 C 3378.997802734375000,523.868652343750000 2338.213378906250000,423.580078125000000 2282.612060546875000 25.443359375000000" />
      <path id="427,441" d="M 2940.576171875000000 16.079101562500000 C 2930.669921875000000,105.532226562500000 2676.313476562500000,90.128906250000000 2677.273925781250000 0.134277343750000" />
      <path id="428,440" d="M 2921.834228515625000 14.071289062500000 C 2913.800781250000000,91.656250000000000 2694.733886718750000,78.390136718750000 2696.121337890625000 0.402343750000000" />
      <path id="429,439" d="M 2903.077880859375000 12.196289062500000 C 2896.747558593750000,77.891601562500000 2713.323242187500000,66.784179687500000 2714.966796875000000 0.804687500000000" />
      <path id="430,438" d="M 2884.309326171875000 10.455078125000000 C 2879.512451171875000,64.241699218750000 2732.080078125000000,55.313476562500000 2733.809082031250000 1.341308593750000" />
      <path id="431,437" d="M 2865.528320312500000 8.847656250000000 C 2862.095214843750000,50.707031250000000 2751.002929687500000,43.979492187500000 2752.646240234375000 2.011718750000000" />
      <path id="443,458" d="M 2639.575439453125000 0.000000000000000 C 2639.916992187500000,96.000000000000000 2367.990722656250000,111.496093750000000 2357.423828125000000 16.079101562500000" />
      <path id="444,457" d="M 2620.726074218750000 0.134277343750000 C 2621.622802734375000,84.129882812500000 2384.818115234375000,97.624023437500000 2376.166503906250000 14.071289062500000" />
      <path id="445,456" d="M 2601.878906250000000 0.402343750000000 C 2603.159667968750000,72.391113281250000 2401.828125000000000,83.864257812500000 2394.922363281250000 12.196289062500000" />
      <path id="446,455" d="M 2583.033447265625000 0.804687500000000 C 2584.527587890625000,60.786132812500000 2419.021240234375000,70.217773437500000 2413.691406250000000 10.455078125000000" />
      <path id="447,454" d="M 2564.191894531250000 1.341308593750000 C 2565.728515625000000,49.316406250000000 2436.395507812500000,56.687011718750000 2432.471923828125000 8.847656250000000" />
      <path id="699,763" d="M 85.250732421875000 3315.609863281250000 C 462.699707031250000,3217.465332031250000 935.556640625000000,4121.122070312500000 639.743041992187500 4375.276367187500000" />
      <path id="700,762" d="M 90.059082031250000 3333.835937500000000 C 455.208007812500000,3236.110839843750000 915.967285156250000,4116.647460937500000 627.510009765625000 4360.935058593750000" />
      <path id="701,761" d="M 94.997314453125000 3352.027587890625000 C 447.872070312500000,3254.891113281250000 896.355224609375000,4111.968261718750000 615.379272460937500 4346.507324218750000" />
      <path id="702,760" d="M 100.064697265625000 3370.183349609375000 C 440.692626953125000,3273.805664062500000 876.722534179687500,4107.083984375000000 603.351562500000000 4331.993652343750000" />
      <path id="703,759" d="M 105.260742187500000 3388.301757812500000 C 433.671142578125000,3292.851562500000000 857.071655273437500,4101.994628906250000 591.428222656250000 4317.395507812500000" />
      <path id="704,758" d="M 110.585937500000000 3406.383789062500000 C 426.809570312500000,3312.030273437500000 837.403320312500000,4096.698242187500000 579.608154296875000 4302.711914062500000" />
      <path id="705,757" d="M 116.039794921875000 3424.427246093750000 C 420.109863281250000,3331.338867187500000 817.720214843750000,4091.195312500000000 567.893066406250000 4287.944824218750000" />
      <path id="706,756" d="M 121.621826171875000 3442.431640625000000 C 413.572753906250000,3350.776123046875000 798.024047851562500,4085.484863281250000 556.283203125000000 4273.094726562500000" />
      <path id="709,751" d="M 139.134033203125000 3496.198730468750000 C 383.583007812500000,3413.684082031250000 709.154907226562500,4046.796875000000000 499.836669921875000 4197.627441406250000" />
      <path id="710,750" d="M 145.226318359375000 3514.037109375000000 C 377.739746093750000,3433.703613281250000 689.472167968750000,4039.903808593750000 488.871337890625000 4182.295410156250000" />
      <path id="711,749" d="M 151.444580078125000 3531.830078125000000 C 372.066650390625000,3453.843750000000000 669.789794921875000,4032.801269531250000 478.015380859375000 4166.885253906250000" />
      <path id="712,748" d="M 157.790039062500000 3549.580078125000000 C 366.566406250000000,3474.105224609375000 650.109619140625000,4025.488525390625000 467.269287109375000 4151.398925781250000" />
      <path id="713,747" d="M 164.261718750000000 3567.284179687500000 C 361.239746093750000,3494.485595703125000 630.434448242187500,4017.966308593750000 456.634277343750000 4135.836914062500000" />
      <path id="714,743" d="M 170.858886718750000 3584.941650390625000 C 339.249023437500000,3521.343017578125000 566.994628906250000,3976.090820312500000 415.208007812500000 4072.842285156250000" />
      <path id="715,742" d="M 177.581298828125000 3602.550781250000000 C 334.319091796875000,3542.075195312500000 547.438964843750000,3967.619873046875000 405.132568359375000 4056.910888671875000" />
      <path id="716,741" d="M 184.429199218750000 3620.112548828125000 C 329.568115234375000,3562.922607421875000 527.899169921875000,3958.937744140625000 395.170898437500000 4040.908447265625000" />
      <path id="717,740" d="M 191.401855468750000 3637.625244140625000 C 324.997314453125000,3583.882568359375000 508.376953125000000,3950.043945312500000 385.323242187500000 4024.835449218750000" />
      <path id="719,738" d="M 205.719970703125000 3672.498535156250000 C 316.400878906250000,3626.133300781250000 469.394531250000000,3931.621582031250000 365.973144531250000 3992.482421875000000" />
      <path id="720,737" d="M 213.064941406250000 3689.858642578125000 C 312.378173828125000,3647.422119140625000 449.937500000000000,3922.091796875000000 356.470947265625000 3976.202636718750000" />
      <path id="721,736" d="M 220.533203125000000 3707.165771484375000 C 308.541015625000000,3668.817138671875000 430.506347656250000,3912.350097656250000 347.084716796875000 3959.855957031250000" />
      <path id="784,794" d="M 919.135620117187500 4655.166503906250000 C 962.235229492187500,4605.182128906250000 1105.583496093750000,4720.155761718750000 1066.146606445312500 4773.077636718750000" />
      <path id="785,793" d="M 933.453979492187500 4667.423828125000000 C 968.425415039062500,4626.278320312500000 1083.645996093750000,4718.691406250000000 1051.072143554687500 4761.760742187500000" />
      <path id="804,848" d="M 1221.169799804687500 4880.239257812500000 C 1366.701782226562500,4652.817871093750000 2046.223754882812500,4950.352539062500000 1977.812744140625000 5211.541992187500000" />
      <path id="805,847" d="M 1237.082031250000000 4890.341796875000000 C 1374.596069335937500,4672.044433593750000 2026.739990234375000,4957.591796875000000 1959.595214843750000 5206.701171875000000" />
      <path id="806,846" d="M 1253.066772460937500 4900.332031250000000 C 1382.700439453125000,4691.260253906250000 2007.123779296875000,4964.669921875000000 1941.413696289062500 5201.731445312500000" />
      <path id="807,845" d="M 1269.122314453125000 4910.208496093750000 C 1391.014160156250000,4710.462890625000000 1987.374511718750000,4971.584960937500000 1923.266845703125000 5196.631835937500000" />
      <path id="808,844" d="M 1285.247558593750000 4919.969726562500000 C 1399.537109375000000,4729.649414062500000 1967.494628906250000,4978.334960937500000 1905.156738281250000 5191.403320312500000" />
      <path id="809,843" d="M 1301.442016601562500 4929.616699218750000 C 1408.269897460937500,4748.819335937500000 1947.485107421875000,4984.919921875000000 1887.084228515625000 5186.045898437500000" />
      <path id="810,842" d="M 1317.703491210937500 4939.147460937500000 C 1417.211425781250000,4767.968750000000000 1927.347778320312500,4991.336914062500000 1869.050292968750000 5180.559570312500000" />
      <path id="811,841" d="M 1334.033447265625000 4948.562500000000000 C 1426.364013671875000,4787.097167968750000 1907.084716796875000,4997.584960937500000 1851.057128906250000 5174.946289062500000" />
      <path id="813,840" d="M 1366.892333984375000 4967.042968750000000 C 1448.203857421875000,4820.031250000000000 1884.847412109375000,5009.371093750000000 1833.103027343750000 5169.204101562500000" />
      <path id="814,839" d="M 1383.418579101562500 4976.107421875000000 C 1457.948852539062500,4839.062500000000000 1864.293701171875000,5015.264160156250000 1815.190429687500000 5163.334960937500000" />
      <path id="815,838" d="M 1400.009887695312500 4985.053710937500000 C 1467.905151367187500,4858.064453125000000 1843.617431640625000,5020.983398437500000 1797.319946289062500 5157.337890625000000" />
      <path id="816,837" d="M 1416.664550781250000 4993.882324218750000 C 1478.072021484375000,4877.035644531250000 1822.821411132812500,5026.527832031250000 1779.493774414062500 5151.214355468750000" />
      <path id="817,836" d="M 1433.381469726562500 5002.591796875000000 C 1488.449096679687500,4895.973144531250000 1801.904785156250000,5031.895507812500000 1761.710449218750000 5144.963867187500000" />
      <path id="823,835" d="M 1534.943847656250000 5052.331054687500000 C 1567.747314453125000,4981.564453125000000 1770.620727539062500,5065.280273437500000 1743.972167968750000 5138.586914062500000" />
      <path id="824,834" d="M 1552.073730468750000 5060.197265625000000 C 1579.403686523437500,5000.122070312500000 1749.269165039062500,5070.217773437500000 1726.279541015625000 5132.083984375000000" />
      <path id="825,833" d="M 1569.259155273437500 5067.941894531250000 C 1591.269653320312500,5018.631347656250000 1727.804199218750000,5074.972656250000000 1708.634887695312500 5125.455566406250000" />
      <path id="826,832" d="M 1586.498168945312500 5075.563476562500000 C 1603.344116210937500,5037.089843750000000 1706.225219726562500,5079.543945312500000 1691.036621093750000 5118.701171875000000" />
      <path id="827,831" d="M 1603.792114257812500 5083.062500000000000 C 1615.629150390625000,5055.496582031250000 1684.534667968750000,5083.930664062500000 1673.486938476562500 5111.822265625000000" />
    </g>
    <g style="font-family: SansSerif" transform="translate(-4.6, 4)" id="seq">
      <text x="2649.000" y="5297.983">_</text>
      <text x="2667.849" y="5297.916">_</text>
      <text x="2686.698" y="5297.715">_</text>
      <text x="2705.544" y="5297.380">A</text>
      <text x="2724.388" y="5296.910">U</text>
      <text x="2743.228" y="5296.307">G</text>
      <text x="2762.063" y="5295.569">U</text>
      <text x="2780.892" y="5294.698">C</text>
      <text x="2799.715" y="5293.692">C</text>
      <text x="2818.530" y="5292.553">G</text>
      <text x="2837.336" y="5291.280">A</text>
      <text x="2856.134" y="5289.873">C</text>
      <text x="2874.920" y="5288.332">A</text>
      <text x="2893.695" y="5286.658">A</text>
      <text x="2912.458" y="5284.850">A</text>
      <text x="2931.207" y="5282.908">A</text>
      <text x="2949.942" y="5280.833">C</text>
      <text x="2968.662" y="5278.625">A</text>
      <text x="2987.365" y="5276.284">G</text>
      <text x="3006.052" y="5273.811">U</text>
      <text x="3024.720" y="5271.203">C</text>
      <text x="3043.369" y="5268.463">A</text>
      <text x="3061.999" y="5265.591">A</text>
      <text x="3080.607" y="5262.586">A</text>
      <text x="3099.194" y="5259.448">U</text>
      <text x="3117.757" y="5256.179">C</text>
      <text x="3136.297" y="5252.777">A</text>
      <text x="3154.813" y="5249.244">A</text>
      <text x="3173.302" y="5245.579">C</text>
      <text x="3191.766" y="5241.782">A</text>
      <text x="3210.202" y="5237.854">A</text>
      <text x="3228.609" y="5233.796">A</text>
      <text x="3246.987" y="5229.606">U</text>
      <text x="3265.334" y="5225.285">U</text>
      <text x="3283.651" y="5220.835">U</text>
      <text x="3301.936" y="5216.254">A</text>
      <text x="3320.187" y="5211.542">A</text>
      <text x="3338.404" y="5206.702">U</text>
      <text x="3356.586" y="5201.731">G</text>
      <text x="3374.733" y="5196.632">G</text>
      <text x="3392.843" y="5191.403">C</text>
      <text x="3410.915" y="5186.046">A</text>
      <text x="3428.949" y="5180.560">U</text>
      <text x="3446.943" y="5174.946">U</text>
      <text x="3464.896" y="5169.204">U</text>
      <text x="3482.809" y="5163.335">G</text>
      <text x="3500.679" y="5157.338">U</text>
      <text x="3518.506" y="5151.214">A</text>
      <text x="3536.289" y="5144.964">G</text>
      <text x="3554.027" y="5138.587">C</text>
      <text x="3571.719" y="5132.084">C</text>
      <text x="3589.365" y="5125.456">A</text>
      <text x="3606.963" y="5118.702">C</text>
      <text x="3624.512" y="5111.822">A</text>
      <text x="3642.012" y="5104.819">A</text>
      <text x="3659.462" y="5097.690">A</text>
      <text x="3676.861" y="5090.438">A</text>
      <text x="3694.208" y="5083.062">A</text>
      <text x="3711.501" y="5075.564">U</text>
      <text x="3728.741" y="5067.942">G</text>
      <text x="3745.926" y="5060.197">U</text>
      <text x="3763.056" y="5052.331">U</text>
      <text x="3780.129" y="5044.343">A</text>
      <text x="3797.145" y="5036.234">G</text>
      <text x="3814.103" y="5028.004">A</text>
      <text x="3831.001" y="5019.653">G</text>
      <text x="3847.840" y="5011.182">A</text>
      <text x="3864.619" y="5002.592">G</text>
      <text x="3881.335" y="4993.882">A</text>
      <text x="3897.990" y="4985.054">C</text>
      <text x="3914.581" y="4976.107">A</text>
      <text x="3931.108" y="4967.043">A</text>
      <text x="3947.570" y="4957.861">G</text>
      <text x="3963.966" y="4948.562">A</text>
      <text x="3980.296" y="4939.147">A</text>
      <text x="3996.558" y="4929.616">G</text>
      <text x="4012.752" y="4919.970">A</text>
      <text x="4028.877" y="4910.208">U</text>
      <text x="4044.933" y="4900.333">U</text>
      <text x="4060.917" y="4890.343">U</text>
      <text x="4076.830" y="4880.239">A</text>
      <text x="4092.671" y="4870.022">G</text>
      <text x="4108.438" y="4859.694">A</text>
      <text x="4124.132" y="4849.253">C</text>
      <text x="4139.751" y="4838.701">A</text>
      <text x="4155.295" y="4828.038">C</text>
      <text x="4170.762" y="4817.264">A</text>
      <text x="4186.152" y="4806.381">U</text>
      <text x="4201.465" y="4795.389">G</text>
      <text x="4216.698" y="4784.287">C</text>
      <text x="4231.853" y="4773.078">A</text>
      <text x="4246.927" y="4761.761">C</text>
      <text x="4261.920" y="4750.337">U</text>
      <text x="4276.832" y="4738.807">G</text>
      <text x="4291.662" y="4727.171">A</text>
      <text x="4306.408" y="4715.430">A</text>
      <text x="4321.070" y="4703.584">A</text>
      <text x="4335.647" y="4691.634">U</text>
      <text x="4350.139" y="4679.581">G</text>
      <text x="4364.545" y="4667.425">C</text>
      <text x="4378.864" y="4655.167">A</text>
      <text x="4393.096" y="4642.807">A</text>
      <text x="4407.239" y="4630.346">G</text>
      <text x="4421.293" y="4617.784">U</text>
      <text x="4435.258" y="4605.124">A</text>
      <text x="4449.132" y="4592.363">G</text>
      <text x="4462.915" y="4579.505">A</text>
      <text x="4476.606" y="4566.549">A</text>
      <text x="4490.204" y="4553.496">A</text>
      <text x="4503.709" y="4540.346">A</text>
      <text x="4517.121" y="4527.101">A</text>
      <text x="4530.438" y="4513.760">A</text>
      <text x="4543.659" y="4500.326">U</text>
      <text x="4556.785" y="4486.797">G</text>
      <text x="4569.813" y="4473.175">A</text>
      <text x="4582.745" y="4459.461">A</text>
      <text x="4595.579" y="4445.655">A</text>
      <text x="4608.314" y="4431.759">A</text>
      <text x="4620.950" y="4417.772">C</text>
      <text x="4633.487" y="4403.695">G</text>
      <text x="4645.922" y="4389.530">U</text>
      <text x="4658.257" y="4375.276">C</text>
      <text x="4670.490" y="4360.936">A</text>
      <text x="4682.620" y="4346.508">A</text>
      <text x="4694.648" y="4331.994">C</text>
      <text x="4706.572" y="4317.396">A</text>
      <text x="4718.392" y="4302.712">A</text>
      <text x="4730.106" y="4287.945">A</text>
      <text x="4741.716" y="4273.096">A</text>
      <text x="4753.220" y="4258.163">G</text>
      <text x="4764.617" y="4243.149">C</text>
      <text x="4775.907" y="4228.055">C</text>
      <text x="4787.089" y="4212.881">A</text>
      <text x="4798.163" y="4197.627">G</text>
      <text x="4809.128" y="4182.295">G</text>
      <text x="4819.984" y="4166.886">U</text>
      <text x="4830.730" y="4151.399">U</text>
      <text x="4841.366" y="4135.837">G</text>
      <text x="4851.891" y="4120.199">A</text>
      <text x="4862.303" y="4104.487">G</text>
      <text x="4872.604" y="4088.701">A</text>
      <text x="4882.792" y="4072.842">A</text>
      <text x="4892.867" y="4056.911">C</text>
      <text x="4902.829" y="4040.909">A</text>
      <text x="4912.676" y="4024.836">G</text>
      <text x="4922.409" y="4008.694">A</text>
      <text x="4932.027" y="3992.482">A</text>
      <text x="4941.529" y="3976.203">U</text>
      <text x="4950.915" y="3959.857">C</text>
      <text x="4960.185" y="3943.444">U</text>
      <text x="4969.337" y="3926.966">U</text>
      <text x="4978.372" y="3910.422">C</text>
      <text x="4987.289" y="3893.815">U</text>
      <text x="4996.087" y="3877.146">U</text>
      <text x="5004.767" y="3860.413">U</text>
      <text x="5013.327" y="3843.620">U</text>
      <text x="5021.769" y="3826.766">G</text>
      <text x="5030.089" y="3809.852">C</text>
      <text x="5038.289" y="3792.880">A</text>
      <text x="5046.368" y="3775.850">C</text>
      <text x="5054.326" y="3758.762">C</text>
      <text x="5062.162" y="3741.619">U</text>
      <text x="5069.875" y="3724.419">A</text>
      <text x="5077.467" y="3707.166">G</text>
      <text x="5084.935" y="3689.859">A</text>
      <text x="5092.280" y="3672.500">A</text>
      <text x="5099.501" y="3655.088">C</text>
      <text x="5106.598" y="3637.625">G</text>
      <text x="5113.570" y="3620.113">U</text>
      <text x="5120.418" y="3602.552">G</text>
      <text x="5127.141" y="3584.941">G</text>
      <text x="5133.738" y="3567.284">G</text>
      <text x="5140.210" y="3549.580">A</text>
      <text x="5146.555" y="3531.831">A</text>
      <text x="5152.774" y="3514.037">G</text>
      <text x="5158.866" y="3496.199">A</text>
      <text x="5164.831" y="3478.318">U</text>
      <text x="5170.668" y="3460.395">G</text>
      <text x="5176.378" y="3442.432">C</text>
      <text x="5181.960" y="3424.427">A</text>
      <text x="5187.414" y="3406.384">A</text>
      <text x="5192.739" y="3388.302">U</text>
      <text x="5197.936" y="3370.183">A</text>
      <text x="5203.003" y="3352.028">A</text>
      <text x="5207.940" y="3333.836">A</text>
      <text x="5212.749" y="3315.611">A</text>
      <text x="5217.428" y="3297.351">G</text>
      <text x="5221.977" y="3279.059">A</text>
      <text x="5226.395" y="3260.734">U</text>
      <text x="5230.682" y="3242.379">G</text>
      <text x="5234.839" y="3223.993">G</text>
      <text x="5238.865" y="3205.579">U</text>
      <text x="5242.760" y="3187.136">G</text>
      <text x="5246.524" y="3168.666">A</text>
      <text x="5250.156" y="3150.170">G</text>
      <text x="5253.656" y="3131.648">C</text>
      <text x="5257.025" y="3113.102">U</text>
      <text x="5260.262" y="3094.533">U</text>
      <text x="5263.366" y="3075.940">C</text>
      <text x="5266.338" y="3057.327">U</text>
      <text x="5269.177" y="3038.692">A</text>
      <text x="5271.884" y="3020.038">U</text>
      <text x="5274.458" y="3001.365">U</text>
      <text x="5276.898" y="2982.674">C</text>
      <text x="5279.207" y="2963.966">A</text>
      <text x="5281.381" y="2945.243">A</text>
      <text x="5283.423" y="2926.504">C</text>
      <text x="5285.331" y="2907.751">G</text>
      <text x="5287.105" y="2888.986">G</text>
      <text x="5288.746" y="2870.208">G</text>
      <text x="5290.254" y="2851.419">A</text>
      <text x="5291.627" y="2832.619">C</text>
      <text x="5292.867" y="2813.811">G</text>
      <text x="5293.973" y="2794.993">A</text>
      <text x="5294.945" y="2776.169">U</text>
      <text x="5295.783" y="2757.338">U</text>
      <text x="5296.487" y="2738.502">C</text>
      <text x="5297.057" y="2719.661">U</text>
      <text x="5297.493" y="2700.816">G</text>
      <text x="5297.795" y="2681.969">C</text>
      <text x="5297.962" y="2663.121">A</text>
      <text x="5297.996" y="2644.271">A</text>
      <text x="5297.896" y="2625.422">G</text>
      <text x="5297.661" y="2606.574">C</text>
      <text x="5297.292" y="2587.728">A</text>
      <text x="5296.789" y="2568.885">G</text>
      <text x="5296.151" y="2550.046">A</text>
      <text x="5295.381" y="2531.213">G</text>
      <text x="5294.476" y="2512.385">U</text>
      <text x="5293.437" y="2493.564">C</text>
      <text x="5292.264" y="2474.751">U</text>
      <text x="5290.957" y="2455.947">C</text>
      <text x="5289.517" y="2437.153">C</text>
      <text x="5287.942" y="2418.369">U</text>
      <text x="5286.235" y="2399.597">A</text>
      <text x="5284.394" y="2380.837">C</text>
      <text x="5282.419" y="2362.092">A</text>
      <text x="5280.311" y="2343.361">A</text>
      <text x="5278.069" y="2324.645">U</text>
      <text x="5275.695" y="2305.945">G</text>
      <text x="5273.188" y="2287.263">A</text>
      <text x="5270.547" y="2268.599">C</text>
      <text x="5267.774" y="2249.955">G</text>
      <text x="5264.868" y="2231.331">C</text>
      <text x="5261.830" y="2212.728">C</text>
      <text x="5258.660" y="2194.147">A</text>
      <text x="5255.357" y="2175.589">G</text>
      <text x="5251.923" y="2157.055">C</text>
      <text x="5248.356" y="2138.546">G</text>
      <text x="5244.659" y="2120.062">U</text>
      <text x="5240.829" y="2101.606">C</text>
      <text x="5236.869" y="2083.177">C</text>
      <text x="5232.777" y="2064.777">G</text>
      <text x="5228.555" y="2046.407">U</text>
      <text x="5224.202" y="2028.067">A</text>
      <text x="5219.718" y="2009.758">G</text>
      <text x="5215.104" y="1991.482">A</text>
      <text x="5210.361" y="1973.239">A</text>
      <text x="5205.488" y="1955.031">A</text>
      <text x="5200.485" y="1936.857">U</text>
      <text x="5195.354" y="1918.719">G</text>
      <text x="5190.093" y="1900.619">A</text>
      <text x="5184.703" y="1882.556">A</text>
      <text x="5179.186" y="1864.533">G</text>
      <text x="5173.540" y="1846.549">G</text>
      <text x="5167.766" y="1828.605">G</text>
      <text x="5161.864" y="1810.703">A</text>
      <text x="5155.836" y="1792.844">A</text>
      <text x="5149.681" y="1775.028">A</text>
      <text x="5143.398" y="1757.256">G</text>
      <text x="5136.990" y="1739.529">A</text>
      <text x="5130.456" y="1721.848">A</text>
      <text x="5123.796" y="1704.215">A</text>
      <text x="5117.010" y="1686.629">C</text>
      <text x="5110.100" y="1669.092">U</text>
      <text x="5103.065" y="1651.604">U</text>
      <text x="5095.906" y="1634.167">C</text>
      <text x="5088.623" y="1616.781">C</text>
      <text x="5081.216" y="1599.448">U</text>
      <text x="5073.687" y="1582.167">A</text>
      <text x="5066.034" y="1564.941">U</text>
      <text x="5058.259" y="1547.770">U</text>
      <text x="5050.362" y="1530.654">G</text>
      <text x="5042.344" y="1513.595">A</text>
      <text x="5034.204" y="1496.594">U</text>
      <text x="5025.944" y="1479.651">U</text>
      <text x="5017.563" y="1462.767">U</text>
      <text x="5009.062" y="1445.943">U</text>
      <text x="5000.442" y="1429.180">G</text>
      <text x="4991.703" y="1412.479">C</text>
      <text x="4982.845" y="1395.840">U</text>
      <text x="4973.869" y="1379.265">C</text>
      <text x="4964.775" y="1362.754">C</text>
      <text x="4955.564" y="1346.308">A</text>
      <text x="4946.236" y="1329.929">A</text>
      <text x="4936.792" y="1313.615">G</text>
      <text x="4927.232" y="1297.370">C</text>
      <text x="4917.557" y="1281.193">A</text>
      <text x="4907.767" y="1265.086">A</text>
      <text x="4897.862" y="1249.048">C</text>
      <text x="4887.844" y="1233.082">A</text>
      <text x="4877.712" y="1217.186">U</text>
      <text x="4867.468" y="1201.364">A</text>
      <text x="4857.110" y="1185.614">G</text>
      <text x="4846.642" y="1169.939">C</text>
      <text x="4836.062" y="1154.339">A</text>
      <text x="4825.371" y="1138.815">C</text>
      <text x="4814.570" y="1123.366">C</text>
      <text x="4803.660" y="1107.996">A</text>
      <text x="4792.640" y="1092.703">A</text>
      <text x="4781.512" y="1077.489">U</text>
      <text x="4770.275" y="1062.354">U</text>
      <text x="4758.932" y="1047.301">G</text>
      <text x="4747.481" y="1032.327">G</text>
      <text x="4735.925" y="1017.437">G</text>
      <text x="4724.262" y="1002.627">C</text>
      <text x="4712.495" y="987.902">A</text>
      <text x="4700.623" y="973.261">A</text>
      <text x="4688.647" y="958.705">A</text>
      <text x="4676.568" y="944.234">A</text>
      <text x="4664.386" y="929.851">U</text>
      <text x="4652.103" y="915.553">C</text>
      <text x="4639.717" y="901.344">C</text>
      <text x="4627.231" y="887.222">A</text>
      <text x="4614.646" y="873.190">A</text>
      <text x="4601.959" y="859.249">U</text>
      <text x="4589.175" y="845.397">C</text>
      <text x="4576.292" y="831.637">U</text>
      <text x="4563.312" y="817.970">A</text>
      <text x="4550.234" y="804.394">U</text>
      <text x="4537.061" y="790.912">U</text>
      <text x="4523.791" y="777.524">U</text>
      <text x="4510.427" y="764.231">G</text>
      <text x="4496.969" y="751.034">U</text>
      <text x="4483.417" y="737.932">C</text>
      <text x="4469.772" y="724.928">A</text>
      <text x="4456.035" y="712.021">C</text>
      <text x="4442.207" y="699.211">C</text>
      <text x="4428.287" y="686.500">A</text>
      <text x="4414.278" y="673.890">U</text>
      <text x="4400.179" y="661.378">G</text>
      <text x="4385.992" y="648.968">U</text>
      <text x="4371.716" y="636.659">A</text>
      <text x="4357.354" y="624.452">U</text>
      <text x="4342.904" y="612.347">U</text>
      <text x="4328.369" y="600.345">C</text>
      <text x="4313.749" y="588.447">C</text>
      <text x="4299.045" y="576.653">U</text>
      <text x="4284.257" y="564.965">A</text>
      <text x="4269.387" y="553.382">A</text>
      <text x="4254.434" y="541.904">C</text>
      <text x="4239.400" y="530.534">U</text>
      <text x="4224.286" y="519.271">U</text>
      <text x="4209.092" y="508.116">U</text>
      <text x="4193.818" y="497.068">G</text>
      <text x="4178.467" y="486.131">A</text>
      <text x="4163.038" y="475.302">U</text>
      <text x="4147.533" y="464.584">G</text>
      <text x="4131.951" y="453.977">G</text>
      <text x="4116.295" y="443.479">A</text>
      <text x="4100.564" y="433.095">A</text>
      <text x="4084.760" y="422.822">A</text>
      <text x="4068.883" y="412.662">C</text>
      <text x="4052.934" y="402.615">G</text>
      <text x="4036.914" y="392.682">U</text>
      <text x="4020.824" y="382.863">C</text>
      <text x="4004.664" y="373.159">U</text>
      <text x="3988.436" y="363.570">G</text>
      <text x="3972.140" y="354.097">G</text>
      <text x="3955.776" y="344.740">G</text>
      <text x="3939.347" y="335.500">A</text>
      <text x="3922.852" y="326.377">A</text>
      <text x="3906.293" y="317.371">G</text>
      <text x="3889.670" y="308.484">C</text>
      <text x="3872.985" y="299.715">A</text>
      <text x="3856.237" y="291.065">A</text>
      <text x="3839.429" y="282.534">C</text>
      <text x="3822.560" y="274.124">G</text>
      <text x="3805.631" y="265.833">A</text>
      <text x="3788.644" y="257.663">U</text>
      <text x="3771.600" y="249.614">G</text>
      <text x="3754.498" y="241.687">U</text>
      <text x="3737.341" y="233.882">A</text>
      <text x="3720.128" y="226.199">U</text>
      <text x="3702.861" y="218.638">C</text>
      <text x="3685.541" y="211.201">A</text>
      <text x="3668.168" y="203.887">U</text>
      <text x="3650.744" y="196.696">C</text>
      <text x="3633.269" y="189.631">A</text>
      <text x="3615.744" y="182.689">U</text>
      <text x="3598.170" y="175.873">C</text>
      <text x="3580.548" y="169.181">G</text>
      <text x="3562.880" y="162.615">U</text>
      <text x="3545.164" y="156.176">G</text>
      <text x="3527.404" y="149.862">G</text>
      <text x="3509.598" y="143.675">A</text>
      <text x="3491.750" y="137.614">G</text>
      <text x="3473.858" y="131.681">C</text>
      <text x="3455.925" y="125.876">A</text>
      <text x="3437.951" y="120.198">A</text>
      <text x="3419.937" y="114.647">C</text>
      <text x="3401.884" y="109.227">U</text>
      <text x="3383.793" y="103.934">U</text>
      <text x="3365.665" y="98.769">U</text>
      <text x="3347.500" y="93.734">A</text>
      <text x="3329.300" y="88.829">A</text>
      <text x="3311.065" y="84.053">C</text>
      <text x="3292.798" y="79.406">A</text>
      <text x="3274.497" y="74.891">A</text>
      <text x="3256.165" y="70.505">A</text>
      <text x="3237.802" y="66.250">G</text>
      <text x="3219.409" y="62.125">A</text>
      <text x="3200.987" y="58.132">C</text>
      <text x="3182.538" y="54.270">A</text>
      <text x="3164.061" y="50.539">A</text>
      <text x="3145.559" y="46.940">U</text>
      <text x="3127.031" y="43.472">G</text>
      <text x="3108.479" y="40.137">A</text>
      <text x="3089.903" y="36.934">A</text>
      <text x="3071.306" y="33.862">U</text>
      <text x="3052.687" y="30.923">U</text>
      <text x="3034.047" y="28.117">G</text>
      <text x="3015.388" y="25.443">C</text>
      <text x="2996.711" y="22.903">A</text>
      <text x="2978.015" y="20.495">A</text>
      <text x="2959.304" y="18.221">C</text>
      <text x="2940.576" y="16.079">U</text>
      <text x="2921.834" y="14.071">G</text>
      <text x="2903.078" y="12.196">U</text>
      <text x="2884.309" y="10.455">U</text>
      <text x="2865.528" y="8.848">U</text>
      <text x="2846.737" y="7.374">U</text>
      <text x="2827.935" y="6.034">C</text>
      <text x="2809.124" y="4.827">A</text>
      <text x="2790.305" y="3.755">A</text>
      <text x="2771.479" y="2.816">A</text>
      <text x="2752.646" y="2.012">G</text>
      <text x="2733.809" y="1.341">A</text>
      <text x="2714.967" y="0.805">A</text>
      <text x="2696.121" y="0.402">C</text>
      <text x="2677.274" y="0.134">A</text>
      <text x="2658.425" y="0.000">A</text>
      <text x="2639.575" y="0.000">U</text>
      <text x="2620.726" y="0.134">U</text>
      <text x="2601.879" y="0.402">U</text>
      <text x="2583.033" y="0.805">G</text>
      <text x="2564.192" y="1.341">G</text>
      <text x="2545.354" y="2.012">U</text>
      <text x="2526.522" y="2.816">G</text>
      <text x="2507.695" y="3.755">C</text>
      <text x="2488.877" y="4.827">C</text>
      <text x="2470.066" y="6.034">A</text>
      <text x="2451.264" y="7.374">U</text>
      <text x="2432.472" y="8.848">C</text>
      <text x="2413.691" y="10.455">C</text>
      <text x="2394.922" y="12.196">A</text>
      <text x="2376.167" y="14.071">A</text>
      <text x="2357.424" y="16.079">A</text>
      <text x="2338.697" y="18.221">U</text>
      <text x="2319.985" y="20.495">C</text>
      <text x="2301.290" y="22.903">C</text>
      <text x="2282.612" y="25.443">U</text>
      <text x="2263.954" y="28.117">U</text>
      <text x="2245.314" y="30.923">C</text>
      <text x="2226.695" y="33.862">A</text>
      <text x="2208.097" y="36.934">C</text>
      <text x="2189.522" y="40.137">G</text>
      <text x="2170.970" y="43.472">U</text>
      <text x="2152.442" y="46.939">A</text>
      <text x="2133.939" y="50.539">U</text>
      <text x="2115.463" y="54.270">G</text>
      <text x="2097.013" y="58.132">A</text>
      <text x="2078.592" y="62.125">G</text>
      <text x="2060.199" y="66.250">A</text>
      <text x="2041.836" y="70.505">U</text>
      <text x="2023.503" y="74.891">U</text>
      <text x="2005.203" y="79.406">G</text>
      <text x="1986.935" y="84.053">A</text>
      <text x="1968.700" y="88.829">G</text>
      <text x="1950.500" y="93.734">C</text>
      <text x="1932.336" y="98.769">U</text>
      <text x="1914.208" y="103.933">A</text>
      <text x="1896.116" y="109.227">U</text>
      <text x="1878.063" y="114.647">G</text>
      <text x="1860.049" y="120.197">C</text>
      <text x="1842.075" y="125.875">A</text>
      <text x="1824.142" y="131.681">U</text>
      <text x="1806.251" y="137.614">U</text>
      <text x="1788.402" y="143.675">U</text>
      <text x="1770.597" y="149.861">G</text>
      <text x="1752.836" y="156.176">U</text>
      <text x="1735.121" y="162.615">U</text>
      <text x="1717.452" y="169.181">U</text>
      <text x="1699.830" y="175.872">U</text>
      <text x="1682.256" y="182.689">G</text>
      <text x="1664.732" y="189.631">U</text>
      <text x="1647.256" y="196.696">A</text>
      <text x="1629.833" y="203.887">U</text>
      <text x="1612.459" y="211.201">U</text>
      <text x="1595.140" y="218.638">G</text>
      <text x="1577.872" y="226.198">C</text>
      <text x="1560.660" y="233.882">A</text>
      <text x="1543.502" y="241.687">G</text>
      <text x="1526.401" y="249.614">A</text>
      <text x="1509.356" y="257.663">A</text>
      <text x="1492.369" y="265.833">A</text>
      <text x="1475.441" y="274.124">U</text>
      <text x="1458.572" y="282.534">A</text>
      <text x="1441.763" y="291.065">C</text>
      <text x="1425.016" y="299.715">U</text>
      <text x="1408.330" y="308.484">A</text>
      <text x="1391.707" y="317.371">A</text>
      <text x="1375.148" y="326.377">G</text>
      <text x="1358.653" y="335.500">A</text>
      <text x="1342.224" y="344.740">A</text>
      <text x="1325.861" y="354.097">G</text>
      <text x="1309.565" y="363.570">A</text>
      <text x="1293.336" y="373.159">U</text>
      <text x="1277.177" y="382.863">C</text>
      <text x="1261.086" y="392.682">U</text>
      <text x="1245.067" y="402.615">G</text>
      <text x="1229.117" y="412.662">U</text>
      <text x="1213.241" y="422.821">G</text>
      <text x="1197.436" y="433.095">G</text>
      <text x="1181.706" y="443.479">A</text>
      <text x="1166.049" y="453.976">U</text>
      <text x="1150.468" y="464.584">A</text>
      <text x="1134.962" y="475.302">C</text>
      <text x="1119.533" y="486.130">C</text>
      <text x="1104.182" y="497.068">U</text>
      <text x="1088.909" y="508.115">C</text>
      <text x="1073.714" y="519.271">A</text>
      <text x="1058.600" y="530.534">U</text>
      <text x="1043.566" y="541.904">C</text>
      <text x="1028.614" y="553.381">G</text>
      <text x="1013.743" y="564.964">C</text>
      <text x="998.955" y="576.653">U</text>
      <text x="984.251" y="588.447">A</text>
      <text x="969.631" y="600.345">G</text>
      <text x="955.096" y="612.347">A</text>
      <text x="940.647" y="624.451">C</text>
      <text x="926.284" y="636.659">A</text>
      <text x="912.009" y="648.968">A</text>
      <text x="897.821" y="661.378">G</text>
      <text x="883.723" y="673.889">U</text>
      <text x="869.713" y="686.500">G</text>
      <text x="855.794" y="699.211">G</text>
      <text x="841.965" y="712.020">C</text>
      <text x="828.229" y="724.927">C</text>
      <text x="814.583" y="737.932">G</text>
      <text x="801.031" y="751.034">G</text>
      <text x="787.573" y="764.231">A</text>
      <text x="774.209" y="777.524">A</text>
      <text x="760.940" y="790.912">U</text>
      <text x="747.766" y="804.394">U</text>
      <text x="734.689" y="817.969">G</text>
      <text x="721.708" y="831.637">A</text>
      <text x="708.826" y="845.397">A</text>
      <text x="696.041" y="859.249">A</text>
      <text x="683.355" y="873.190">C</text>
      <text x="670.769" y="887.222">A</text>
      <text x="658.283" y="901.343">G</text>
      <text x="645.898" y="915.553">G</text>
      <text x="633.614" y="929.850">A</text>
      <text x="621.432" y="944.234">A</text>
      <text x="609.353" y="958.705">U</text>
      <text x="597.378" y="973.261">U</text>
      <text x="585.505" y="987.902">A</text>
      <text x="573.738" y="1002.627">G</text>
      <text x="562.075" y="1017.437">A</text>
      <text x="550.519" y="1032.327">A</text>
      <text x="539.069" y="1047.300">A</text>
      <text x="527.725" y="1062.354">A</text>
      <text x="516.488" y="1077.489">U</text>
      <text x="505.361" y="1092.702">G</text>
      <text x="494.341" y="1107.995">U</text>
      <text x="483.430" y="1123.366">U</text>
      <text x="472.629" y="1138.814">U</text>
      <text x="461.939" y="1154.338">C</text>
      <text x="451.358" y="1169.939">A</text>
      <text x="440.889" y="1185.614">G</text>
      <text x="430.532" y="1201.364">A</text>
      <text x="420.288" y="1217.186">U</text>
      <text x="410.156" y="1233.081">G</text>
      <text x="400.138" y="1249.048">C</text>
      <text x="390.233" y="1265.085">A</text>
      <text x="380.443" y="1281.193">U</text>
      <text x="370.768" y="1297.370">U</text>
      <text x="361.208" y="1313.615">A</text>
      <text x="351.764" y="1329.928">A</text>
      <text x="342.436" y="1346.309">A</text>
      <text x="333.225" y="1362.753">A</text>
      <text x="324.131" y="1379.265">G</text>
      <text x="315.155" y="1395.840">C</text>
      <text x="306.297" y="1412.479">G</text>
      <text x="297.558" y="1429.179">G</text>
      <text x="288.938" y="1445.942">A</text>
      <text x="280.437" y="1462.767">U</text>
      <text x="272.056" y="1479.651">U</text>
      <text x="263.796" y="1496.593">C</text>
      <text x="255.656" y="1513.595">G</text>
      <text x="247.638" y="1530.654">U</text>
      <text x="239.741" y="1547.770">U</text>
      <text x="231.966" y="1564.940">A</text>
      <text x="224.314" y="1582.167">U</text>
      <text x="216.784" y="1599.448">G</text>
      <text x="209.377" y="1616.781">G</text>
      <text x="202.094" y="1634.166">C</text>
      <text x="194.935" y="1651.603">U</text>
      <text x="187.900" y="1669.091">A</text>
      <text x="180.990" y="1686.628">C</text>
      <text x="174.205" y="1704.214">C</text>
      <text x="167.545" y="1721.848">G</text>
      <text x="161.010" y="1739.529">A</text>
      <text x="154.602" y="1757.256">U</text>
      <text x="148.320" y="1775.026">G</text>
      <text x="142.164" y="1792.843">A</text>
      <text x="136.136" y="1810.703">A</text>
      <text x="130.234" y="1828.605">A</text>
      <text x="124.461" y="1846.547">U</text>
      <text x="118.815" y="1864.532">C</text>
      <text x="113.297" y="1882.556">U</text>
      <text x="107.907" y="1900.619">C</text>
      <text x="102.646" y="1918.720">U</text>
      <text x="97.515" y="1936.856">C</text>
      <text x="92.512" y="1955.030">U</text>
      <text x="87.639" y="1973.239">C</text>
      <text x="82.895" y="1991.482">A</text>
      <text x="78.282" y="2009.758">C</text>
      <text x="73.798" y="2028.066">U</text>
      <text x="69.445" y="2046.407">A</text>
      <text x="65.223" y="2064.777">U</text>
      <text x="61.132" y="2083.177">A</text>
      <text x="57.171" y="2101.606">C</text>
      <text x="53.341" y="2120.062">U</text>
      <text x="49.643" y="2138.546">C</text>
      <text x="46.077" y="2157.054">C</text>
      <text x="42.643" y="2175.588">G</text>
      <text x="39.340" y="2194.146">A</text>
      <text x="36.170" y="2212.728">A</text>
      <text x="33.132" y="2231.330">G</text>
      <text x="30.226" y="2249.955">U</text>
      <text x="27.453" y="2268.599">A</text>
      <text x="24.812" y="2287.263">U</text>
      <text x="22.305" y="2305.944">C</text>
      <text x="19.931" y="2324.644">A</text>
      <text x="17.689" y="2343.360">A</text>
      <text x="15.581" y="2362.092">A</text>
      <text x="13.606" y="2380.836">U</text>
      <text x="11.765" y="2399.596">C</text>
      <text x="10.057" y="2418.368">A</text>
      <text x="8.483" y="2437.152">G</text>
      <text x="7.043" y="2455.946">G</text>
      <text x="5.736" y="2474.750">A</text>
      <text x="4.563" y="2493.563">G</text>
      <text x="3.524" y="2512.385">C</text>
      <text x="2.619" y="2531.212">C</text>
      <text x="1.848" y="2550.046">C</text>
      <text x="1.211" y="2568.885">A</text>
      <text x="0.708" y="2587.728">G</text>
      <text x="0.339" y="2606.574">C</text>
      <text x="0.105" y="2625.421">U</text>
      <text x="0.004" y="2644.271">C</text>
      <text x="0.038" y="2663.120">G</text>
      <text x="0.205" y="2681.969">A</text>
      <text x="0.507" y="2700.816">U</text>
      <text x="0.943" y="2719.660">C</text>
      <text x="1.513" y="2738.502">C</text>
      <text x="2.217" y="2757.338">C</text>
      <text x="3.055" y="2776.168">U</text>
      <text x="4.027" y="2794.993">A</text>
      <text x="5.133" y="2813.810">U</text>
      <text x="6.373" y="2832.619">U</text>
      <text x="7.746" y="2851.418">G</text>
      <text x="9.254" y="2870.207">G</text>
      <text x="10.895" y="2888.986">G</text>
      <text x="12.669" y="2907.752">G</text>
      <text x="14.577" y="2926.503">A</text>
      <text x="16.619" y="2945.242">A</text>
      <text x="18.793" y="2963.966">A</text>
      <text x="21.101" y="2982.674">U</text>
      <text x="23.542" y="3001.364">G</text>
      <text x="26.116" y="3020.037">A</text>
      <text x="28.823" y="3038.692">A</text>
      <text x="31.662" y="3057.327">A</text>
      <text x="34.634" y="3075.939">C</text>
      <text x="37.738" y="3094.532">A</text>
      <text x="40.975" y="3113.102">C</text>
      <text x="44.343" y="3131.648">C</text>
      <text x="47.844" y="3150.169">A</text>
      <text x="51.476" y="3168.666">G</text>
      <text x="55.240" y="3187.136">A</text>
      <text x="59.135" y="3205.579">U</text>
      <text x="63.161" y="3223.992">A</text>
      <text x="67.318" y="3242.378">U</text>
      <text x="71.605" y="3260.734">U</text>
      <text x="76.024" y="3279.058">G</text>
      <text x="80.572" y="3297.351">A</text>
      <text x="85.251" y="3315.610">C</text>
      <text x="90.059" y="3333.836">A</text>
      <text x="94.997" y="3352.028">A</text>
      <text x="100.065" y="3370.183">G</text>
      <text x="105.261" y="3388.302">A</text>
      <text x="110.586" y="3406.384">C</text>
      <text x="116.040" y="3424.427">U</text>
      <text x="121.622" y="3442.432">G</text>
      <text x="127.331" y="3460.395">A</text>
      <text x="133.169" y="3478.318">A</text>
      <text x="139.134" y="3496.199">G</text>
      <text x="145.226" y="3514.037">C</text>
      <text x="151.445" y="3531.830">U</text>
      <text x="157.790" y="3549.580">U</text>
      <text x="164.262" y="3567.284">A</text>
      <text x="170.859" y="3584.942">U</text>
      <text x="177.581" y="3602.551">A</text>
      <text x="184.429" y="3620.113">U</text>
      <text x="191.402" y="3637.625">G</text>
      <text x="198.499" y="3655.088">C</text>
      <text x="205.720" y="3672.499">U</text>
      <text x="213.065" y="3689.859">C</text>
      <text x="220.533" y="3707.166">U</text>
      <text x="228.125" y="3724.419">C</text>
      <text x="235.838" y="3741.617">G</text>
      <text x="243.674" y="3758.761">C</text>
      <text x="251.632" y="3775.849">U</text>
      <text x="259.711" y="3792.880">U</text>
      <text x="267.911" y="3809.851">A</text>
      <text x="276.231" y="3826.765">G</text>
      <text x="284.672" y="3843.619">A</text>
      <text x="293.233" y="3860.413">G</text>
      <text x="301.912" y="3877.145">A</text>
      <text x="310.711" y="3893.815">A</text>
      <text x="319.628" y="3910.422">G</text>
      <text x="328.663" y="3926.965">C</text>
      <text x="337.816" y="3943.444">U</text>
      <text x="347.085" y="3959.856">G</text>
      <text x="356.471" y="3976.203">G</text>
      <text x="365.973" y="3992.482">A</text>
      <text x="375.591" y="4008.694">C</text>
      <text x="385.323" y="4024.835">C</text>
      <text x="395.171" y="4040.908">A</text>
      <text x="405.133" y="4056.911">U</text>
      <text x="415.208" y="4072.842">A</text>
      <text x="425.396" y="4088.700">A</text>
      <text x="435.697" y="4104.486">C</text>
      <text x="446.110" y="4120.199">C</text>
      <text x="456.634" y="4135.837">U</text>
      <text x="467.269" y="4151.399">G</text>
      <text x="478.015" y="4166.885">A</text>
      <text x="488.871" y="4182.295">G</text>
      <text x="499.837" y="4197.627">C</text>
      <text x="510.910" y="4212.880">A</text>
      <text x="522.093" y="4228.055">A</text>
      <text x="533.383" y="4243.149">A</text>
      <text x="544.780" y="4258.163">G</text>
      <text x="556.283" y="4273.095">C</text>
      <text x="567.893" y="4287.945">A</text>
      <text x="579.608" y="4302.712">G</text>
      <text x="591.428" y="4317.396">U</text>
      <text x="603.352" y="4331.994">C</text>
      <text x="615.379" y="4346.507">U</text>
      <text x="627.510" y="4360.935">U</text>
      <text x="639.743" y="4375.276">G</text>
      <text x="652.077" y="4389.529">G</text>
      <text x="664.513" y="4403.695">G</text>
      <text x="677.049" y="4417.771">A</text>
      <text x="689.685" y="4431.759">A</text>
      <text x="702.420" y="4445.654">U</text>
      <text x="715.254" y="4459.460">C</text>
      <text x="728.186" y="4473.175">C</text>
      <text x="741.215" y="4486.797">A</text>
      <text x="754.341" y="4500.326">A</text>
      <text x="767.562" y="4513.760">A</text>
      <text x="780.879" y="4527.101">A</text>
      <text x="794.290" y="4540.346">U</text>
      <text x="807.796" y="4553.496">U</text>
      <text x="821.394" y="4566.548">C</text>
      <text x="835.085" y="4579.505">U</text>
      <text x="848.868" y="4592.363">G</text>
      <text x="862.742" y="4605.124">A</text>
      <text x="876.706" y="4617.784">A</text>
      <text x="890.760" y="4630.345">G</text>
      <text x="904.904" y="4642.806">A</text>
      <text x="919.136" y="4655.167">U</text>
      <text x="933.454" y="4667.424">C</text>
      <text x="947.860" y="4679.580">U</text>
      <text x="962.353" y="4691.634">U</text>
      <text x="976.930" y="4703.584">A</text>
      <text x="991.592" y="4715.429">U</text>
      <text x="1006.338" y="4727.171">U</text>
      <text x="1021.168" y="4738.807">U</text>
      <text x="1036.079" y="4750.337">U</text>
      <text x="1051.072" y="4761.761">G</text>
      <text x="1066.147" y="4773.078">A</text>
      <text x="1081.301" y="4784.287">U</text>
      <text x="1096.535" y="4795.389">U</text>
      <text x="1111.847" y="4806.380">A</text>
      <text x="1127.237" y="4817.264">U</text>
      <text x="1142.705" y="4828.037">A</text>
      <text x="1158.249" y="4838.701">A</text>
      <text x="1173.867" y="4849.252">A</text>
      <text x="1189.561" y="4859.693">U</text>
      <text x="1205.329" y="4870.022">A</text>
      <text x="1221.170" y="4880.239">A</text>
      <text x="1237.082" y="4890.342">C</text>
      <text x="1253.067" y="4900.332">A</text>
      <text x="1269.122" y="4910.208">G</text>
      <text x="1285.248" y="4919.970">A</text>
      <text x="1301.442" y="4929.617">G</text>
      <text x="1317.703" y="4939.147">A</text>
      <text x="1334.033" y="4948.562">U</text>
      <text x="1350.430" y="4957.861">G</text>
      <text x="1366.892" y="4967.043">U</text>
      <text x="1383.419" y="4976.107">U</text>
      <text x="1400.010" y="4985.054">U</text>
      <text x="1416.665" y="4993.882">G</text>
      <text x="1433.381" y="5002.592">U</text>
      <text x="1450.159" y="5011.182">A</text>
      <text x="1466.998" y="5019.652">A</text>
      <text x="1483.897" y="5028.003">A</text>
      <text x="1500.855" y="5036.234">A</text>
      <text x="1517.870" y="5044.343">A</text>
      <text x="1534.944" y="5052.331">C</text>
      <text x="1552.074" y="5060.197">A</text>
      <text x="1569.259" y="5067.942">U</text>
      <text x="1586.498" y="5075.563">U</text>
      <text x="1603.792" y="5083.062">A</text>
      <text x="1621.139" y="5090.438">U</text>
      <text x="1638.538" y="5097.690">A</text>
      <text x="1655.987" y="5104.818">U</text>
      <text x="1673.487" y="5111.822">U</text>
      <text x="1691.037" y="5118.701">A</text>
      <text x="1708.635" y="5125.456">A</text>
      <text x="1726.280" y="5132.084">U</text>
      <text x="1743.972" y="5138.587">G</text>
      <text x="1761.710" y="5144.964">A</text>
      <text x="1779.494" y="5151.214">U</text>
      <text x="1797.320" y="5157.338">A</text>
      <text x="1815.190" y="5163.335">A</text>
      <text x="1833.103" y="5169.204">A</text>
      <text x="1851.057" y="5174.946">A</text>
      <text x="1869.050" y="5180.560">U</text>
      <text x="1887.084" y="5186.046">C</text>
      <text x="1905.157" y="5191.403">U</text>
      <text x="1923.267" y="5196.632">U</text>
      <text x="1941.414" y="5201.731">U</text>
      <text x="1959.595" y="5206.701">G</text>
      <text x="1977.813" y="5211.542">U</text>
      <text x="1996.064" y="5216.254">G</text>
      <text x="2014.349" y="5220.835">C</text>
      <text x="2032.665" y="5225.285">A</text>
      <text x="2051.013" y="5229.605">A</text>
      <text x="2069.391" y="5233.796">U</text>
      <text x="2087.799" y="5237.854">U</text>
      <text x="2106.233" y="5241.782">C</text>
      <text x="2124.697" y="5245.579">A</text>
      <text x="2143.187" y="5249.244">C</text>
      <text x="2161.703" y="5252.777">U</text>
      <text x="2180.242" y="5256.179">U</text>
      <text x="2198.806" y="5259.448">A</text>
      <text x="2217.393" y="5262.586">U</text>
      <text x="2236.001" y="5265.591">A</text>
      <text x="2254.630" y="5268.463">U</text>
      <text x="2273.280" y="5271.203">A</text>
      <text x="2291.948" y="5273.810">A</text>
      <text x="2310.635" y="5276.284">U</text>
      <text x="2329.337" y="5278.625">U</text>
      <text x="2348.058" y="5280.833">G</text>
      <text x="2366.793" y="5282.908">U</text>
      <text x="2385.542" y="5284.850">U</text>
      <text x="2404.304" y="5286.658">U</text>
      <text x="2423.079" y="5288.332">U</text>
      <text x="2441.866" y="5289.873">A</text>
      <text x="2460.663" y="5291.280">A</text>
      <text x="2479.469" y="5292.553">G</text>
      <text x="2498.284" y="5293.692">U</text>
      <text x="2517.107" y="5294.698">U</text>
      <text x="2535.937" y="5295.569">_</text>
      <text x="2554.772" y="5296.307">U</text>
      <text x="2573.611" y="5296.910">U</text>
      <text x="2592.455" y="5297.380">A</text>
      <text x="2611.302" y="5297.715">_</text>
      <text x="2630.151" y="5297.916">_</text>
    </g>
  </g>
</svg>
